<svg width="735" height="176" viewBox="0 0 735 176" fill="none" xmlns="http://www.w3.org/2000/svg">
<path d="M168.084 144.946C168.174 143.589 168.053 142.579 167.723 141.916C167.394 141.226 166.671 140.845 165.553 140.771L165.154 140.745L165.233 139.547L170.022 139.862C170.98 139.925 171.701 140.133 172.186 140.486C172.671 140.838 172.995 141.394 173.159 142.153C173.324 142.886 173.362 143.93 173.273 145.287L172.709 153.869L180.799 140.571L185.589 140.886L184.355 159.646L179.166 159.304L180.072 145.534L171.982 158.832L167.192 158.517L168.084 144.946ZM208.188 161.394C205.057 161.016 202.659 159.902 200.994 158.052C199.331 156.175 198.572 153.852 198.717 151.082C198.863 148.313 199.861 146.096 201.711 144.43C203.563 142.739 206.065 141.869 209.219 141.822L209.324 139.824C209.395 138.466 209.261 137.458 208.922 136.799C208.584 136.114 207.856 135.742 206.738 135.683L206.338 135.662L206.402 134.463L211.195 134.716C212.154 134.766 212.877 134.964 213.367 135.311C213.856 135.657 214.187 136.208 214.361 136.965C214.536 137.695 214.588 138.739 214.517 140.098L214.411 142.095C217.543 142.473 219.94 143.601 221.604 145.478C223.269 147.328 224.028 149.637 223.883 152.407C223.737 155.176 222.738 157.407 220.887 159.099C219.037 160.764 216.535 161.62 213.381 161.668L213.003 168.858L207.81 168.584L208.188 161.394ZM209.345 143.23C208.001 143.4 206.824 144.192 205.815 145.608C204.807 146.997 204.239 148.916 204.11 151.366C203.981 153.816 204.344 155.798 205.199 157.312C206.055 158.799 207.143 159.697 208.462 160.007L209.345 143.23ZM213.255 160.259C214.599 160.09 215.775 159.31 216.783 157.921C217.792 156.506 218.361 154.573 218.49 152.123C218.619 149.673 218.255 147.705 217.399 146.218C216.544 144.704 215.457 143.792 214.138 143.482L213.255 160.259ZM228.651 148.422C228.709 147.063 228.566 146.056 228.22 145.401C227.903 144.72 227.184 144.355 226.065 144.307L225.666 144.29L225.717 143.091L229.673 143.261C230.606 143.301 231.32 143.465 231.814 143.753C232.31 144.015 232.691 144.458 232.958 145.084C234.59 143.766 236.431 143.151 238.482 143.239C241.173 143.355 243.199 144.363 244.558 146.263C245.946 148.137 246.578 150.513 246.454 153.391C246.33 156.268 245.483 158.594 243.912 160.368C242.369 162.117 240.212 162.931 237.441 162.812C236.349 162.765 235.332 162.522 234.39 162.081C233.971 161.903 233.606 161.687 233.297 161.433L232.936 169.825L227.741 169.602L228.651 148.422ZM236.719 160.98C239.384 161.094 240.83 158.487 241.059 153.159C241.164 150.708 240.942 148.75 240.391 147.285C239.84 145.82 238.911 145.059 237.606 145.003C236.114 144.939 234.798 145.43 233.659 146.475L233.755 147.04C233.848 147.364 233.882 147.819 233.856 148.405L233.374 159.635C233.657 159.887 233.968 160.101 234.307 160.276C235.036 160.707 235.84 160.942 236.719 160.98ZM250.403 169.547C251.869 169.599 253.065 169.361 253.991 168.833C254.917 168.306 255.685 167.319 256.297 165.873L257.213 163.744L250.575 147.739C249.763 145.789 248.562 144.68 246.97 144.41L246.999 143.61L250.516 143.735C251.689 143.776 252.718 144.106 253.603 144.725C254.49 145.316 255.155 146.114 255.6 147.117L259.84 157.353L265.173 144.654L267.292 144.729L258.46 165.83C257.64 167.882 256.724 169.264 255.711 169.975C254.698 170.713 253.445 171.056 251.953 171.003L250.354 170.946L250.403 169.547ZM285.439 164.455C284.266 164.422 283.194 164.152 282.221 163.644C281.276 163.11 280.393 162.258 279.572 161.088L275.877 155.941L275.654 163.778L270.457 163.63L270.842 150.036C270.88 148.676 270.722 147.672 270.367 147.021C270.013 146.344 269.276 145.99 268.156 145.958L267.756 145.947L267.79 144.747L272.588 144.883C273.548 144.911 274.277 145.091 274.774 145.425C275.271 145.76 275.616 146.303 275.808 147.055C276.001 147.781 276.078 148.824 276.04 150.183L275.932 153.982L280.938 148.201C281.875 147.134 282.75 146.372 283.564 145.915C284.377 145.458 285.45 145.248 286.783 145.286L287.582 145.308L287.553 146.348C286.753 146.325 286.029 146.465 285.38 146.766C284.731 147.068 284.104 147.557 283.498 148.234L279.486 152.842L284.604 160.03C285.835 161.799 287.045 162.847 288.237 163.174L288.209 164.134C287.993 164.234 287.604 164.317 287.042 164.381C286.48 164.445 285.946 164.47 285.439 164.455ZM295.725 147.298L294.526 147.271C293.273 147.243 292.319 147.555 291.664 148.207C291.009 148.86 290.665 149.919 290.632 151.385L289.433 151.358L289.496 148.559C289.543 146.426 290.567 145.382 292.567 145.427L307.003 145.751L306.963 147.55L300.924 147.415L300.543 164.411L295.344 164.294L295.725 147.298ZM317.42 165.091C315.473 165.064 313.773 164.615 312.318 163.742C310.89 162.842 309.799 161.654 309.045 160.177C308.292 158.673 307.928 157.002 307.953 155.162C307.978 153.322 308.387 151.674 309.18 150.218C309.973 148.735 311.096 147.577 312.547 146.743C314.025 145.883 315.738 145.466 317.684 145.492C319.631 145.519 321.318 145.981 322.746 146.881C324.201 147.754 325.305 148.942 326.058 150.446C326.812 151.923 327.176 153.581 327.151 155.421C327.126 157.261 326.717 158.922 325.924 160.405C325.131 161.861 323.995 163.019 322.517 163.879C321.065 164.713 319.366 165.117 317.42 165.091ZM317.444 163.291C318.804 163.309 319.854 162.59 320.594 161.133C321.333 159.676 321.719 157.748 321.752 155.348C321.784 152.948 321.45 151.01 320.75 149.534C320.05 148.058 319.02 147.311 317.66 147.292C316.3 147.274 315.25 147.993 314.511 149.45C313.771 150.907 313.385 152.835 313.352 155.235C313.32 157.635 313.654 159.573 314.354 161.049C315.054 162.525 316.084 163.272 317.444 163.291ZM331.495 151.257C331.503 149.897 331.322 148.896 330.953 148.254C330.583 147.585 329.839 147.247 328.719 147.241L328.519 147.24L328.526 146.04L339.246 146.103C341.726 146.118 343.683 146.543 345.118 147.378C346.58 148.213 347.306 149.404 347.297 150.951C347.29 152.124 346.845 153.068 345.96 153.783C345.076 154.471 343.82 154.917 342.192 155.121C343.978 155.371 345.401 155.9 346.463 156.706C347.525 157.486 348.052 158.502 348.045 159.755C348.024 163.222 345.054 164.938 339.134 164.903L331.414 164.857L331.495 151.257ZM338.078 154.096C339.145 154.103 340.04 153.828 340.763 153.272C341.513 152.69 341.891 151.906 341.897 150.919C341.903 149.879 341.561 149.09 340.871 148.553C340.208 147.989 339.423 147.704 338.516 147.699C337.876 147.695 337.276 147.785 336.715 147.968L336.678 154.088L338.078 154.096ZM338.424 163.299C339.677 163.306 340.692 163.005 341.469 162.397C342.246 161.761 342.638 160.87 342.645 159.723C342.652 158.47 342.245 157.521 341.422 156.876C340.626 156.231 339.508 155.905 338.068 155.896L336.668 155.888L336.626 163.008C337.184 163.198 337.784 163.295 338.424 163.299ZM352.557 151.356C352.554 149.996 352.365 148.996 351.99 148.357C351.615 147.692 350.867 147.36 349.747 147.363L349.347 147.364L349.344 146.164L354.144 146.152C355.104 146.15 355.838 146.308 356.346 146.627C356.853 146.945 357.214 147.478 357.429 148.224C357.645 148.944 357.754 149.983 357.757 151.343L357.763 153.743L360.363 153.737C362.896 153.731 364.898 154.219 366.367 155.202C367.836 156.158 368.572 157.53 368.577 159.317C368.581 161.103 367.851 162.492 366.387 163.482C364.923 164.446 362.924 164.931 360.391 164.937L352.591 164.956L352.557 151.356ZM374.19 164.903C373.23 164.905 372.497 164.76 371.989 164.468C371.482 164.15 371.121 163.63 370.906 162.911C370.69 162.165 370.581 161.098 370.578 159.712L370.544 146.112L375.744 146.099L375.778 159.699C375.781 161.059 375.97 162.072 376.345 162.738C376.72 163.377 377.468 163.695 378.588 163.692L378.988 163.691L378.99 164.891L374.19 164.903ZM359.587 163.339C360.6 163.336 361.452 163.028 362.144 162.412C362.836 161.771 363.18 160.743 363.177 159.33C363.173 157.917 362.824 156.904 362.129 156.293C361.434 155.654 360.58 155.336 359.567 155.339C358.927 155.34 358.327 155.435 357.768 155.623L357.786 163.063C358.346 163.248 358.947 163.34 359.587 163.339ZM405.531 165.567C402.678 165.602 400.604 165.001 399.309 163.763C398.013 162.499 397.349 160.533 397.317 157.867L397.232 150.907L391.64 164.737L390.32 164.753L383.188 150.679L383.36 164.798L381.361 164.822L381.132 146.063L386.011 146.004L392.078 157.971L397.126 145.468L402.365 145.404L402.517 157.804C402.544 160.07 402.778 161.721 403.217 162.755C403.656 163.79 404.424 164.394 405.519 164.567L405.531 165.567ZM408.475 150.903C408.446 149.544 408.239 148.548 407.852 147.916C407.465 147.257 406.712 146.939 405.592 146.963L405.192 146.971L405.167 145.771L409.966 145.671C410.926 145.651 411.662 145.796 412.175 146.105C412.689 146.415 413.06 146.94 413.289 147.682C413.517 148.398 413.645 149.435 413.674 150.795L413.853 159.393L420.764 145.446L425.563 145.346L425.955 164.142L420.756 164.25L420.468 150.453L413.558 164.4L408.759 164.501L408.475 150.903ZM449.411 163.874C447.359 163.941 445.599 163.558 444.131 162.725C442.663 161.893 441.532 160.756 440.738 159.314C439.97 157.845 439.557 156.204 439.498 154.392C439.439 152.579 439.745 150.929 440.417 149.439C441.115 147.922 442.169 146.701 443.579 145.774C444.99 144.848 446.721 144.351 448.774 144.285C451.972 144.18 454.053 144.58 455.016 145.482C455.484 145.92 455.783 146.511 455.914 147.254C456.045 147.997 456.139 149.261 456.198 151.047L454.998 151.086C454.837 149.41 454.276 148.148 453.314 147.298C452.352 146.423 451.058 146.011 449.432 146.064C447.966 146.112 446.815 146.83 445.98 148.218C445.171 149.578 444.809 151.577 444.895 154.216C445.068 159.547 446.821 162.158 450.152 162.049C451.432 162.007 452.489 161.693 453.323 161.105C454.184 160.49 454.997 159.637 455.761 158.545L457.031 159.424C456.297 160.648 455.356 161.68 454.21 162.517C453.063 163.355 451.464 163.807 449.411 163.874ZM469.244 163.15C467.299 163.227 465.577 162.868 464.078 162.074C462.604 161.252 461.452 160.123 460.621 158.688C459.789 157.227 459.336 155.577 459.263 153.738C459.19 151.9 459.511 150.232 460.226 148.736C460.939 147.213 461.999 145.997 463.404 145.087C464.834 144.15 466.522 143.642 468.467 143.565C470.412 143.488 472.122 143.861 473.596 144.683C475.095 145.477 476.261 146.605 477.093 148.067C477.923 149.502 478.375 151.138 478.448 152.977C478.521 154.816 478.201 156.496 477.487 158.019C476.773 159.515 475.7 160.732 474.27 161.669C472.865 162.579 471.19 163.073 469.244 163.15ZM469.173 161.351C470.532 161.297 471.542 160.523 472.203 159.029C472.865 157.535 473.148 155.589 473.053 153.191C472.957 150.793 472.521 148.875 471.743 147.438C470.966 146.001 469.898 145.31 468.539 145.364C467.18 145.418 466.17 146.192 465.508 147.686C464.847 149.18 464.564 151.126 464.659 153.524C464.754 155.922 465.191 157.84 465.968 159.277C466.746 160.714 467.814 161.405 469.173 161.351ZM498.409 161.854C497.237 161.91 496.147 161.721 495.138 161.288C494.156 160.827 493.211 160.045 492.304 158.939L488.23 154.087L488.601 161.918L483.407 162.164L482.764 148.579C482.7 147.22 482.466 146.23 482.063 145.609C481.658 144.96 480.897 144.663 479.778 144.716L479.379 144.734L479.322 143.536L484.116 143.309C485.075 143.264 485.815 143.389 486.337 143.684C486.858 143.98 487.243 144.496 487.491 145.232C487.738 145.941 487.894 146.975 487.958 148.333L488.138 152.129L492.693 145.987C493.547 144.852 494.362 144.026 495.138 143.508C495.915 142.991 496.969 142.701 498.301 142.638L499.1 142.6L499.149 143.639C498.35 143.677 497.638 143.871 497.014 144.22C496.39 144.57 495.801 145.105 495.248 145.826L491.595 150.724L497.242 157.505C498.602 159.175 499.889 160.129 501.102 160.365L501.147 161.324C500.939 161.441 500.557 161.552 500.001 161.659C499.446 161.765 498.915 161.83 498.409 161.854ZM509.173 161.289C507.016 161.406 505.312 161.018 504.062 160.125C502.837 159.203 502.179 157.917 502.09 156.266C502.017 154.935 502.263 153.813 502.828 152.901C503.419 151.987 504.488 151.262 506.035 150.724C507.581 150.186 509.752 149.84 512.548 149.688L513.147 149.656C513.021 147.339 512.612 145.719 511.921 144.795C511.229 143.845 510.257 143.404 509.005 143.472C507.967 143.528 507.128 143.827 506.49 144.369C505.852 144.912 505.424 145.883 505.207 147.283L503.01 147.403C502.961 146.498 502.972 145.723 503.044 145.078C503.142 144.431 503.391 143.857 503.791 143.355C504.566 142.378 506.538 141.803 509.706 141.631C512.369 141.486 514.431 142.082 515.892 143.418C517.379 144.725 518.198 146.777 518.35 149.573L518.937 160.357L515.542 160.542L514.046 158.821L513.846 158.831C513.627 159.217 513.274 159.61 512.789 160.011C511.923 160.779 510.717 161.205 509.173 161.289ZM510.262 159.227C510.822 159.196 511.295 159.064 511.683 158.829C512.069 158.567 512.438 158.227 512.789 157.807C513.115 157.416 513.357 156.962 513.516 156.446L513.245 151.453L512.646 151.486C510.755 151.589 509.403 152.009 508.588 152.748C507.772 153.46 507.404 154.535 507.482 155.973C507.541 157.064 507.813 157.891 508.298 158.452C508.782 159.013 509.437 159.271 510.262 159.227ZM547.587 159.549C544.74 159.731 542.637 159.238 541.28 158.068C539.921 156.873 539.156 154.944 538.986 152.283L538.543 145.337L533.672 159.436L532.354 159.52L524.506 145.832L525.406 159.924L523.41 160.051L522.214 141.329L527.084 141.018L533.76 152.657L538.156 139.91L543.386 139.577L544.176 151.951C544.32 154.213 544.639 155.85 545.131 156.86C545.623 157.871 546.42 158.435 547.523 158.551L547.587 159.549ZM549.768 144.753C549.669 143.396 549.411 142.413 548.992 141.801C548.571 141.164 547.802 140.885 546.685 140.967L546.286 140.996L546.199 139.799L550.986 139.45C551.944 139.381 552.687 139.487 553.216 139.77C553.744 140.052 554.142 140.558 554.409 141.287C554.674 141.99 554.856 143.019 554.954 144.376L555.578 152.953L561.758 138.667L566.545 138.318L567.91 157.069L562.723 157.446L561.722 143.683L555.542 157.969L550.755 158.317L549.768 144.753Z" fill="#FF7145"/>
<path d="M7.80216 74.1532C7.97735 72.8046 7.92106 71.7888 7.63328 71.1061C7.34894 70.3969 6.65143 69.9701 5.54076 69.8259L5.14409 69.7743L5.29868 68.5843L10.0587 69.2027C11.0107 69.3263 11.7173 69.5795 12.1785 69.9621C12.6397 70.3447 12.928 70.9199 13.0434 71.6879C13.1622 72.4293 13.134 73.4744 12.9588 74.8231L12.1086 81.3681L22.8186 82.7593L24.3387 71.0576L29.4954 71.7275L26.7644 92.7509C26.5892 94.0995 26.6438 95.1285 26.9281 95.8377C27.2159 96.5204 27.9151 96.934 29.0258 97.0782L29.4225 97.1298L29.2679 98.3198L24.5079 97.7014C23.5559 97.5778 22.8476 97.3379 22.3829 96.9817C21.9217 96.5991 21.6317 96.0371 21.5129 95.2956C21.3975 94.5276 21.4291 93.4561 21.6077 92.081L22.5868 84.5443L11.8768 83.1531L10.2279 95.8464L5.0712 95.1766L7.80216 74.1532ZM40.0601 100.014C38.233 99.7955 36.6817 99.1806 35.406 98.1689C34.1302 97.1571 33.1954 95.8773 32.6014 94.3293C32.037 92.758 31.8655 91.0455 32.0868 89.192C32.3334 87.1267 32.9143 85.4101 33.8296 84.0423C34.7714 82.6777 35.9485 81.7037 37.3609 81.1204C38.7766 80.5106 40.3184 80.3053 41.9866 80.5045C43.6283 80.7005 45.0715 81.2085 46.3164 82.0285C47.5613 82.8486 48.495 83.9134 49.1175 85.2231C49.7431 86.5064 49.9626 87.9291 49.7761 89.4913C49.716 89.9944 49.6216 90.5606 49.4927 91.1897L49.3184 91.9746L37.3634 90.5472C37.063 93.0626 37.2272 94.9487 37.856 96.2055C38.4879 97.4357 39.4923 98.1331 40.8692 98.2975C42.1402 98.4492 43.2325 98.2977 44.1463 97.8428C45.0896 97.3646 46.0217 96.6433 46.9425 95.679L48.0647 96.7396C47.1545 97.8394 46.0695 98.717 44.8096 99.3722C43.5762 100.031 41.993 100.244 40.0601 100.014ZM44.3288 89.566C44.626 87.0771 44.545 85.2815 44.0857 84.1792C43.6297 83.0505 42.8588 82.4214 41.7732 82.2918C40.767 82.1716 39.8814 82.6164 39.1162 83.6262C38.3808 84.6126 37.8676 86.3238 37.5768 88.7599L44.3288 89.566ZM54.1691 87.5781C54.3208 86.2266 54.2468 85.212 53.9472 84.5344C53.6506 83.8302 52.9457 83.4157 51.8327 83.2907L51.634 83.2684L51.7678 82.0759L65.4817 83.6152C67.4692 83.8383 68.344 85.0098 68.106 87.1299L67.7937 89.9124L66.6012 89.7785C66.7648 88.321 66.5658 87.2253 66.0041 86.4914C65.4425 85.7575 64.5389 85.3207 63.2934 85.1809L59.7159 84.7793L57.8197 101.673L52.6521 101.093L54.1691 87.5781ZM74.4327 103.882C72.2845 103.657 70.6637 103.004 69.5704 101.924C68.5064 100.821 68.0607 99.4467 68.2332 97.8024C68.3723 96.4763 68.7927 95.4077 69.4945 94.5965C70.2228 93.788 71.393 93.2405 73.0051 92.9537C74.6171 92.667 76.8155 92.6697 79.6002 92.9619L80.1969 93.0245C80.439 90.7171 80.2918 89.0527 79.7555 88.0312C79.2219 86.9831 78.3319 86.3937 77.0854 86.2629C76.0511 86.1544 75.176 86.3174 74.4601 86.7517C73.7442 87.1861 73.168 88.0775 72.7316 89.426L70.5436 89.1964C70.6382 88.2947 70.772 87.5312 70.9448 86.9058C71.1442 86.2832 71.4811 85.7555 71.9555 85.3226C72.875 84.4806 74.9128 84.2251 78.0688 84.5562C80.7209 84.8344 82.6628 85.7487 83.8945 87.299C85.1554 88.8255 85.6398 90.9812 85.3477 93.7659L84.2209 104.507L80.8395 104.152L79.6349 102.216L79.436 102.195C79.1584 102.541 78.7481 102.874 78.2053 103.192C77.2284 103.814 75.9709 104.044 74.4327 103.882ZM75.8348 102.018C76.3917 102.077 76.8803 102.021 77.3003 101.85C77.7232 101.653 78.1411 101.376 78.5542 101.017C78.9379 100.682 79.249 100.272 79.4875 99.7874L80.0092 94.8146L79.4124 94.752C77.5294 94.5545 76.1274 94.756 75.2064 95.3565C74.2882 95.9305 73.7539 96.9336 73.6037 98.3657C73.4896 99.4531 73.6274 100.312 74.0171 100.943C74.4067 101.574 75.0126 101.932 75.8348 102.018ZM94.8152 105.945C91.5503 105.632 89.197 104.334 87.7554 102.052L89.0456 101.171C90.1666 102.887 91.7491 103.842 93.793 104.039C95.0671 104.161 96.1039 103.966 96.9032 103.454C97.7292 102.944 98.2008 102.078 98.3182 100.857C98.4432 99.5566 98.1767 98.5665 97.5187 97.8871C96.8873 97.2102 95.6823 96.7863 93.9038 96.6154L91.913 96.424L92.0852 94.6323L94.0761 94.8236C95.6422 94.9742 96.7547 94.8266 97.4137 94.381C98.0753 93.9088 98.4648 93.0622 98.5821 91.8411C98.6893 90.7263 98.4246 89.8569 97.788 89.2332C97.154 88.5829 96.3327 88.2092 95.324 88.1122C94.1295 87.9974 93.0813 88.3119 92.1793 89.0557C91.2799 89.7729 90.7278 90.778 90.5232 92.071L89.3287 91.9562C89.4614 90.5759 89.6127 89.559 89.7827 88.9056C89.9552 88.2257 90.2888 87.6818 90.7834 87.2739C91.3071 86.842 92.0703 86.5671 93.0728 86.4492C94.0779 86.3047 95.2175 86.2937 96.4917 86.4162C98.9603 86.6535 100.856 87.2778 102.179 88.289C103.53 89.2762 104.123 90.6325 103.957 92.3578C103.845 93.5258 103.314 94.4526 102.364 95.1381C101.441 95.8263 100.239 96.2063 98.7584 96.2783C100.384 96.6489 101.635 97.2916 102.511 98.2063C103.414 99.1236 103.808 100.179 103.693 101.374C103.517 103.206 102.657 104.489 101.113 105.225C99.5689 105.96 97.4697 106.201 94.8152 105.945ZM108.951 93.2155C109.07 91.8607 108.972 90.8482 108.657 90.1778C108.344 89.4809 107.629 89.0832 106.513 88.9847L106.115 88.9495L106.221 87.7542L111.002 88.1763C111.958 88.2608 112.675 88.4846 113.151 88.848C113.628 89.2113 113.939 89.7742 114.086 90.5367C114.236 91.2727 114.25 92.3181 114.131 93.6728L113.374 102.239L121.76 89.1262L126.542 89.5483L124.888 108.275L119.708 107.818L120.922 94.0716L112.536 107.185L107.755 106.763L108.951 93.2155ZM131.56 95.184C131.667 93.8282 131.56 92.8166 131.239 92.149C130.946 91.457 130.242 91.0666 129.125 90.9779L128.726 90.9462L128.821 89.75L132.769 90.0637C133.699 90.1376 134.407 90.3276 134.89 90.6335C135.377 90.9129 135.742 91.3699 135.985 92.0046C137.664 90.7469 139.526 90.1994 141.573 90.3621C144.258 90.5754 146.245 91.6563 147.535 93.6045C148.853 95.5284 149.398 97.9258 149.17 100.797C148.942 103.668 148.011 105.961 146.376 107.677C144.771 109.368 142.586 110.104 139.821 109.885C138.731 109.798 137.723 109.517 136.798 109.043C136.386 108.849 136.029 108.62 135.729 108.356L135.064 116.729L129.88 116.317L131.56 95.184ZM139.166 108.027C141.824 108.238 143.365 105.685 143.787 100.369C143.982 97.9233 143.83 95.9585 143.333 94.4744C142.835 92.9903 141.935 92.1965 140.633 92.093C139.144 91.9747 137.812 92.4172 136.635 93.4205L136.71 93.9883C136.791 94.3157 136.809 94.7718 136.762 95.3567L135.872 106.561C136.145 106.824 136.448 107.049 136.781 107.236C137.494 107.693 138.289 107.957 139.166 108.027ZM160.9 111.465C158.958 111.328 157.286 110.781 155.883 109.827C154.509 108.847 153.488 107.598 152.82 106.081C152.155 104.536 151.887 102.846 152.017 101.011C152.147 99.1756 152.65 97.5537 153.525 96.1454C154.402 94.7106 155.589 93.6184 157.086 92.8691C158.611 92.095 160.344 91.7768 162.286 91.9145C164.228 92.0522 165.886 92.6109 167.26 93.5905C168.663 94.5455 169.697 95.7951 170.363 97.3394C171.03 98.8571 171.299 100.534 171.169 102.369C171.039 104.204 170.535 105.84 169.658 107.274C168.783 108.683 167.583 109.774 166.058 110.548C164.561 111.297 162.842 111.603 160.9 111.465ZM161.027 109.67C162.384 109.766 163.473 109.108 164.295 107.696C165.117 106.284 165.613 104.381 165.782 101.987C165.952 99.5931 165.73 97.6391 165.115 96.1252C164.501 94.6113 163.515 93.8062 162.159 93.71C160.802 93.6138 159.713 94.2718 158.891 95.6838C158.069 97.0959 157.573 98.9989 157.404 101.393C157.234 103.787 157.456 105.741 158.071 107.255C158.685 108.769 159.671 109.574 161.027 109.67ZM175.738 98.4592C175.824 97.1019 175.7 96.0922 175.368 95.43C175.037 94.7412 174.313 94.3617 173.195 94.2914L172.995 94.2788L173.071 93.0812L183.77 93.754C186.245 93.9097 188.175 94.4452 189.56 95.3607C190.972 96.2777 191.629 97.5081 191.532 99.0517C191.459 100.223 190.96 101.14 190.037 101.803C189.115 102.44 187.836 102.814 186.199 102.925C187.967 103.276 189.358 103.885 190.372 104.75C191.388 105.589 191.857 106.634 191.778 107.885C191.561 111.344 188.498 112.889 182.59 112.517L174.885 112.032L175.738 98.4592ZM182.15 101.668C183.214 101.735 184.123 101.512 184.877 100.998C185.659 100.459 186.081 99.6975 186.143 98.7128C186.208 97.6748 185.912 96.868 185.253 96.2922C184.623 95.6914 183.855 95.3626 182.951 95.3057C182.312 95.2655 181.707 95.321 181.137 95.4722L180.752 101.58L182.15 101.668ZM181.971 110.875C183.222 110.954 184.253 110.711 185.063 110.148C185.875 109.557 186.317 108.69 186.389 107.546C186.468 106.295 186.115 105.324 185.33 104.633C184.572 103.944 183.474 103.555 182.037 103.464L180.639 103.377L180.193 110.482C180.74 110.704 181.333 110.835 181.971 110.875ZM200.791 114.005C198.634 113.885 196.983 113.312 195.839 112.287C194.722 111.237 194.209 109.886 194.301 108.235C194.375 106.904 194.743 105.816 195.404 104.972C196.092 104.129 197.234 103.524 198.83 103.159C200.427 102.794 202.622 102.689 205.418 102.845L206.017 102.878C206.146 100.562 205.918 98.9065 205.332 97.9124C204.748 96.8917 203.83 96.3465 202.579 96.2769C201.54 96.2191 200.674 96.4246 199.98 96.8934C199.287 97.3623 198.755 98.2808 198.385 99.649L196.188 99.5268C196.239 98.6215 196.335 97.8523 196.477 97.2193C196.646 96.5877 196.956 96.0441 197.409 95.5885C198.286 94.7026 200.309 94.3478 203.477 94.5241C206.14 94.6723 208.124 95.4905 209.43 96.9787C210.764 98.4417 211.354 100.571 211.198 103.367L210.598 114.15L207.203 113.961L205.905 112.086L205.706 112.075C205.445 112.434 205.052 112.786 204.525 113.131C203.58 113.8 202.335 114.091 200.791 114.005ZM202.1 112.075C202.659 112.106 203.144 112.026 203.556 111.835C203.968 111.618 204.372 111.32 204.767 110.941C205.134 110.588 205.425 110.163 205.639 109.668L205.917 104.675L205.318 104.642C203.428 104.537 202.037 104.807 201.147 105.451C200.258 106.07 199.773 107.098 199.693 108.535C199.632 109.627 199.812 110.478 200.232 111.089C200.652 111.7 201.275 112.029 202.1 112.075ZM216.482 100.832C216.547 99.4733 216.408 98.4655 216.066 97.8085C215.724 97.1248 214.994 96.7563 213.876 96.703L213.476 96.6839L213.533 95.4853L218.328 95.7138C219.287 95.7595 220.012 95.9542 220.502 96.298C220.993 96.6418 221.328 97.1916 221.505 97.9476C221.684 98.6769 221.741 99.7208 221.676 101.079L221.524 104.276L227.917 104.58L228.316 96.1899L233.511 96.4375L232.863 110.022C232.798 111.38 232.937 112.402 233.278 113.085C233.62 113.742 234.351 114.097 235.469 114.151L235.869 114.17L235.812 115.368L231.017 115.14C230.058 115.094 229.333 114.913 228.841 114.596C228.35 114.252 228.015 113.715 227.836 112.986C227.659 112.23 227.603 111.16 227.669 109.774L227.831 106.378L221.438 106.074L221.029 114.664L215.835 114.416L216.482 100.832ZM239.469 101.901C239.522 100.543 239.375 99.536 239.027 98.8818C238.68 98.201 237.947 97.8386 236.828 97.7946L236.428 97.7788L236.476 96.5798L241.272 96.7684C242.231 96.8061 242.958 96.9948 243.451 97.3345C243.945 97.6741 244.284 98.2212 244.468 98.9757C244.652 99.7035 244.718 100.747 244.665 102.106L244.539 105.303L250.934 105.555L251.264 97.1613L256.46 97.3657L255.926 110.955C255.872 112.314 256.019 113.334 256.366 114.015C256.714 114.669 257.447 115.018 258.566 115.062L258.966 115.078L258.919 116.277L254.123 116.088C253.163 116.051 252.436 115.875 251.942 115.562C251.448 115.223 251.109 114.689 250.924 113.961C250.74 113.206 250.675 112.136 250.73 110.751L250.863 107.353L244.468 107.102L244.13 115.695L238.934 115.491L239.469 101.901ZM262.44 102.774C262.48 101.414 262.322 100.409 261.968 99.7586C261.614 99.0813 260.878 98.7263 259.758 98.6935L259.358 98.6819L259.393 97.4824L264.191 97.6226C265.151 97.6506 265.879 97.832 266.376 98.1667C266.873 98.5013 267.218 99.0449 267.409 99.7975C267.601 100.523 267.677 101.566 267.638 102.926L267.568 105.325L270.166 105.4C272.699 105.474 274.683 106.026 276.121 107.055C277.559 108.058 278.252 109.452 278.199 111.238C278.147 113.024 277.374 114.388 275.879 115.332C274.385 116.248 272.372 116.67 269.839 116.596L262.043 116.368L262.44 102.774ZM283.633 116.999C282.674 116.971 281.945 116.803 281.447 116.495C280.95 116.16 280.605 115.63 280.413 114.904C280.222 114.151 280.146 113.082 280.187 111.696L280.584 98.1017L285.782 98.2536L285.385 111.848C285.345 113.207 285.502 114.226 285.856 114.903C286.21 115.554 286.947 115.895 288.067 115.928L288.466 115.94L288.431 117.139L283.633 116.999ZM269.086 114.973C270.099 115.003 270.961 114.721 271.672 114.128C272.384 113.509 272.76 112.493 272.802 111.08C272.843 109.667 272.526 108.644 271.851 108.011C271.177 107.351 270.333 107.006 269.32 106.976C268.68 106.958 268.078 107.033 267.513 107.204L267.295 114.641C267.85 114.843 268.447 114.954 269.086 114.973ZM291.842 103.606C291.869 102.246 291.703 101.243 291.343 100.595C290.984 99.921 290.244 99.5724 289.124 99.5494L288.724 99.5411L288.749 98.3414L293.548 98.44C294.508 98.4598 295.238 98.6348 295.738 98.9651C296.238 99.2955 296.587 99.8361 296.785 100.587C296.983 101.311 297.068 102.353 297.04 103.713L296.864 112.311L304.346 98.662L309.145 98.7606L308.758 117.557L303.56 117.45L303.843 103.653L296.361 117.302L291.562 117.203L291.842 103.606ZM300.219 96.9768C298.94 96.9505 297.814 96.594 296.841 95.9072C295.869 95.1937 295.141 94.2585 294.658 93.1017L295.795 92.2849C296.237 92.8541 296.827 93.3463 297.565 93.7616C298.331 94.1507 299.233 94.356 300.273 94.3774C301.313 94.3987 302.21 94.2305 302.964 93.8725C303.745 93.4885 304.368 93.0212 304.833 92.4707L305.936 93.3335C305.405 94.4695 304.64 95.374 303.639 96.0469C302.639 96.6931 301.499 97.0031 300.219 96.9768ZM324.447 104.169C324.459 102.809 324.281 101.807 323.913 101.164C323.546 100.494 322.802 100.155 321.682 100.145L321.282 100.141L321.292 98.9415L326.092 98.9829C327.052 98.9912 327.784 99.1575 328.288 99.4819C328.792 99.8062 329.147 100.343 329.354 101.091C329.561 101.813 329.659 102.854 329.647 104.214L329.619 107.414L336.019 107.469L336.092 99.0692L341.292 99.1141L341.174 112.714C341.162 114.074 341.34 115.088 341.708 115.758C342.076 116.401 342.82 116.728 343.94 116.738L344.34 116.741L344.329 117.941L339.529 117.9C338.569 117.891 337.837 117.738 337.333 117.441C336.829 117.116 336.474 116.593 336.267 115.871C336.06 115.123 335.962 114.055 335.974 112.669L336.004 109.269L329.604 109.214L329.53 117.813L324.33 117.768L324.447 104.169ZM352.253 118.36C350.093 118.355 348.414 117.871 347.216 116.908C346.045 115.918 345.462 114.597 345.466 112.944C345.469 111.61 345.779 110.504 346.394 109.626C347.036 108.747 348.144 108.083 349.719 107.634C351.293 107.184 353.481 106.963 356.281 106.97L356.881 106.971C356.886 104.651 356.57 103.01 355.932 102.049C355.295 101.061 354.349 100.565 353.096 100.562C352.056 100.559 351.202 100.811 350.534 101.316C349.866 101.821 349.384 102.766 349.087 104.152L346.887 104.147C346.89 103.24 346.945 102.467 347.053 101.827C347.188 101.188 347.469 100.628 347.897 100.149C348.726 99.218 350.727 98.7562 353.9 98.7639C356.567 98.7704 358.592 99.4819 359.975 100.899C361.385 102.289 362.087 104.384 362.08 107.184L362.054 117.984L358.654 117.975L357.258 116.172L357.058 116.172C356.817 116.544 356.443 116.917 355.935 117.289C355.027 118.007 353.8 118.364 352.253 118.36ZM353.458 116.363C354.018 116.364 354.498 116.259 354.899 116.046C355.299 115.807 355.687 115.488 356.061 115.089C356.408 114.717 356.676 114.277 356.864 113.771L356.876 108.771L356.276 108.77C354.383 108.765 353.009 109.108 352.154 109.8C351.299 110.464 350.869 111.517 350.866 112.957C350.863 114.05 351.088 114.89 351.54 115.478C351.992 116.066 352.631 116.361 353.458 116.363ZM367.002 104.368C366.992 103.008 366.799 102.01 366.421 101.372C366.043 100.708 365.294 100.38 364.174 100.388L363.974 100.389L363.965 99.1895L383.765 99.0508L383.897 117.85L378.697 117.887L378.578 100.887L372.178 100.932L372.297 117.932L367.097 117.968L367.002 104.368ZM389.251 104.19C389.231 102.83 389.03 101.833 388.648 101.198C388.265 100.537 387.514 100.214 386.394 100.23L385.994 100.236L385.977 99.0361L390.776 98.9675C391.736 98.9538 392.472 99.1033 392.983 99.4161C393.494 99.7288 393.862 100.257 394.086 101C394.309 101.717 394.431 102.756 394.45 104.116L394.573 112.715L401.575 98.8133L406.375 98.7447L406.643 117.543L401.444 117.617L401.247 103.819L394.244 117.72L389.445 117.788L389.251 104.19ZM415.772 100.361L414.572 100.387C413.319 100.414 412.38 100.767 411.754 101.447C411.128 102.127 410.831 103.201 410.862 104.667L409.663 104.693L409.603 101.893C409.558 99.7603 410.535 98.6726 412.534 98.6299L426.971 98.3221L427.009 100.122L420.971 100.25L421.333 117.247L416.134 117.357L415.772 100.361ZM438.224 117.21C436.278 117.265 434.56 116.887 433.069 116.075C431.605 115.236 430.466 114.095 429.651 112.65C428.836 111.179 428.403 109.524 428.351 107.685C428.299 105.846 428.639 104.182 429.37 102.694C430.101 101.18 431.175 99.9757 432.59 99.0821C434.031 98.1611 435.725 97.6731 437.671 97.6182C439.616 97.5633 441.322 97.9553 442.786 98.7944C444.276 99.606 445.429 100.747 446.244 102.218C447.058 103.662 447.491 105.304 447.543 107.143C447.595 108.983 447.256 110.66 446.525 112.174C445.793 113.662 444.707 114.867 443.265 115.788C441.85 116.681 440.169 117.155 438.224 117.21ZM438.173 115.411C439.532 115.373 440.551 114.61 441.229 113.124C441.908 111.638 442.213 109.695 442.145 107.296C442.078 104.897 441.663 102.974 440.902 101.529C440.141 100.083 439.081 99.3791 437.721 99.4175C436.362 99.4559 435.343 100.218 434.665 101.705C433.986 103.191 433.681 105.134 433.749 107.533C433.816 109.932 434.231 111.854 434.992 113.3C435.753 114.746 436.813 115.449 438.173 115.411ZM467.401 116.253C466.228 116.295 465.14 116.093 464.137 115.649C463.16 115.176 462.224 114.383 461.331 113.267L457.314 108.367L457.593 116.202L452.396 116.387L451.912 102.796C451.864 101.436 451.641 100.444 451.246 99.8174C450.849 99.1644 450.091 98.8579 448.971 98.8977L448.572 98.912L448.529 97.7127L453.326 97.5419C454.285 97.5077 455.024 97.6415 455.542 97.9433C456.059 98.2451 456.438 98.7653 456.678 99.5039C456.917 100.216 457.06 101.251 457.109 102.61L457.244 106.408L461.87 100.32C462.737 99.1947 463.562 98.3781 464.344 97.87C465.127 97.3618 466.184 97.084 467.517 97.0365L468.316 97.0081L468.353 98.0474C467.554 98.0759 466.84 98.2614 466.212 98.604C465.584 98.9466 464.989 99.4747 464.427 100.189L460.717 105.044L466.285 111.89C467.626 113.576 468.901 114.545 470.11 114.795L470.145 115.755C469.935 115.869 469.552 115.976 468.995 116.076C468.439 116.176 467.907 116.235 467.401 116.253ZM491.238 115.197C489.187 115.293 487.422 114.936 485.942 114.124C484.462 113.313 483.315 112.192 482.501 110.762C481.711 109.304 481.274 107.67 481.189 105.858C481.104 104.047 481.387 102.392 482.037 100.893C482.713 99.3663 483.749 98.1296 485.146 97.183C486.544 96.2364 488.268 95.715 490.319 95.6187C493.515 95.4685 495.602 95.8377 496.578 96.7263C497.052 97.1578 497.36 97.744 497.501 98.4849C497.643 99.2257 497.755 100.488 497.839 102.273L496.641 102.329C496.455 100.656 495.876 99.4021 494.902 98.5669C493.927 97.705 492.627 97.3122 491.003 97.3885C489.538 97.4573 488.397 98.1916 487.582 99.5914C486.792 100.963 486.459 102.968 486.583 105.605C486.833 110.932 488.623 113.518 491.953 113.362C493.232 113.301 494.284 112.972 495.11 112.372C495.962 111.745 496.762 110.88 497.511 109.777L498.793 110.638C498.076 111.873 497.151 112.917 496.017 113.771C494.882 114.625 493.289 115.101 491.238 115.197ZM512.158 100.107C512.079 98.7491 511.834 97.7617 511.424 97.1447C511.012 96.501 510.247 96.2119 509.129 96.2775L508.929 96.2892L508.859 95.0912L519.561 94.4639C522.037 94.3188 524.017 94.6167 525.503 95.3577C527.016 96.0972 527.817 97.2389 527.908 98.7829C527.977 99.9542 527.593 100.925 526.756 101.695C525.918 102.439 524.694 102.965 523.082 103.273C524.88 103.408 526.335 103.844 527.446 104.58C528.556 105.289 529.148 106.27 529.221 107.521C529.424 110.982 526.571 112.885 520.661 113.232L512.954 113.683L512.158 100.107ZM518.911 102.516C519.976 102.453 520.851 102.122 521.537 101.52C522.248 100.891 522.575 100.084 522.517 99.0989C522.456 98.0607 522.064 97.2956 521.341 96.8038C520.643 96.2838 519.841 96.0503 518.936 96.1033C518.297 96.1408 517.703 96.2691 517.155 96.4882L517.513 102.598L518.911 102.516ZM519.849 111.677C521.1 111.603 522.093 111.238 522.83 110.58C523.564 109.896 523.898 108.982 523.831 107.837C523.757 106.586 523.289 105.665 522.427 105.074C521.591 104.482 520.454 104.228 519.016 104.313L517.619 104.395L518.035 111.502C518.605 111.656 519.21 111.714 519.849 111.677ZM533.189 98.8492C533.098 97.4922 532.845 96.5069 532.43 95.8931C532.014 95.2527 531.246 94.9698 530.129 95.0442L529.73 95.0708L529.65 93.8735L534.439 93.5544C535.397 93.4905 536.14 93.6014 536.666 93.887C537.193 94.1727 537.588 94.6809 537.85 95.4117C538.111 96.1159 538.287 97.1465 538.377 98.5035L538.949 107.085L545.215 92.8364L550.005 92.5173L551.255 111.276L546.066 111.621L545.149 97.8519L538.882 112.1L534.093 112.419L533.189 98.8492ZM559.467 93.6386L558.27 93.7273C557.02 93.8199 556.101 94.2223 555.512 94.9344C554.923 95.6465 554.682 96.7339 554.791 98.1966L553.594 98.2853L553.387 95.4929C553.23 93.3654 554.148 92.2278 556.143 92.08L570.543 91.0131L570.676 92.8081L564.653 93.2544L565.909 110.208L560.723 110.592L559.467 93.6386ZM580.25 109.49C578.097 109.665 576.383 109.323 575.11 108.463C573.86 107.574 573.169 106.306 573.035 104.658C572.927 103.329 573.143 102.201 573.683 101.275C574.25 100.346 575.299 99.5917 576.83 99.0125C578.362 98.4333 580.523 98.0304 583.314 97.8039L583.912 97.7553C583.724 95.4429 583.273 93.8342 582.557 92.9291C581.839 91.9975 580.856 91.5824 579.606 91.6838C578.57 91.768 577.74 92.0895 577.116 92.6485C576.493 93.2074 576.091 94.1899 575.911 95.5957L573.718 95.7737C573.645 94.8701 573.635 94.0949 573.69 93.4484C573.771 92.7997 574.005 92.2189 574.391 91.7059C575.14 90.7088 577.095 90.0818 580.258 89.825C582.916 89.6092 584.993 90.1495 586.49 91.446C588.011 92.7137 588.884 94.743 589.111 97.5338L589.985 108.298L586.596 108.574L585.055 106.893L584.856 106.909C584.647 107.3 584.305 107.703 583.83 108.116C582.985 108.907 581.791 109.365 580.25 109.49ZM581.284 107.4C581.842 107.354 582.312 107.209 582.693 106.964C583.072 106.693 583.432 106.342 583.772 105.913C584.087 105.513 584.317 105.053 584.462 104.533L584.058 99.5494L583.46 99.598C581.572 99.7512 580.232 100.208 579.437 100.968C578.641 101.701 578.301 102.786 578.417 104.221C578.506 105.311 578.8 106.13 579.299 106.678C579.798 107.226 580.46 107.467 581.284 107.4ZM618.602 106.711C615.761 106.97 613.646 106.534 612.257 105.402C610.866 104.244 610.049 102.337 609.807 99.6815L609.174 92.7503L604.689 106.977L603.374 107.097L595.156 93.6284L596.44 107.69L594.448 107.872L592.742 89.1895L597.602 88.7458L604.592 100.198L608.64 87.3365L613.858 86.8601L614.985 99.2087C615.191 101.466 615.554 103.093 616.074 104.09C616.593 105.087 617.406 105.629 618.511 105.715L618.602 106.711ZM620.374 91.8597C620.238 90.5065 619.952 89.5303 619.517 88.9309C619.078 88.3049 618.302 88.048 617.188 88.1602L616.79 88.2002L616.67 87.0062L621.445 86.5257C622.401 86.4295 623.146 86.5153 623.682 86.783C624.219 87.0506 624.63 87.5452 624.917 88.2668C625.202 88.9618 625.412 89.9859 625.548 91.3391L626.409 99.8959L632.191 85.4443L636.967 84.9638L638.849 103.669L633.675 104.19L632.294 90.4593L626.512 104.911L621.736 105.391L620.374 91.8597ZM642.904 89.5637C642.756 88.2118 642.461 87.2382 642.02 86.6429C641.576 86.0211 640.797 85.7714 639.684 85.8939L639.286 85.9376L639.155 84.7448L643.926 84.2199C644.88 84.1149 645.627 84.1938 646.165 84.4564C646.704 84.7191 647.12 85.2099 647.414 85.9287C647.705 86.6211 647.924 87.6432 648.073 88.995L648.423 92.1759L654.785 91.476L653.866 83.1264L659.035 82.5577L660.522 96.0762C660.671 97.428 660.967 98.4149 661.411 99.0367C661.852 99.632 662.629 99.8685 663.743 99.746L664.14 99.7023L664.272 100.895L659.5 101.42C658.546 101.525 657.801 101.459 657.265 101.223C656.727 100.96 656.312 100.483 656.021 99.7906C655.728 99.0718 655.505 98.0232 655.353 96.6448L654.982 93.2652L648.62 93.9651L649.56 102.513L644.392 103.082L642.904 89.5637ZM672.188 100.361C670.043 100.615 668.319 100.336 667.014 99.5231C665.733 98.6811 664.995 97.4392 664.801 95.7973C664.644 94.4732 664.819 93.3381 665.325 92.3922C665.857 91.4431 666.878 90.6511 668.387 90.0161C669.896 89.381 672.041 88.8991 674.822 88.5702L675.417 88.4997C675.145 86.1958 674.634 84.6047 673.886 83.7265C673.135 82.8219 672.137 82.4432 670.892 82.5904C669.859 82.7125 669.041 83.0644 668.439 83.6458C667.836 84.2273 667.471 85.2238 667.342 86.6353L665.158 86.8938C665.051 85.9934 665.013 85.2191 665.044 84.571C665.101 83.9198 665.314 83.3308 665.681 82.804C666.392 81.78 668.324 81.0816 671.475 80.7089C674.123 80.3956 676.219 80.8593 677.762 82.1C679.328 83.311 680.276 85.3069 680.605 88.0875L681.873 98.8127L678.497 99.2121L676.895 97.589L676.697 97.6125C676.502 98.0115 676.175 98.4261 675.716 98.8563C674.9 99.6778 673.724 100.179 672.188 100.361ZM673.145 98.234C673.701 98.1682 674.165 98.0059 674.538 97.7471C674.907 97.4617 675.253 97.0985 675.577 96.6575C675.877 96.246 676.09 95.7777 676.216 95.2526L675.629 90.2872L675.033 90.3577C673.153 90.5801 671.83 91.0857 671.064 91.8745C670.295 92.6368 669.995 93.7329 670.164 95.163C670.292 96.2487 670.616 97.0563 671.135 97.5856C671.654 98.115 672.324 98.3311 673.145 98.234ZM710.412 96.1528C707.582 96.5188 705.452 96.1624 704.022 95.0836C702.588 93.9784 701.7 92.1034 701.358 89.4588L700.466 82.5563L696.518 96.9415L695.209 97.1108L686.49 83.9605L688.302 97.9639L686.318 98.2204L683.912 79.6154L688.751 78.9894L696.167 90.1706L699.728 77.1664L704.925 76.4942L706.515 88.7918C706.806 91.0397 707.23 92.652 707.786 93.6287C708.343 94.6054 709.175 95.1162 710.284 95.1611L710.412 96.1528ZM711.613 81.2445C711.425 79.8976 711.102 78.933 710.644 78.3507C710.182 77.742 709.397 77.5151 708.287 77.6699L707.891 77.7252L707.725 76.5367L712.479 75.8733C713.43 75.7406 714.179 75.7977 714.725 76.0446C715.271 76.2916 715.701 76.77 716.015 77.48C716.326 78.1636 716.575 79.1789 716.763 80.5259L717.952 89.0433L723.176 74.3807L727.93 73.7173L730.528 92.3369L725.378 93.0556L723.471 79.388L718.247 94.0506L713.493 94.714L711.613 81.2445Z" fill="#FF7145"/>
<mask id="mask0_50_592" style="mask-type:alpha" maskUnits="userSpaceOnUse" x="-639" y="-626" width="1993" height="708">
<ellipse cx="357.5" cy="-272" rx="996.5" ry="354" fill="white"/>
</mask>
<g mask="url(#mask0_50_592)">
<path d="M398.656 42.0138C400.857 39.7013 402.609 37.6335 404.643 35.7831C408.579 32.2238 413.3 30.2333 418.542 30.0959C425.697 29.8916 431.246 31.9352 434.598 40.3955C434.801 40.9815 435.138 41.517 435.578 42.3685C436.099 41.6203 436.407 41.2442 436.62 40.8261C439.582 35.4759 443.967 31.7192 449.739 29.7839C454.203 28.2593 458.845 27.9584 463.464 29.5765C467.943 31.1081 470.613 34.3913 472.311 38.5751C474.357 43.6136 474.634 48.9418 474.866 54.2717C475.07 60.1045 475.184 65.9866 475.57 71.813C475.758 74.5895 476.448 77.35 477.09 80.065C477.632 82.5098 479.333 84.1838 481.518 85.3394C482.587 85.8952 483.474 86.5022 483.157 87.882C482.837 89.1706 481.802 89.5724 480.667 89.7489C480.213 89.8104 479.801 89.7791 479.346 89.795C472.738 90.0258 466.177 90.2549 459.569 90.4856C458.658 90.5175 457.606 90.4168 456.771 90.0353C455.38 89.3995 455.276 87.7608 456.335 86.7201C456.379 86.6729 456.423 86.6267 456.512 86.578C460.537 84.2475 461.59 80.4239 461.577 76.1356C461.547 68.7455 461.518 61.3537 461.124 53.9764C461.017 50.9232 460.725 47.7864 459.482 44.8642C458.389 42.3018 457.029 39.9753 454.209 38.9332C450.235 37.4751 446.9 38.6421 444.175 41.6116C441.888 44.0639 440.443 47.0794 439.414 50.2634C437.805 55.1557 436.837 60.1182 437.201 65.3067C437.383 67.901 437.291 70.5034 437.563 73.0489C437.834 75.5944 438.198 78.182 438.789 80.7164C439.429 83.3858 440.965 85.5683 443.563 86.8007C444.678 87.3549 445.431 88.0144 445.158 89.347C444.969 90.4486 444.032 91.1195 442.437 91.1752C435.192 91.4283 427.902 91.6828 420.656 91.9358C419.927 91.9613 419.049 91.6262 418.441 91.1912C417.554 90.629 417.469 89.4922 418.076 88.6041C418.295 88.3227 418.559 88.039 418.872 87.8456C422.493 85.7117 423.646 82.205 423.651 78.418C423.712 71.0247 423.592 63.6371 423.287 56.211C423.149 52.2465 422.643 48.249 420.737 44.6199C419.614 42.5148 418.101 40.9707 415.791 40.1389C411.864 38.7248 407.786 40.8754 405.688 43.5036C403.285 46.5531 401.766 50.0724 400.71 53.8048C399.575 57.905 398.943 62.0332 399.275 66.3103C399.533 69.7688 399.429 73.2857 399.778 76.741C400.041 79.0586 400.714 81.362 401.386 83.6198C402.006 85.6969 403.606 87.0554 405.468 88.131C407.097 89.0323 407.53 89.7019 407.204 90.8083C406.92 91.822 405.938 92.4487 404.391 92.5484C403.662 92.5739 402.886 92.601 402.157 92.6264C396.005 92.8413 389.854 93.056 383.702 93.2709C383.019 93.2947 382.294 93.4579 381.737 93.2036C380.995 92.8645 380.198 92.2531 379.809 91.5823C379.323 90.7324 379.838 89.7575 380.644 89.3187C384.758 86.9394 385.668 82.9372 385.662 78.8312C385.625 69.9357 385.271 61.0976 384.733 52.2197C384.521 48.7596 383.534 45.3713 381.875 42.2812C380.85 40.3552 379.427 38.8082 377.256 38.0627C376.794 37.8963 376.283 37.6408 375.908 37.3345C374.686 36.3278 375.041 34.7178 376.529 34.2096C376.756 34.1561 376.982 34.1024 377.165 34.0961C381.742 33.2062 386.318 32.3165 390.895 31.4267C391.167 31.3716 391.484 31.3159 391.756 31.2608C396.152 30.4229 397.451 32.3384 398.163 35.7353C398.437 37.0489 398.345 38.3757 398.437 39.6956C398.463 40.4247 398.579 41.1052 398.661 42.1517L398.656 42.0138Z" fill="#33C2A9"/>
<path d="M557.385 81.2627C556.881 81.9788 556.375 82.6936 555.87 83.4097C550.741 90.667 543.508 93.3938 534.894 92.9613C531.504 92.8032 528.301 91.9939 525.525 89.9253C520.879 86.4179 518.859 81.7454 519.558 75.9924C520.475 68.5815 524.685 63.4807 531.307 60.4718C535.662 58.4695 540.228 56.957 544.738 55.265C547.461 54.2305 549.988 52.9347 552.203 51.0633C557.542 46.4884 555.598 37.1065 549.901 35.0795C546.819 33.9888 543.695 33.7226 540.633 35.189C539.346 35.8159 538.213 36.7079 537.751 38.1067C536.737 40.9552 535.863 43.8392 534.943 46.7277C534.672 47.5209 534.35 48.2269 534.124 49.0173C532.976 52.6507 528.298 54.5819 524.142 52.3692C519.185 49.7487 517.894 42.8369 521.598 38.4076C523.469 36.1461 525.88 34.4912 528.555 33.4139C535.51 30.6131 542.743 29.3486 550.274 29.9843C553.763 30.2734 557.176 30.7972 560.41 32.1526C565.053 34.107 567.82 37.546 568.985 42.4084C569.78 45.6945 570.073 48.9643 570.276 52.2866C570.569 57.0653 570.863 61.8904 571.292 66.6607C571.763 71.3828 572.734 76.03 574.645 80.3899C575.709 82.8374 577.158 84.8957 579.862 85.7811C580.328 85.9353 580.806 86.2702 581.147 86.6148C582.172 87.6941 581.712 89.1389 580.273 89.5011C579.777 89.6227 579.224 89.5652 578.724 89.5958C574.824 90.0628 570.928 90.5747 567.025 90.9961C565.62 91.1734 564.213 91.3507 562.831 91.1612C559.882 90.7477 558.201 88.6577 558.108 85.6483C558.065 84.1892 558.07 82.7741 558.026 81.3149C557.799 81.3288 557.613 81.2488 557.385 81.2627ZM555.485 56.9387C555.081 57.0548 554.899 57.066 554.813 57.1626C550.653 60.8432 545.728 63.2004 540.594 65.159C538.497 65.9725 536.651 67.1818 535.255 69.0031C533.135 71.6909 532.792 75.7769 534.472 78.5978C536.663 82.301 540.031 83.603 543.652 83.0618C549.672 82.1454 553.423 78.4892 554.981 72.5923C556.202 67.9038 556.273 63.1023 555.932 58.2808C555.907 57.8712 555.701 57.4736 555.531 56.9358L555.485 56.9387Z" fill="#33C2A9"/>
<path d="M348.938 81.2685C347.798 82.6364 346.933 83.6384 346.112 84.6415C340.96 90.6602 334.256 92.6683 326.596 92.1667C322.583 91.8931 318.846 90.8438 315.791 88.108C311.733 84.4603 310.136 79.8551 311.002 74.5203C312.233 66.9968 316.794 62.0264 323.77 59.3362C328.239 57.6492 332.889 56.3726 337.494 54.9591C340.184 54.1384 342.737 52.9971 345.017 51.3101C350.671 47.1608 349.576 37.632 343.786 35.1241C340.776 33.8018 337.631 33.3922 334.531 34.7145C333.208 35.2616 332.251 36.2196 331.476 37.4507C329.834 40.0497 329.287 43.0573 328.147 45.8843C327.874 46.5683 327.507 47.2075 327.279 47.9371C326.002 51.676 320.897 53.3624 316.793 50.7178C312.188 47.7085 311.459 40.9154 315.335 36.7205C317.25 34.6686 319.575 33.2553 322.174 32.3434C329.333 29.8812 336.719 29.0604 344.242 30.0635C347.935 30.5651 351.538 31.3387 354.867 33.0714C359.016 35.2144 361.386 38.6797 362.298 43.2394C363.028 46.7503 363.073 50.3072 363.073 53.8637C363.073 58.241 363.073 62.6188 363.164 66.9505C363.347 71.9661 363.986 76.9818 365.673 81.7694C366.585 84.3684 367.907 86.6029 370.643 87.6516C370.78 87.6972 370.916 87.7875 371.052 87.8787C371.919 88.4258 372.558 89.1555 372.239 90.2498C371.92 91.2985 371.053 91.4365 370.095 91.4365C367.861 91.482 365.672 91.5268 363.438 91.6635C361.158 91.8003 358.88 92.12 356.554 92.2112C355.323 92.2568 353.999 92.212 352.814 91.8929C350.215 91.2089 348.803 89.1573 348.849 86.4671C348.849 85.5096 349.029 84.5504 349.029 83.5928C349.029 82.9545 348.94 82.3618 348.849 81.4043L348.938 81.2685ZM347.889 57.0564C343.648 60.5217 338.999 62.5283 334.165 64.1697C332.478 64.7169 330.791 65.3551 329.332 66.267C325.684 68.5468 324.179 72.6506 325.364 76.6175C326.413 80.0829 329.97 82.8646 333.983 82.6823C339.318 82.4999 343.467 80.0368 345.747 75.0212C348.209 69.6408 348.529 63.8947 348.392 58.1496C348.392 57.876 348.164 57.6492 347.936 57.0564H347.889Z" fill="#33C2A9"/>
<path d="M302.274 33.0615L302.083 37.4344C299.922 37.7965 297.907 37.9357 296.013 38.4463C292.087 39.5072 289.871 42.24 288.656 46.0208C287.861 48.5419 287.611 51.0866 287.544 53.6851C287.392 59.2466 287.106 64.7583 287.182 70.3297C287.239 74.2573 287.755 78.1134 289.745 81.6689C291.525 84.8045 294.396 85.9779 297.822 84.8496C298.656 84.5665 299.448 84.1914 300.284 83.8628C300.563 83.7381 300.842 83.6141 301.075 83.4873C302.753 82.6934 303.799 82.7837 304.486 83.7722C305.302 84.9488 305.002 86.6249 303.677 87.7081C301.642 89.3536 299.353 90.5766 296.855 91.3347C292.969 92.5342 288.988 92.7253 285.018 91.6847C279.783 90.3152 276.513 86.8414 274.957 81.7074C273.839 78.053 273.361 74.3345 273.481 70.5516C273.793 61.3003 274.151 52.0506 274.507 42.8469C274.543 42.0269 274.579 41.209 274.615 40.3891C274.701 38.4151 273.758 37.3833 271.784 37.2971C270.144 37.2255 268.55 37.1559 266.91 37.0843C265.817 37.0366 265.244 36.5559 265.292 35.4626C265.298 35.3259 265.304 35.1888 265.312 35.0066C265.275 31.6733 265.415 31.5889 268.709 31.4132C275.34 31.1094 279.384 27.3152 281.918 21.5382C282.729 19.7024 283.361 17.812 284.08 15.9722C284.595 14.6255 285.437 14.1161 286.802 14.2213C288.121 14.3245 288.956 15.09 289.124 16.4665C289.255 17.6588 289.202 18.8444 289.196 20.0308C289.047 23.4473 288.899 26.8171 288.75 30.2336C288.667 32.1468 288.882 32.43 290.841 32.5155C293.802 32.6448 296.764 32.7741 299.725 32.9034C300.545 32.9392 301.319 32.973 302.321 33.0167L302.274 33.0615Z" fill="#33C2A9"/>
<path d="M502.796 91.5053C499.381 91.6843 496.013 91.8608 492.597 92.0398C492.006 92.0708 491.285 92.2444 490.861 91.9926C490.154 91.5731 489.391 90.9754 488.991 90.3115C488.538 89.5134 489.088 88.6618 489.795 88.2138C494.131 85.5666 494.908 81.2342 494.814 76.8102C494.655 68.5542 494.175 60.2685 493.513 51.9932C493.226 48.2642 492.21 44.5749 490.523 41.1475C489.503 39.1007 488.049 37.4875 485.731 36.8327C485.314 36.7176 484.804 36.5611 484.56 36.2543C484.169 35.7725 483.682 35.1583 483.744 34.6071C483.809 34.1015 484.419 33.567 484.853 33.1333C485.026 32.9416 485.392 32.9679 485.708 32.9057C490.403 31.8834 495.101 30.9065 499.791 29.7932C501.642 29.3766 503.338 29.5168 504.979 30.344C507.04 31.3318 507.952 33.0654 507.846 35.3995C507.665 38.9248 507.351 42.5019 507.444 46.0128C507.822 55.8553 508.29 65.6485 508.896 75.4791C509.013 77.7103 509.816 79.95 510.568 82.1022C511.267 84.1202 512.849 85.5441 514.768 86.448C515.844 86.9395 516.786 87.4851 516.538 88.8678C516.325 90.0205 515.314 90.7579 513.675 90.8438C510.032 91.0347 506.434 91.2233 502.791 91.4142L502.796 91.5053Z" fill="#33C2A9"/>
<path d="M497.153 5.64035C501.556 5.13567 506.048 8.91897 506.354 13.8798C506.6 18.5698 502.712 22.7901 497.976 23.0383C493.468 23.2745 489.118 19.5772 488.862 14.7051C488.619 10.0606 492.763 5.50516 497.153 5.64035Z" fill="#33C2A9"/>
<path d="M241.394 63.7595C241.477 59.5632 241.699 55.3284 241.599 51.1226C241.51 47.6021 241.055 44.0624 239.909 40.6692C239.074 38.2969 237.719 36.3088 235.258 35.3579C234.855 35.1999 234.457 34.9489 234.155 34.6135C233.199 33.6958 233.501 32.2522 234.762 31.7247C235.088 31.6048 235.501 31.5805 235.87 31.5085C240.555 30.9779 245.282 30.4939 249.97 29.9177C251.487 29.7232 252.936 29.9376 254.324 30.4669C256.606 31.3627 257.833 33.2082 257.659 35.6647C257.592 36.9396 257.438 38.1625 257.234 39.4303C255.205 52.0172 254.72 64.7323 254.51 77.4602C254.465 79.1929 254.873 80.9934 255.285 82.7044C255.854 84.9258 257.176 86.686 259.214 87.8886C260.187 88.4875 261.162 89.0856 260.723 90.4781C260.441 91.5135 259.353 92.2322 257.895 92.1558C250.519 91.7692 243.096 91.3802 235.72 90.9937C235.447 90.9793 235.128 90.9626 234.86 90.8572C233.923 90.4428 233.179 89.8105 233.097 88.7561C233.013 87.7471 233.776 87.1481 234.574 86.7333C236.961 85.6256 238.388 83.6458 239.152 81.2659C239.801 79.3365 240.274 77.2617 240.473 75.2174C240.81 71.3997 240.876 67.5209 241.076 63.696C241.213 63.7032 241.304 63.708 241.441 63.7151L241.394 63.7595Z" fill="#33C2A9"/>
<path d="M240.906 13.8279C240.828 9.21229 245.553 5.30643 250.104 5.59059C254.156 5.80298 258.619 9.55234 258.294 14.8775C258.048 19.5675 253.838 23.2262 249.146 23.026C244.544 22.8305 240.385 18.5492 240.906 13.8279Z" fill="#33C2A9"/>
<path d="M137.882 0.499272C144.982 0.933515 150.913 1.06689 156.808 1.79285C158.395 1.9813 160.438 3.70484 161.122 5.20853C170.782 27.2698 180.299 49.4143 189.771 71.5555C190.248 72.7267 190.414 74.5179 189.846 75.5796C186.404 81.8102 182.741 87.891 178.558 95.0356C164.881 63.2268 151.64 32.4958 137.882 0.499272Z" fill="#33C2A9"/>
<path d="M223.697 6.11165C227.451 40.3286 207.362 51.3444 189.834 48.1253C190.186 34.8991 188.783 21.2453 201.288 11.7317C207.854 6.69714 214.63 4.96328 223.697 6.11165Z" fill="#33C2A9"/>
</g>
</svg>
