<svg width="393" height="117" viewBox="0 0 393 117" fill="none" xmlns="http://www.w3.org/2000/svg">
<mask id="mask0_79_71" style="mask-type:alpha" maskUnits="userSpaceOnUse" x="-582" y="-651" width="1570" height="708">
<ellipse cx="203" cy="-297" rx="785" ry="354" fill="white"/>
</mask>
<g mask="url(#mask0_79_71)">
<path d="M228.619 32.6987C229.979 31.2696 231.061 29.9917 232.318 28.8482C234.751 26.6487 237.668 25.4186 240.908 25.3337C245.33 25.2075 248.758 26.4703 250.83 31.6986C250.955 32.0608 251.164 32.3917 251.436 32.9179C251.758 32.4555 251.948 32.2231 252.08 31.9647C253.91 28.6584 256.62 26.3369 260.187 25.1409C262.945 24.1987 265.814 24.0128 268.669 25.0127C271.437 25.9592 273.087 27.9881 274.136 30.5736C275.4 33.6873 275.571 36.98 275.715 40.2738C275.841 43.8784 275.911 47.5133 276.15 51.1139C276.266 52.8298 276.692 54.5356 277.089 56.2135C277.424 57.7243 278.475 58.7588 279.826 59.4729C280.486 59.8164 281.034 60.1915 280.839 61.0442C280.641 61.8405 280.001 62.0888 279.3 62.1979C279.019 62.2359 278.765 62.2166 278.483 62.2264C274.4 62.369 270.345 62.5106 266.262 62.6532C265.699 62.6729 265.048 62.6107 264.533 62.3749C263.673 61.982 263.609 60.9693 264.263 60.3262C264.29 60.297 264.317 60.2685 264.373 60.2384C266.86 58.7981 267.51 56.4353 267.502 53.7852C267.484 49.2183 267.466 44.6503 267.222 40.0913C267.156 38.2045 266.976 36.266 266.208 34.4602C265.532 32.8767 264.692 31.439 262.949 30.7949C260.493 29.8939 258.433 30.615 256.749 32.4501C255.335 33.9656 254.442 35.8291 253.806 37.7967C252.812 40.8201 252.214 43.8868 252.439 47.0932C252.551 48.6964 252.495 50.3046 252.662 51.8777C252.83 53.4507 253.055 55.0498 253.42 56.616C253.816 58.2657 254.765 59.6144 256.37 60.376C257.059 60.7185 257.525 61.126 257.356 61.9496C257.239 62.6303 256.66 63.0449 255.675 63.0794C251.197 63.2357 246.692 63.393 242.215 63.5494C241.764 63.5651 241.221 63.358 240.845 63.0892C240.297 62.7418 240.244 62.0393 240.62 61.4905C240.755 61.3166 240.918 61.1413 241.112 61.0217C243.349 59.703 244.062 57.5359 244.065 55.1956C244.103 50.6267 244.029 46.0614 243.84 41.4722C243.755 39.0223 243.442 36.5519 242.264 34.3092C241.571 33.0083 240.636 32.0541 239.208 31.54C236.781 30.6662 234.261 31.9952 232.964 33.6194C231.479 35.5039 230.54 37.6787 229.888 39.9853C229.187 42.5191 228.796 45.0702 229.001 47.7134C229.161 49.8506 229.096 52.024 229.312 54.1593C229.475 55.5915 229.89 57.015 230.306 58.4103C230.689 59.6938 231.678 60.5334 232.829 61.1981C233.835 61.755 234.103 62.1689 233.901 62.8526C233.726 63.479 233.119 63.8663 232.163 63.9279C231.712 63.9437 231.233 63.9604 230.782 63.9762C226.98 64.1089 223.179 64.2417 219.378 64.3744C218.955 64.3892 218.507 64.49 218.163 64.3328C217.705 64.1233 217.212 63.7454 216.972 63.3309C216.672 62.8057 216.989 62.2032 217.487 61.9321C220.03 60.4617 220.593 57.9884 220.589 55.451C220.566 49.9538 220.347 44.4921 220.014 39.0057C219.883 36.8674 219.274 34.7736 218.248 32.8639C217.615 31.6737 216.736 30.7177 215.394 30.257C215.109 30.1542 214.793 29.9963 214.561 29.807C213.806 29.1849 214.025 28.1899 214.945 27.8758C215.085 27.8428 215.225 27.8096 215.338 27.8057C218.166 27.2558 220.994 26.706 223.822 26.1561C223.99 26.122 224.186 26.0876 224.354 26.0535C227.071 25.5357 227.874 26.7195 228.314 28.8187C228.483 29.6305 228.427 30.4504 228.483 31.2661C228.499 31.7167 228.571 32.1372 228.622 32.7839L228.619 32.6987Z" fill="#33C2A9"/>
<path d="M326.71 56.9536C326.398 57.3961 326.085 57.8379 325.774 58.2804C322.604 62.7653 318.134 64.4503 312.811 64.1831C310.716 64.0854 308.737 63.5853 307.021 62.3069C304.15 60.1394 302.902 57.2519 303.334 53.6967C303.9 49.1169 306.502 45.9647 310.594 44.1053C313.285 42.868 316.107 41.9333 318.894 40.8876C320.577 40.2483 322.139 39.4476 323.508 38.2911C326.807 35.4639 325.605 29.666 322.085 28.4134C320.18 27.7394 318.25 27.5749 316.357 28.4811C315.562 28.8685 314.862 29.4198 314.576 30.2841C313.95 32.0445 313.41 33.8267 312.841 35.6118C312.674 36.1019 312.475 36.5382 312.335 37.0267C311.626 39.2721 308.735 40.4655 306.167 39.0981C303.103 37.4787 302.305 33.2073 304.594 30.4701C305.751 29.0726 307.24 28.0498 308.894 27.3841C313.192 25.6533 317.662 24.8718 322.315 25.2647C324.472 25.4434 326.58 25.7671 328.58 26.6046C331.448 27.8125 333.158 29.9377 333.879 32.9425C334.37 34.9733 334.551 36.9939 334.677 39.0471C334.857 42.0002 335.039 44.9819 335.304 47.9299C335.595 50.8481 336.195 53.7199 337.376 56.4143C338.033 57.9267 338.929 59.1988 340.6 59.7459C340.888 59.8412 341.183 60.0481 341.394 60.2611C342.028 60.9281 341.744 61.8209 340.854 62.0447C340.548 62.1199 340.206 62.0844 339.897 62.1033C337.487 62.3919 335.079 62.7082 332.667 62.9686C331.799 63.0782 330.929 63.1878 330.075 63.0707C328.253 62.8151 327.214 61.5235 327.157 59.6638C327.13 58.7621 327.133 57.8876 327.106 56.9859C326.965 56.9945 326.851 56.945 326.71 56.9536ZM325.536 41.9219C325.286 41.9936 325.174 42.0006 325.121 42.0603C322.55 44.3348 319.506 45.7915 316.334 47.0019C315.038 47.5046 313.897 48.2519 313.034 49.3775C311.724 51.0385 311.512 53.5635 312.55 55.3067C313.904 57.5953 315.985 58.3999 318.223 58.0654C321.943 57.4991 324.262 55.2397 325.224 51.5955C325.979 48.6981 326.023 45.7309 325.812 42.7513C325.797 42.4982 325.669 42.2525 325.564 41.9202L325.536 41.9219Z" fill="#33C2A9"/>
<path d="M197.893 56.9571C197.189 57.8025 196.654 58.4217 196.147 59.0416C192.963 62.761 188.82 64.0019 184.086 63.692C181.606 63.5229 179.297 62.8745 177.409 61.1838C174.901 58.9296 173.914 56.0837 174.45 52.7869C175.21 48.1376 178.029 45.066 182.34 43.4035C185.102 42.3609 187.975 41.572 190.821 40.6985C192.483 40.1913 194.061 39.4861 195.47 38.4435C198.964 35.8793 198.288 29.9907 194.709 28.441C192.849 27.6238 190.906 27.3706 188.99 28.1878C188.173 28.5259 187.581 29.1179 187.102 29.8787C186.088 31.4849 185.75 33.3435 185.045 35.0905C184.876 35.5132 184.649 35.9082 184.509 36.3591C183.72 38.6696 180.564 39.7118 178.028 38.0775C175.182 36.2178 174.732 32.0198 177.127 29.4275C178.31 28.1595 179.748 27.2861 181.354 26.7225C185.778 25.2009 190.342 24.6937 194.991 25.3136C197.274 25.6236 199.5 26.1017 201.557 27.1724C204.121 28.4968 205.586 30.6382 206.15 33.456C206.6 35.6257 206.628 37.8238 206.628 40.0216C206.628 42.7267 206.628 45.4321 206.685 48.1089C206.797 51.2085 207.193 54.308 208.235 57.2667C208.799 58.8728 209.616 60.2537 211.306 60.9017C211.391 60.9299 211.475 60.9857 211.559 61.0421C212.095 61.3802 212.49 61.8311 212.293 62.5074C212.096 63.1555 211.56 63.2407 210.968 63.2407C209.587 63.2689 208.235 63.2965 206.854 63.381C205.445 63.4656 204.037 63.6632 202.6 63.7195C201.839 63.7477 201.021 63.72 200.288 63.5228C198.682 63.1001 197.81 61.8323 197.838 60.1698C197.838 59.578 197.949 58.9853 197.949 58.3935C197.949 57.999 197.894 57.6328 197.838 57.0411L197.893 56.9571ZM197.245 41.9946C194.624 44.1361 191.751 45.3761 188.764 46.3905C187.722 46.7286 186.679 47.123 185.777 47.6866C183.523 49.0954 182.593 51.6315 183.325 54.083C183.973 56.2245 186.172 57.9435 188.651 57.8308C191.948 57.7181 194.512 56.196 195.921 53.0965C197.443 49.7715 197.64 46.2205 197.556 42.6702C197.556 42.5011 197.415 42.3609 197.274 41.9946H197.245Z" fill="#33C2A9"/>
<path d="M169.057 27.1663L168.939 29.8687C167.604 30.0924 166.358 30.1784 165.188 30.494C162.762 31.1496 161.392 32.8384 160.641 35.1748C160.15 36.7328 159.996 38.3054 159.954 39.9112C159.86 43.3481 159.683 46.7542 159.73 50.1972C159.766 52.6244 160.084 55.0073 161.314 57.2046C162.414 59.1423 164.188 59.8674 166.306 59.1702C166.821 58.9952 167.31 58.7635 167.827 58.5604C167.999 58.4833 168.172 58.4066 168.316 58.3283C169.353 57.8377 169.999 57.8935 170.424 58.5044C170.928 59.2315 170.743 60.2673 169.924 60.9367C168.666 61.9535 167.252 62.7093 165.708 63.1778C163.307 63.9191 160.847 64.0372 158.393 63.3941C155.158 62.5478 153.137 60.4011 152.175 57.2284C151.484 54.97 151.189 52.6721 151.263 50.3343C151.456 44.6172 151.678 38.9012 151.898 33.2135C151.92 32.7067 151.942 32.2013 151.964 31.6946C152.017 30.4747 151.434 29.837 150.214 29.7838C149.201 29.7395 148.216 29.6965 147.203 29.6523C146.527 29.6228 146.173 29.3257 146.203 28.6501C146.206 28.5657 146.21 28.4809 146.215 28.3683C146.192 26.3084 146.279 26.2563 148.314 26.1477C152.412 25.96 154.911 23.6152 156.477 20.0452C156.978 18.9107 157.369 17.7425 157.813 16.6055C158.132 15.7732 158.652 15.4584 159.495 15.5235C160.31 15.5873 160.826 16.0603 160.93 16.911C161.011 17.6478 160.978 18.3805 160.975 19.1136C160.882 21.2249 160.792 23.3074 160.699 25.4187C160.648 26.601 160.781 26.776 161.992 26.8289C163.821 26.9088 165.652 26.9887 167.482 27.0686C167.988 27.0907 168.466 27.1116 169.086 27.1386L169.057 27.1663Z" fill="#33C2A9"/>
<path d="M292.975 63.2834C290.864 63.394 288.783 63.5031 286.672 63.6137C286.307 63.6329 285.861 63.7401 285.599 63.5845C285.162 63.3253 284.691 62.9559 284.444 62.5456C284.164 62.0524 284.504 61.5261 284.941 61.2493C287.62 59.6134 288.1 56.936 288.042 54.2021C287.944 49.1001 287.647 43.9797 287.238 38.8658C287.061 36.5613 286.433 34.2814 285.391 32.1634C284.76 30.8985 283.861 29.9016 282.429 29.497C282.172 29.4258 281.856 29.3291 281.705 29.1395C281.464 28.8418 281.163 28.4622 281.201 28.1216C281.241 27.8091 281.618 27.4788 281.886 27.2108C281.993 27.0923 282.219 27.1086 282.415 27.0701C285.316 26.4384 288.22 25.8347 291.118 25.1467C292.261 24.8892 293.31 24.9759 294.324 25.4871C295.598 26.0975 296.161 27.1688 296.096 28.6113C295.984 30.7898 295.79 33.0003 295.847 35.17C296.081 41.2525 296.37 47.3045 296.745 53.3796C296.817 54.7584 297.313 56.1424 297.778 57.4725C298.21 58.7195 299.187 59.5995 300.373 60.1581C301.038 60.4618 301.62 60.799 301.467 61.6535C301.335 62.3658 300.71 62.8215 299.697 62.8746C297.446 62.9926 295.223 63.1091 292.972 63.2271L292.975 63.2834Z" fill="#33C2A9"/>
<path d="M289.488 10.2207C292.209 9.90886 294.985 12.2469 295.174 15.3125C295.326 18.2109 292.923 20.8189 289.997 20.9723C287.211 21.1183 284.522 18.8334 284.365 15.8225C284.214 12.9524 286.775 10.1372 289.488 10.2207Z" fill="#33C2A9"/>
<path d="M131.433 46.1369C131.484 43.5436 131.621 40.9266 131.56 38.3275C131.504 36.152 131.223 33.9645 130.515 31.8676C129.999 30.4015 129.162 29.1729 127.641 28.5853C127.392 28.4876 127.146 28.3326 126.959 28.1253C126.368 27.5582 126.555 26.6661 127.334 26.3401C127.535 26.266 127.791 26.251 128.019 26.2065C130.914 25.8785 133.836 25.5795 136.732 25.2234C137.67 25.1032 138.566 25.2357 139.423 25.5628C140.833 26.1164 141.592 27.2569 141.484 28.7749C141.443 29.5628 141.347 30.3185 141.221 31.1019C139.967 38.8804 139.668 46.738 139.538 54.6036C139.51 55.6744 139.762 56.787 140.017 57.8444C140.368 59.2172 141.186 60.305 142.445 61.0481C143.046 61.4182 143.649 61.7879 143.378 62.6484C143.203 63.2882 142.531 63.7324 141.63 63.6852C137.072 63.4463 132.485 63.2059 127.926 62.967C127.757 62.9581 127.56 62.9477 127.395 62.8826C126.815 62.6265 126.356 62.2358 126.305 61.5842C126.253 60.9607 126.725 60.5905 127.218 60.3342C128.693 59.6496 129.575 58.4261 130.047 56.9554C130.448 55.7631 130.741 54.4809 130.863 53.2176C131.071 50.8583 131.112 48.4613 131.236 46.0976C131.321 46.1021 131.377 46.105 131.462 46.1095L131.433 46.1369Z" fill="#33C2A9"/>
<path d="M131.131 15.2804C131.083 12.428 134.003 10.0143 136.815 10.1899C139.32 10.3212 142.077 12.6382 141.877 15.929C141.725 18.8273 139.123 21.0884 136.223 20.9646C133.379 20.8438 130.809 18.198 131.131 15.2804Z" fill="#33C2A9"/>
<path d="M67.466 7.04376C71.8535 7.31211 75.5188 7.39453 79.1613 7.84316C80.1423 7.95962 81.4046 9.02472 81.8277 9.95397C87.7974 23.5874 93.6783 37.2722 99.532 50.9549C99.8265 51.6787 99.9291 52.7856 99.5784 53.4417C97.4515 57.2921 95.1878 61.0499 92.6028 65.4651C84.1503 45.8079 75.9678 26.8169 67.466 7.04376Z" fill="#33C2A9"/>
<path d="M120.497 10.512C122.817 31.6573 110.403 38.4649 99.5712 36.4755C99.7888 28.302 98.9216 19.8643 106.649 13.9851C110.707 10.8738 114.895 9.80235 120.497 10.512Z" fill="#33C2A9"/>
</g>
<path d="M18.9657 103.047C17.8426 102.928 16.9126 102.587 16.1758 102.022C15.439 101.458 14.9087 100.753 14.585 99.9074C14.2775 99.0491 14.176 98.124 14.2807 97.1322C14.3854 96.1403 14.677 95.2641 15.1555 94.5035C15.6502 93.7298 16.3167 93.1439 17.1551 92.7457C17.9936 92.3475 18.9743 92.2077 20.0974 92.3263C21.8477 92.511 22.9511 92.8856 23.4077 93.45C23.6295 93.7241 23.748 94.0685 23.7632 94.483C23.7785 94.8976 23.7345 95.5935 23.6313 96.5707L22.975 96.5014C23.0137 95.5764 22.8031 94.8463 22.3435 94.311C21.8853 93.7612 21.2114 93.4394 20.3217 93.3454C19.5195 93.2608 18.8384 93.5649 18.2786 94.258C17.7348 94.938 17.3867 96 17.2343 97.444C16.9263 100.361 17.684 101.916 19.5072 102.108C20.2073 102.182 20.8069 102.091 21.3059 101.834C21.8211 101.564 22.3283 101.16 22.8275 100.623L23.4526 101.198C22.9603 101.809 22.3702 102.3 21.6822 102.67C20.9943 103.04 20.0888 103.165 18.9657 103.047ZM31.614 96.5838C31.6856 95.8393 31.6361 95.282 31.4654 94.9119C31.2961 94.5273 30.9049 94.3055 30.2917 94.2465L30.1822 94.236L30.2454 93.579L36.1143 94.1433C37.472 94.2739 38.5233 94.6034 39.2682 95.1318C40.0276 95.6615 40.3666 96.3498 40.2852 97.1966C40.2234 97.8389 39.9327 98.3341 39.413 98.6819C38.8948 99.0152 38.1847 99.1974 37.2829 99.2285C38.2485 99.454 39.0022 99.8138 39.544 100.308C40.0873 100.787 40.3259 101.37 40.2599 102.056C40.0774 103.954 38.3657 104.748 35.1246 104.436L30.8981 104.029L31.614 96.5838ZM35.08 98.4642C35.664 98.5203 36.1678 98.4141 36.5914 98.1454C37.0311 97.8635 37.2769 97.4525 37.3288 96.9123C37.3836 96.3429 37.2352 95.894 36.8837 95.5655C36.5482 95.2238 36.1323 95.0291 35.6359 94.9814C35.2855 94.9477 34.9521 94.9672 34.6357 95.0399L34.3135 98.3905L35.08 98.4642ZM34.8147 103.522C35.5008 103.588 36.0718 103.473 36.5274 103.178C36.9845 102.869 37.2432 102.4 37.3036 101.772C37.3696 101.086 37.1931 100.546 36.7742 100.152C36.3699 99.7596 35.7736 99.5254 34.9852 99.4496L34.2188 99.3759L33.844 103.274C34.1407 103.406 34.4643 103.488 34.8147 103.522ZM43.1371 97.6753C43.2015 96.93 43.1465 96.3733 42.9722 96.0049C42.7992 95.6219 42.4059 95.4039 41.7922 95.3509L41.573 95.3319L41.6298 94.6744L44.26 94.9016C44.786 94.9471 45.1803 95.0695 45.4428 95.2688C45.7053 95.4681 45.8773 95.7774 45.9588 96.1967C46.0416 96.6013 46.0508 97.1762 45.9865 97.9215L45.5793 102.634L50.1779 95.4129L52.8081 95.6402L51.9181 105.942L49.0687 105.696L49.722 98.1338L45.1234 105.355L42.4932 105.128L43.1371 97.6753ZM57.8695 97.0472L57.2116 96.9945C56.5245 96.9394 55.9908 97.0805 55.6107 97.4179C55.2305 97.7552 55.0081 98.3259 54.9436 99.13L54.2858 99.0772L54.4089 97.5422C54.5027 96.3726 55.0978 95.8318 56.1943 95.9197L64.1109 96.5546L64.0317 97.5414L60.7204 97.2759L59.9729 106.596L57.1221 106.367L57.8695 97.0472ZM67.8265 107.423C66.6418 107.334 65.74 107.002 65.1212 106.426C64.5181 105.837 64.2504 105.089 64.3182 104.182C64.3728 103.451 64.5864 102.856 64.9588 102.399C65.3459 101.942 65.9802 101.622 66.8617 101.438C67.7432 101.254 68.9518 101.219 70.4875 101.334L70.8166 101.358C70.9117 100.086 70.8034 99.1734 70.4917 98.6207C70.1811 98.0533 69.6821 97.7439 68.9947 97.6925C68.4243 97.6499 67.9459 97.7539 67.5595 98.0045C67.1731 98.255 66.871 98.7546 66.6533 99.5031L65.4467 99.413C65.4838 98.9157 65.5448 98.4937 65.6295 98.1471C65.7288 97.8015 65.9054 97.5058 66.159 97.2601C66.6507 96.782 67.7668 96.608 69.5072 96.7381C70.9698 96.8473 72.0524 97.318 72.7551 98.15C73.4734 98.9684 73.7752 100.146 73.6605 101.681L73.2179 107.605L71.3531 107.465L70.659 106.421L70.5493 106.413C70.4024 106.608 70.1823 106.797 69.8891 106.981C69.3623 107.339 68.6748 107.486 67.8265 107.423ZM68.5666 106.375C68.8738 106.398 69.1414 106.359 69.3695 106.258C69.5988 106.143 69.8239 105.983 70.0451 105.779C70.2505 105.589 70.4148 105.358 70.538 105.088L70.7429 102.346L70.4138 102.321C69.3753 102.244 68.6079 102.377 68.1115 102.723C67.6161 103.053 67.3389 103.614 67.2799 104.403C67.2351 105.003 67.325 105.473 67.5496 105.813C67.7742 106.154 68.1132 106.341 68.5666 106.375ZM88.9015 109.195C87.3355 109.092 86.2239 108.674 85.5665 107.94C84.91 107.191 84.6298 106.085 84.7257 104.622L84.9761 100.802L81.3198 108.146L80.5954 108.099L77.2851 100.077L76.777 107.827L75.6794 107.755L76.3544 97.4587L79.0326 97.6343L81.8484 104.455L85.1499 97.8148L88.0257 98.0034L87.5796 104.809C87.498 106.053 87.5556 106.968 87.7524 107.554C87.9491 108.14 88.3442 108.504 88.9375 108.646L88.9015 109.195ZM91.1569 101.284C91.2009 100.537 91.1308 99.9822 90.9466 99.6187C90.7632 99.2406 90.364 99.0334 89.7491 98.9971L89.5295 98.9842L89.5683 98.3253L92.2038 98.4807C92.7308 98.5118 93.1283 98.6234 93.3961 98.8155C93.6639 99.0076 93.8443 99.3121 93.9373 99.729C94.0311 100.131 94.056 100.706 94.0119 101.452L93.7335 106.174L98.1334 98.8304L100.769 98.9859L100.16 109.308L97.3051 109.14L97.7519 101.563L93.352 108.906L90.7166 108.751L91.1569 101.284ZM103.606 102.005C103.644 101.258 103.57 100.704 103.383 100.342C103.197 99.965 102.796 99.7608 102.181 99.7291L101.961 99.7178L101.995 99.0586L104.632 99.1945C105.159 99.2217 105.557 99.3304 105.827 99.5205C106.096 99.7106 106.279 100.014 106.375 100.43C106.471 100.831 106.5 101.406 106.462 102.153L106.371 103.91L109.887 104.092L110.125 99.4777L112.981 99.6249L112.596 107.095C112.557 107.842 112.631 108.404 112.817 108.781C113.004 109.143 113.405 109.34 114.02 109.371L114.24 109.383L114.206 110.042L111.57 109.906C111.042 109.879 110.644 109.777 110.374 109.602C110.104 109.412 109.921 109.116 109.825 108.714C109.729 108.298 109.7 107.709 109.739 106.948L109.836 105.08L106.32 104.899L106.077 109.623L103.221 109.476L103.606 102.005ZM118.551 110.448C117.365 110.397 116.453 110.094 115.816 109.538C115.194 108.968 114.903 108.229 114.942 107.321C114.973 106.588 115.167 105.987 115.525 105.518C115.898 105.049 116.521 104.709 117.396 104.497C118.272 104.285 119.479 104.211 121.017 104.277L121.347 104.291C121.401 103.016 121.264 102.108 120.935 101.565C120.606 101.008 120.098 100.715 119.409 100.685C118.838 100.661 118.363 100.78 117.984 101.043C117.606 101.306 117.32 101.814 117.127 102.57L115.918 102.518C115.939 102.02 115.986 101.596 116.06 101.247C116.148 100.898 116.315 100.597 116.561 100.343C117.037 99.8499 118.147 99.6404 119.891 99.715C121.356 99.7776 122.453 100.214 123.182 101.023C123.926 101.818 124.265 102.985 124.2 104.523L123.946 110.458L122.078 110.378L121.351 109.356L121.241 109.351C121.1 109.551 120.886 109.747 120.599 109.941C120.084 110.315 119.401 110.484 118.551 110.448ZM119.258 109.377C119.566 109.39 119.832 109.343 120.057 109.235C120.282 109.112 120.502 108.945 120.717 108.734C120.916 108.537 121.073 108.302 121.187 108.028L121.305 105.28L120.975 105.266C119.934 105.222 119.172 105.38 118.687 105.741C118.202 106.087 117.943 106.656 117.909 107.447C117.883 108.048 117.988 108.515 118.223 108.848C118.459 109.181 118.804 109.357 119.258 109.377ZM139.668 111.605C138.1 111.546 136.977 111.159 136.299 110.444C135.622 109.714 135.311 108.616 135.366 107.15L135.51 103.325L132.06 110.769L131.334 110.742L127.802 102.815L127.51 110.576L126.411 110.534L126.798 100.224L129.48 100.325L132.485 107.064L135.6 100.334L138.48 100.443L138.224 107.258C138.177 108.504 138.26 109.417 138.473 109.997C138.686 110.578 139.091 110.93 139.688 111.056L139.668 111.605ZM141.684 103.63C141.705 102.882 141.618 102.33 141.423 101.972C141.228 101.599 140.823 101.404 140.207 101.387L139.987 101.381L140.006 100.721L142.645 100.796C143.173 100.811 143.573 100.911 143.847 101.095C144.12 101.279 144.31 101.577 144.415 101.991C144.521 102.391 144.564 102.964 144.542 103.712L144.407 108.44L148.582 100.966L151.221 101.041L150.926 111.377L148.067 111.295L148.284 103.709L144.109 111.182L141.47 111.107L141.684 103.63ZM159.617 104.11C159.63 103.362 159.537 102.81 159.337 102.455C159.138 102.085 158.731 101.894 158.115 101.884L157.895 101.88L157.906 101.22L160.546 101.265C161.074 101.274 161.476 101.369 161.751 101.55C162.027 101.731 162.22 102.028 162.33 102.44C162.44 102.838 162.489 103.411 162.477 104.159L162.395 108.888L166.485 101.367L169.125 101.412L168.947 111.751L166.088 111.702L166.218 104.113L162.128 111.634L159.489 111.589L159.617 104.11ZM182.086 112.128C180.356 112 179.011 111.449 178.049 110.474C177.087 109.486 176.611 108.228 176.621 106.703C176.631 105.178 177.123 103.934 178.097 102.973C179.071 101.996 180.424 101.455 182.155 101.349L182.163 100.249C182.167 99.5006 182.068 98.95 181.865 98.5967C181.662 98.2287 181.253 98.0427 180.637 98.0388L180.417 98.0374L180.421 97.3774L183.061 97.3943C183.589 97.3977 183.992 97.4883 184.269 97.6661C184.547 97.8439 184.743 98.1385 184.857 98.5499C184.972 98.9466 185.027 99.519 185.022 100.267L185.015 101.367C186.745 101.495 188.091 102.054 189.053 103.043C190.014 104.017 190.49 105.267 190.481 106.792C190.471 108.317 189.979 109.568 189.005 110.545C188.03 111.507 186.678 112.041 184.946 112.147L184.921 116.107L182.061 116.088L182.086 112.128ZM182.261 102.119C181.526 102.247 180.9 102.712 180.382 103.515C179.863 104.304 179.6 105.373 179.591 106.722C179.582 108.072 179.832 109.151 180.34 109.961C180.848 110.756 181.469 111.222 182.201 111.359L182.261 102.119ZM184.841 111.376C185.575 111.249 186.202 110.791 186.72 110.002C187.239 109.199 187.502 108.122 187.511 106.773C187.519 105.424 187.27 104.351 186.761 103.556C186.253 102.746 185.633 102.273 184.9 102.136L184.841 111.376ZM193.021 104.487C193.021 103.739 192.918 103.189 192.713 102.837C192.522 102.47 192.119 102.287 191.503 102.287L191.283 102.287L191.282 101.627L193.46 101.627C193.974 101.626 194.37 101.7 194.648 101.846C194.927 101.978 195.147 102.213 195.309 102.55C196.174 101.787 197.171 101.405 198.3 101.405C199.782 101.405 200.919 101.91 201.711 102.922C202.518 103.919 202.922 105.21 202.922 106.794C202.923 108.378 202.512 109.676 201.691 110.688C200.885 111.686 199.719 112.185 198.194 112.185C197.592 112.185 197.028 112.075 196.5 111.856C196.265 111.768 196.06 111.658 195.884 111.526L195.885 116.146L193.025 116.147L193.021 104.487ZM197.753 111.195C199.22 111.195 199.953 109.728 199.952 106.794C199.952 105.445 199.783 104.375 199.445 103.583C199.107 102.791 198.579 102.395 197.861 102.395C197.039 102.395 196.328 102.696 195.727 103.298L195.793 103.606C195.852 103.782 195.881 104.031 195.881 104.354L195.883 110.536C196.045 110.668 196.221 110.778 196.411 110.866C196.822 111.085 197.269 111.195 197.753 111.195ZM205.468 115.582C206.275 115.577 206.927 115.419 207.424 115.109C207.921 114.798 208.321 114.238 208.624 113.43L209.079 112.239L205.07 103.594C204.58 102.541 203.895 101.958 203.014 101.846L203.012 101.406L204.947 101.395C205.593 101.391 206.166 101.549 206.666 101.869C207.167 102.174 207.55 102.597 207.817 103.138L210.379 108.668L213.023 101.568L214.189 101.562L209.812 113.357C209.408 114.503 208.935 115.283 208.395 115.697C207.855 116.125 207.174 116.342 206.353 116.347L205.473 116.352L205.468 115.582ZM224.607 111.975C223.962 111.984 223.366 111.861 222.82 111.604C222.288 111.333 221.782 110.886 221.304 110.262L219.152 107.521L219.215 111.833L216.355 111.874L216.246 104.395C216.235 103.647 216.125 103.099 215.914 102.75C215.704 102.386 215.29 102.209 214.675 102.218L214.455 102.221L214.445 101.561L217.085 101.523C217.613 101.515 218.017 101.597 218.298 101.769C218.58 101.941 218.782 102.231 218.905 102.64C219.028 103.035 219.095 103.606 219.106 104.354L219.136 106.443L221.751 103.149C222.241 102.541 222.704 102.101 223.14 101.831C223.576 101.56 224.161 101.42 224.894 101.409L225.334 101.403L225.342 101.975C224.902 101.981 224.507 102.075 224.158 102.256C223.809 102.437 223.475 102.721 223.158 103.107L221.062 105.733L224.044 109.562C224.762 110.505 225.452 111.053 226.114 111.205L226.122 111.733C226.005 111.793 225.793 111.847 225.486 111.896C225.179 111.944 224.886 111.97 224.607 111.975ZM229.886 102.317L229.226 102.328C228.537 102.34 228.019 102.532 227.674 102.905C227.328 103.277 227.162 103.867 227.176 104.673L226.516 104.685L226.49 103.145C226.47 101.972 227.009 101.376 228.109 101.357L236.05 101.221L236.067 102.211L232.746 102.268L232.906 111.616L230.046 111.665L229.886 102.317ZM242.196 111.615C241.126 111.644 240.181 111.435 239.362 110.988C238.557 110.526 237.931 109.898 237.483 109.103C237.036 108.294 236.798 107.383 236.77 106.371C236.743 105.36 236.93 104.445 237.333 103.627C237.736 102.794 238.327 102.133 239.106 101.642C239.899 101.136 240.831 100.868 241.901 100.839C242.971 100.81 243.909 101.026 244.714 101.488C245.533 101.935 246.166 102.564 246.614 103.373C247.061 104.168 247.299 105.071 247.326 106.083C247.354 107.094 247.167 108.016 246.764 108.849C246.361 109.667 245.763 110.329 244.969 110.835C244.191 111.326 243.266 111.586 242.196 111.615ZM242.169 110.625C242.916 110.605 243.477 110.186 243.851 109.369C244.225 108.552 244.394 107.483 244.357 106.164C244.321 104.844 244.094 103.787 243.676 102.991C243.258 102.196 242.676 101.808 241.928 101.829C241.18 101.849 240.619 102.268 240.246 103.085C239.872 103.902 239.703 104.971 239.739 106.29C239.775 107.61 240.002 108.667 240.42 109.463C240.838 110.258 241.421 110.646 242.169 110.625ZM249.65 103.702C249.627 102.955 249.507 102.408 249.291 102.063C249.074 101.702 248.658 101.532 248.043 101.551L247.933 101.554L247.912 100.895L253.805 100.712C255.169 100.67 256.253 100.864 257.059 101.294C257.879 101.723 258.303 102.363 258.329 103.214C258.349 103.859 258.123 104.387 257.652 104.797C257.18 105.193 256.498 105.464 255.608 105.609C256.594 105.71 257.387 105.972 257.987 106.394C258.587 106.801 258.897 107.349 258.918 108.038C258.977 109.943 257.38 110.947 254.125 111.047L249.881 111.179L249.65 103.702ZM253.326 105.129C253.912 105.111 254.398 104.942 254.785 104.622C255.185 104.287 255.377 103.848 255.36 103.305C255.343 102.734 255.139 102.307 254.748 102.026C254.372 101.729 253.935 101.589 253.437 101.604C253.085 101.615 252.757 101.677 252.452 101.789L252.556 105.153L253.326 105.129ZM253.702 110.18C254.391 110.159 254.943 109.973 255.358 109.623C255.772 109.258 255.969 108.76 255.95 108.13C255.929 107.441 255.685 106.927 255.22 106.589C254.769 106.251 254.148 106.094 253.356 106.119L252.587 106.143L252.708 110.057C253.019 110.15 253.35 110.191 253.702 110.18ZM261.223 103.329C261.193 102.581 261.068 102.036 260.849 101.692C260.629 101.334 260.211 101.167 259.596 101.192L259.376 101.201L259.35 100.541L261.988 100.436C262.515 100.415 262.922 100.486 263.207 100.651C263.493 100.816 263.702 101.101 263.836 101.507C263.969 101.898 264.051 102.467 264.08 103.214L264.133 104.533L265.562 104.476C266.954 104.42 268.064 104.647 268.892 105.157C269.719 105.653 270.152 106.391 270.192 107.373C270.231 108.355 269.859 109.133 269.074 109.708C268.289 110.267 267.201 110.575 265.809 110.631L261.522 110.803L261.223 103.329ZM273.393 110.327C272.865 110.348 272.459 110.284 272.174 110.134C271.888 109.969 271.679 109.691 271.546 109.3C271.412 108.895 271.33 108.311 271.3 107.549L271 100.075L273.858 99.9604L274.157 107.434C274.187 108.182 274.312 108.735 274.532 109.093C274.751 109.436 275.169 109.596 275.784 109.571L276.004 109.562L276.03 110.222L273.393 110.327ZM265.334 109.769C265.891 109.747 266.353 109.56 266.72 109.207C267.087 108.84 267.255 108.269 267.224 107.492C267.193 106.715 266.98 106.166 266.586 105.844C266.191 105.508 265.715 105.351 265.158 105.373C264.806 105.387 264.478 105.451 264.175 105.566L264.338 109.655C264.65 109.745 264.982 109.783 265.334 109.769ZM290.632 110.034C289.064 110.113 287.912 109.826 287.174 109.173C286.435 108.506 286.029 107.44 285.955 105.975L285.761 102.152L282.98 109.87L282.255 109.907L278.038 102.322L278.43 110.078L277.332 110.134L276.811 99.8288L279.491 99.6933L283.078 106.142L285.588 99.1647L288.467 99.0191L288.811 105.83C288.874 107.075 289.037 107.978 289.3 108.537C289.564 109.097 289.998 109.412 290.604 109.485L290.632 110.034ZM291.956 101.915C291.913 101.168 291.779 100.625 291.554 100.285C291.328 99.9312 290.907 99.7716 290.292 99.8068L290.073 99.8194L290.035 99.1605L292.671 99.0096C293.198 98.9794 293.606 99.0442 293.894 99.204C294.182 99.3637 294.397 99.6453 294.537 100.049C294.677 100.437 294.768 101.005 294.811 101.752L295.081 106.474L298.601 98.67L301.237 98.5191L301.828 108.842L298.972 109.006L298.539 101.428L295.019 109.232L292.383 109.383L291.956 101.915ZM314.715 108.238C313.588 108.313 312.614 108.135 311.791 107.704C310.969 107.274 310.326 106.669 309.863 105.892C309.414 105.098 309.156 104.204 309.09 103.209C309.024 102.214 309.162 101.301 309.504 100.47C309.859 99.6229 310.416 98.9319 311.174 98.3966C311.933 97.8613 312.875 97.5563 314.002 97.4816C315.758 97.3651 316.909 97.5461 317.456 98.0243C317.721 98.2566 317.896 98.5757 317.982 98.9816C318.068 99.3875 318.143 100.081 318.208 101.061L317.55 101.105C317.43 100.187 317.098 99.5032 316.554 99.0542C316.009 98.5906 315.29 98.3884 314.397 98.4476C313.592 98.5009 312.973 98.9168 312.539 99.6952C312.12 100.458 311.958 101.564 312.054 103.013C312.248 105.939 313.259 107.342 315.089 107.221C315.791 107.174 316.366 106.982 316.814 106.644C317.276 106.29 317.707 105.805 318.107 105.191L318.821 105.651C318.44 106.337 317.942 106.922 317.328 107.403C316.713 107.885 315.842 108.163 314.715 108.238ZM325.603 107.465C324.536 107.545 323.582 107.381 322.743 106.973C321.917 106.549 321.262 105.951 320.778 105.178C320.292 104.391 320.012 103.493 319.936 102.484C319.861 101.474 320.005 100.552 320.369 99.7156C320.732 98.8648 321.291 98.176 322.046 97.6489C322.814 97.1062 323.732 96.7949 324.8 96.7151C325.868 96.6353 326.815 96.8073 327.641 97.2309C328.48 97.6389 329.142 98.2365 329.628 99.0239C330.112 99.7966 330.392 100.688 330.467 101.697C330.543 102.706 330.399 103.636 330.036 104.487C329.672 105.323 329.106 106.012 328.337 106.555C327.582 107.082 326.671 107.385 325.603 107.465ZM325.53 106.478C326.276 106.422 326.816 105.977 327.151 105.143C327.485 104.309 327.604 103.234 327.505 101.918C327.407 100.602 327.13 99.5561 326.675 98.7811C326.22 98.0062 325.62 97.6466 324.874 97.7024C324.128 97.7581 323.588 98.2029 323.253 99.0369C322.918 99.8708 322.8 100.946 322.898 102.262C322.997 103.579 323.273 104.624 323.728 105.399C324.183 106.174 324.784 106.534 325.53 106.478ZM341.609 106.197C340.966 106.249 340.363 106.166 339.801 105.948C339.252 105.713 338.718 105.301 338.198 104.71L335.867 102.12L336.219 106.418L333.369 106.652L332.758 99.1967C332.696 98.4512 332.549 97.9115 332.316 97.5774C332.081 97.2288 331.657 97.0796 331.043 97.13L330.824 97.1479L330.77 96.4902L333.401 96.2744C333.927 96.2312 334.336 96.286 334.628 96.4386C334.921 96.5912 335.142 96.8674 335.292 97.2671C335.442 97.6522 335.547 98.2175 335.608 98.963L335.779 101.046L338.166 97.5833C338.614 96.9432 339.046 96.4736 339.463 96.1745C339.88 95.8755 340.454 95.6959 341.185 95.636L341.623 95.6L341.67 96.1701C341.231 96.2061 340.844 96.3262 340.508 96.5304C340.171 96.7345 339.858 97.0398 339.567 97.4463L337.653 100.208L340.885 103.828C341.665 104.72 342.39 105.22 343.061 105.327L343.104 105.853C342.992 105.921 342.784 105.99 342.481 106.059C342.178 106.128 341.887 106.174 341.609 106.197ZM347.516 105.693C346.332 105.795 345.389 105.612 344.686 105.143C343.996 104.658 343.612 103.962 343.534 103.056C343.471 102.325 343.587 101.705 343.881 101.193C344.19 100.681 344.765 100.263 345.606 99.9402C346.446 99.6173 347.634 99.3896 349.168 99.257L349.497 99.2286C349.387 97.9573 349.134 97.0738 348.738 96.5781C348.34 96.0677 347.798 95.8422 347.111 95.9016C346.542 95.9508 346.086 96.13 345.745 96.4392C345.403 96.7484 345.185 97.2899 345.09 98.0636L343.885 98.1677C343.842 97.6709 343.834 97.2446 343.862 96.8889C343.905 96.5319 344.032 96.2118 344.243 95.9286C344.652 95.378 345.726 95.0276 347.465 94.8774C348.926 94.7511 350.07 95.0424 350.897 95.7512C351.737 96.4441 352.223 97.5577 352.356 99.092L352.867 105.01L351.004 105.171L350.151 104.251L350.042 104.26C349.928 104.476 349.741 104.699 349.481 104.927C349.018 105.365 348.363 105.62 347.516 105.693ZM348.079 104.54C348.386 104.514 348.644 104.433 348.853 104.297C349.06 104.146 349.257 103.953 349.443 103.716C349.615 103.495 349.74 103.241 349.819 102.955L349.582 100.215L349.253 100.243C348.216 100.333 347.48 100.588 347.045 101.008C346.609 101.414 346.425 102.011 346.493 102.8C346.545 103.4 346.709 103.849 346.985 104.149C347.261 104.449 347.626 104.58 348.079 104.54ZM368.601 104.045C367.039 104.197 365.875 103.964 365.107 103.346C364.338 102.714 363.883 101.667 363.741 100.208L363.371 96.3976L360.95 104.237L360.227 104.307L355.664 96.9257L356.415 104.655L355.32 104.762L354.322 94.4921L356.993 94.2324L360.875 100.508L363.06 93.4217L365.928 93.1429L366.588 99.9309C366.708 101.172 366.913 102.065 367.202 102.612C367.491 103.159 367.94 103.454 368.548 103.498L368.601 104.045ZM369.542 95.8735C369.465 95.1295 369.305 94.5932 369.064 94.2645C368.822 93.9212 368.395 93.7816 367.782 93.8457L367.563 93.8685L367.494 93.2121L370.12 92.9374C370.645 92.8825 371.056 92.928 371.351 93.0741C371.646 93.2201 371.874 93.4913 372.033 93.8875C372.191 94.2692 372.309 94.8319 372.387 95.5759L372.879 100.28L376.028 92.3194L378.654 92.0447L379.729 102.329L376.885 102.626L376.095 95.0773L372.946 103.038L370.321 103.313L369.542 95.8735Z" fill="#FF7145"/>
<path d="M82.7857 71.5745C82.8328 70.828 82.765 70.2726 82.5823 69.9084C82.4004 69.5295 82.0021 69.3207 81.3873 69.2819L81.1678 69.268L81.2093 68.6093L83.8441 68.7756C84.3711 68.8088 84.768 68.9221 85.0351 69.1153C85.3021 69.3085 85.4812 69.6137 85.5725 70.0309C85.6646 70.4335 85.6872 71.0081 85.6401 71.7546L85.4115 75.3774L91.3397 75.7515L91.7484 69.2743L94.6027 69.4545L93.8684 81.0913C93.8213 81.8378 93.8887 82.4005 94.0705 82.7794C94.2532 83.1436 94.652 83.3451 95.2668 83.3839L95.4864 83.3978L95.4448 84.0565L92.81 83.8902C92.2831 83.857 91.8856 83.7511 91.6177 83.5725C91.3506 83.3793 91.171 83.0814 91.0789 82.6788C90.9876 82.2616 90.966 81.6724 91.0141 80.9112L91.2773 76.7395L85.3491 76.3654L84.9058 83.3914L82.0514 83.2113L82.7857 71.5745ZM101.429 84.5955C100.419 84.5419 99.5449 84.2606 98.8082 83.7515C98.0715 83.2424 97.5121 82.5739 97.1301 81.7458C96.7635 80.9039 96.6074 79.9703 96.6618 78.9451C96.7224 77.8027 96.9791 76.8396 97.4319 76.0558C97.8994 75.2728 98.5101 74.6957 99.2642 74.3244C100.019 73.9385 100.858 73.7701 101.78 73.819C102.689 73.8672 103.499 74.0938 104.212 74.4988C104.925 74.9037 105.476 75.4544 105.865 76.1506C106.254 76.8322 106.426 77.6051 106.381 78.4692C106.366 78.7475 106.335 79.0616 106.287 79.4115L106.219 79.8486L99.6066 79.4978C99.5328 80.8892 99.6912 81.9184 100.082 82.5853C100.473 83.2376 101.05 83.584 101.811 83.6244C102.514 83.6617 103.108 83.539 103.593 83.2563C104.094 82.9597 104.579 82.5301 105.049 81.9676L105.704 82.509C105.244 83.1456 104.68 83.6664 104.013 84.0716C103.359 84.4776 102.498 84.6522 101.429 84.5955ZM103.394 78.7073C103.467 77.3306 103.357 76.3481 103.065 75.7598C102.774 75.1569 102.329 74.8395 101.728 74.8076C101.171 74.7781 100.702 75.0543 100.318 75.6361C99.9503 76.2041 99.7305 77.1618 99.6591 78.5092L103.394 78.7073ZM108.764 77.2713C108.802 76.5243 108.728 75.9698 108.541 75.6077C108.355 75.2309 107.954 75.0267 107.339 74.995L107.229 74.9893L107.263 74.3302L114.843 74.7209C115.941 74.7775 116.461 75.3917 116.4 76.5635L116.321 78.1015L115.662 78.0675C115.703 77.2619 115.558 76.667 115.225 76.2827C114.892 75.8984 114.382 75.6885 113.693 75.653L111.716 75.551L111.235 84.8886L108.378 84.7414L108.764 77.2713ZM120.43 85.5357C119.243 85.4873 118.33 85.1859 117.692 84.6315C117.07 84.063 116.777 83.3245 116.814 82.4159C116.844 81.6832 117.037 81.0819 117.394 80.612C117.765 80.1427 118.388 79.8012 119.263 79.5873C120.138 79.3734 121.345 79.2978 122.883 79.3605L123.213 79.3739C123.265 78.099 123.126 77.1906 122.796 76.6487C122.466 76.0921 121.957 75.7998 121.268 75.7717C120.697 75.7485 120.222 75.8686 119.844 76.1321C119.467 76.3956 119.182 76.9051 118.989 77.6605L117.78 77.6113C117.801 77.113 117.847 76.6892 117.92 76.3399C118.008 75.9912 118.174 75.6897 118.419 75.4355C118.895 74.9411 120.004 74.7294 121.748 74.8005C123.214 74.8602 124.311 75.2939 125.042 76.1017C125.787 76.8954 126.129 78.0616 126.066 79.6003L125.824 85.5354L123.956 85.4592L123.227 84.4387L123.117 84.4342C122.977 84.634 122.763 84.8308 122.476 85.0246C121.962 85.4 121.28 85.5704 120.43 85.5357ZM121.134 84.4635C121.442 84.476 121.708 84.4282 121.933 84.3199C122.158 84.197 122.377 84.0298 122.592 83.8183C122.79 83.6209 122.947 83.3851 123.061 83.1108L123.173 80.3631L122.843 80.3497C121.803 80.3073 121.04 80.467 120.556 80.8289C120.072 81.1762 119.814 81.7455 119.781 82.5368C119.757 83.1377 119.863 83.6044 120.099 83.9369C120.335 84.2695 120.68 84.445 121.134 84.4635ZM131.687 85.9886C129.884 85.9174 128.552 85.2776 127.69 84.0693L128.371 83.5458C129.04 84.4529 129.938 84.9287 131.067 84.9733C131.77 85.0011 132.333 84.8619 132.756 84.5557C133.194 84.25 133.426 83.7601 133.453 83.086C133.481 82.3679 133.304 81.8325 132.922 81.4798C132.554 81.1277 131.879 80.9322 130.898 80.8934L129.798 80.85L129.837 79.8608L130.937 79.9042C131.801 79.9384 132.408 79.8229 132.756 79.5577C133.104 79.2779 133.292 78.801 133.319 78.1268C133.343 77.5113 133.171 77.0421 132.802 76.7193C132.433 76.3819 131.971 76.2021 131.414 76.1801C130.755 76.1541 130.189 76.3592 129.716 76.7956C129.245 77.2173 128.973 77.7864 128.9 78.5027L128.241 78.4767C128.271 77.7146 128.323 77.1515 128.396 76.7875C128.469 76.4088 128.636 76.0997 128.895 75.8604C129.169 75.6071 129.579 75.4325 130.126 75.3367C130.674 75.2262 131.299 75.1848 132.003 75.2126C133.366 75.2665 134.426 75.5505 135.183 76.0648C135.956 76.5651 136.324 77.2915 136.286 78.2441C136.261 78.8889 135.998 79.4143 135.497 79.8202C135.012 80.2266 134.364 80.4726 133.553 80.558C134.457 80.7111 135.164 81.0253 135.673 81.5004C136.198 81.9761 136.447 82.5437 136.421 83.2032C136.381 84.2144 135.948 84.9459 135.123 85.3977C134.298 85.8495 133.153 86.0465 131.687 85.9886ZM139.032 78.5541C139.053 77.8064 138.966 77.2537 138.771 76.896C138.576 76.5236 138.171 76.3286 137.555 76.3111L137.335 76.3048L137.354 75.645L139.993 75.7204C140.521 75.7355 140.921 75.835 141.195 76.0189C141.468 76.2028 141.658 76.5017 141.764 76.9155C141.869 77.3147 141.912 77.8881 141.89 78.6358L141.755 83.3639L145.93 75.8901L148.569 75.9655L148.274 86.3013L145.415 86.2196L145.632 78.6327L141.457 86.1065L138.818 86.0311L139.032 78.5541ZM151.537 78.9028C151.554 78.155 151.465 77.6027 151.268 77.246C151.086 76.8749 150.687 76.6821 150.071 76.6676L149.851 76.6624L149.866 76.0026L152.044 76.0539C152.557 76.066 152.951 76.1486 153.226 76.3018C153.502 76.4403 153.716 76.6801 153.87 77.0212C154.753 76.2791 155.759 75.9214 156.888 75.9479C158.369 75.9828 159.493 76.5155 160.261 77.5458C161.044 78.5619 161.417 79.8617 161.379 81.4452C161.342 83.0288 160.901 84.3168 160.056 85.3092C159.226 86.2872 158.049 86.7583 156.524 86.7224C155.923 86.7082 155.361 86.5849 154.838 86.3526C154.606 86.2591 154.403 86.1443 154.23 86.0082L154.121 90.6269L151.262 90.5595L151.537 78.9028ZM156.107 85.7223C157.574 85.7568 158.341 84.3078 158.41 81.3753C158.442 80.0263 158.299 78.952 157.98 78.1523C157.661 77.3526 157.143 76.9442 156.424 76.9273C155.603 76.908 154.885 77.1918 154.27 77.7788L154.329 78.0883C154.383 78.2656 154.407 78.5156 154.399 78.8381L154.253 85.0184C154.412 85.1542 154.585 85.2683 154.773 85.3608C155.179 85.5904 155.623 85.7109 156.107 85.7223ZM168.147 86.9572C167.077 86.9388 166.142 86.6881 165.344 86.205C164.56 85.7075 163.962 85.0519 163.551 84.238C163.14 83.4095 162.943 82.4894 162.96 81.4775C162.978 80.4657 163.206 79.5601 163.645 78.7608C164.084 77.9469 164.704 77.3121 165.504 76.8564C166.319 76.3863 167.261 76.1604 168.332 76.1788C169.402 76.1971 170.329 76.455 171.113 76.9525C171.911 77.4356 172.516 78.0914 172.928 78.9199C173.339 79.7337 173.536 80.6466 173.519 81.6584C173.501 82.6703 173.273 83.5832 172.834 84.3971C172.395 85.1964 171.768 85.831 170.953 86.3012C170.153 86.7569 169.218 86.9755 168.147 86.9572ZM168.164 85.9673C168.912 85.9801 169.491 85.5867 169.901 84.7869C170.31 83.9871 170.527 82.9274 170.549 81.6076C170.572 80.2877 170.392 79.2212 170.01 78.4078C169.628 77.5945 169.063 77.1814 168.315 77.1686C167.567 77.1558 166.988 77.5493 166.578 78.349C166.169 79.1488 165.952 80.2086 165.93 81.5284C165.907 82.8482 166.087 83.9148 166.469 84.7281C166.851 85.5414 167.416 85.9545 168.164 85.9673ZM175.906 79.3748C175.912 78.6268 175.814 78.076 175.612 77.7223C175.409 77.354 175 77.1673 174.384 77.1622L174.274 77.1613L174.28 76.5014L180.175 76.5497C181.539 76.5609 182.615 76.7971 183.404 77.2582C184.207 77.7195 184.604 78.3755 184.598 79.2261C184.592 79.8714 184.346 80.3901 183.859 80.7821C183.372 81.1594 182.68 81.4031 181.785 81.5131C182.766 81.6532 183.548 81.9456 184.132 82.3904C184.715 82.8205 185.003 83.3802 184.998 84.0696C184.982 85.9762 183.346 86.9161 180.09 86.8894L175.845 86.8545L175.906 79.3748ZM179.523 80.9445C180.11 80.9493 180.602 80.7994 181.001 80.4946C181.414 80.1754 181.623 79.7444 181.628 79.2017C181.632 78.6298 181.445 78.1955 181.066 77.8991C180.702 77.5881 180.271 77.4305 179.772 77.4265C179.42 77.4236 179.09 77.4722 178.781 77.5723L178.753 80.9382L179.523 80.9445ZM179.702 86.0062C180.391 86.0118 180.95 85.8477 181.378 85.5139C181.806 85.1654 182.023 84.6758 182.028 84.0452C182.034 83.3559 181.81 82.8334 181.359 82.4776C180.922 82.122 180.307 81.941 179.515 81.9345L178.745 81.9282L178.713 85.844C179.02 85.9492 179.35 86.0033 179.702 86.0062ZM190.13 87.1808C188.942 87.174 188.02 86.9048 187.363 86.373C186.72 85.8267 186.402 85.0989 186.407 84.1895C186.411 83.4562 186.583 82.8485 186.923 82.3665C187.278 81.8845 187.889 81.5213 188.756 81.2769C189.622 81.0325 190.826 80.9147 192.366 80.9235L192.696 80.9254C192.703 79.6494 192.532 78.7464 192.183 78.2164C191.834 77.6717 191.315 77.3974 190.626 77.3935C190.054 77.3902 189.584 77.5269 189.215 77.8035C188.847 78.08 188.58 78.5992 188.415 79.3609L187.205 79.354C187.207 78.8553 187.239 78.4302 187.3 78.0785C187.375 77.727 187.531 77.4198 187.767 77.1572C188.225 76.6465 189.326 76.3961 191.071 76.406C192.538 76.4144 193.651 76.8094 194.409 77.5911C195.182 78.3582 195.564 79.5117 195.555 81.0517L195.521 86.9916L193.651 86.9809L192.887 85.9865L192.777 85.9859C192.644 86.1905 192.437 86.3946 192.157 86.5984C191.656 86.9915 190.981 87.1857 190.13 87.1808ZM190.796 86.0846C191.104 86.0864 191.369 86.0292 191.589 85.9131C191.81 85.7824 192.024 85.6076 192.23 85.3888C192.422 85.1845 192.57 84.9434 192.674 84.6653L192.69 81.9153L192.36 81.9135C191.319 81.9075 190.562 82.0939 190.091 82.4725C189.619 82.8365 189.381 83.4145 189.377 84.2065C189.373 84.8078 189.496 85.2705 189.743 85.5946C189.991 85.9187 190.342 86.082 190.796 86.0846ZM198.38 79.5123C198.378 78.7643 198.273 78.2147 198.067 77.8633C197.86 77.4974 197.449 77.3154 196.833 77.3175L196.613 77.3182L196.61 76.6582L199.25 76.6494C199.778 76.6476 200.182 76.7342 200.461 76.9093C200.741 77.0843 200.94 77.377 201.058 77.7873C201.177 78.1829 201.238 78.7547 201.24 79.5027L201.246 81.2627L204.766 81.2508L204.75 76.6309L207.61 76.6212L207.636 84.1012C207.638 84.8492 207.743 85.4062 207.949 85.7721C208.156 86.1235 208.567 86.2981 209.183 86.296L209.403 86.2953L209.405 86.9553L206.765 86.9641C206.237 86.9659 205.834 86.8866 205.554 86.7262C205.275 86.5511 205.076 86.2658 204.957 85.8702C204.839 85.4599 204.778 84.8735 204.776 84.1108L204.769 82.2408L201.249 82.2527L201.265 86.9826L198.405 86.9923L198.38 79.5123ZM211.03 79.4542C211.021 78.7063 210.912 78.1576 210.702 77.8082C210.492 77.4441 210.079 77.2659 209.463 77.2736L209.243 77.2763L209.235 76.6164L211.875 76.5835C212.403 76.5769 212.807 76.6598 213.088 76.8323C213.369 77.0048 213.57 77.2957 213.693 77.7049C213.815 78.0994 213.881 78.6706 213.89 79.4185L213.912 81.1784L217.432 81.1345L217.374 76.5148L220.234 76.4791L220.327 83.9586C220.337 84.7065 220.446 85.2625 220.656 85.6266C220.866 85.976 221.279 86.1469 221.895 86.1392L222.115 86.1364L222.123 86.7964L219.483 86.8293C218.955 86.8359 218.551 86.7603 218.27 86.6024C217.989 86.4299 217.788 86.1464 217.665 85.7519C217.543 85.3427 217.477 84.7569 217.468 83.9942L217.444 82.1244L213.924 82.1683L213.984 86.8979L211.124 86.9336L211.03 79.4542ZM223.7 79.2851C223.686 78.5372 223.573 77.9893 223.361 77.6412C223.148 77.2785 222.734 77.103 222.118 77.1146L221.898 77.1188L221.886 76.4589L224.525 76.409C225.053 76.399 225.458 76.4793 225.74 76.65C226.022 76.8207 226.226 77.1103 226.351 77.5186C226.476 77.9124 226.545 78.4831 226.559 79.231L226.584 80.5508L228.014 80.5237C229.407 80.4974 230.512 80.7478 231.329 81.2752C232.145 81.7878 232.563 82.5354 232.581 83.5179C232.6 84.5004 232.211 85.2705 231.415 85.8283C230.618 86.3715 229.524 86.6563 228.13 86.6826L223.841 86.7638L223.7 79.2851ZM235.719 86.5391C235.191 86.5491 234.786 86.476 234.505 86.32C234.223 86.1493 234.019 85.8671 233.895 85.4734C233.77 85.065 233.7 84.4796 233.685 83.717L233.544 76.2384L236.403 76.1843L236.545 83.6629C236.559 84.4108 236.672 84.9661 236.884 85.3288C237.096 85.6769 237.51 85.8451 238.126 85.8334L238.346 85.8293L238.359 86.4891L235.719 86.5391ZM227.674 85.8111C228.231 85.8006 228.697 85.623 229.072 85.2786C229.447 84.9194 229.627 84.3512 229.612 83.574C229.597 82.7969 229.396 82.2432 229.008 81.9132C228.62 81.5684 228.148 81.4013 227.591 81.4119C227.239 81.4185 226.91 81.4761 226.604 81.5846L226.681 85.6759C226.991 85.7727 227.322 85.8178 227.674 85.8111ZM239.889 78.9676C239.87 78.2198 239.754 77.6726 239.539 77.3259C239.325 76.9646 238.909 76.7918 238.294 76.8075L238.074 76.8131L238.057 76.1534L240.696 76.0861C241.224 76.0726 241.629 76.1503 241.912 76.3191C242.195 76.488 242.401 76.7761 242.529 77.1837C242.656 77.5766 242.729 78.1469 242.748 78.8946L242.869 83.6231L246.634 75.9346L249.273 75.8673L249.537 86.2039L246.678 86.2769L246.484 78.6893L242.719 86.3778L240.08 86.4451L239.889 78.9676ZM244.324 75.1132C243.621 75.1312 242.993 74.9638 242.441 74.6111C241.889 74.2437 241.465 73.7483 241.171 73.125L241.775 72.6474C242.032 72.949 242.368 73.2045 242.785 73.4139C243.215 73.6084 243.716 73.6983 244.288 73.6837C244.86 73.6691 245.348 73.554 245.754 73.3382C246.173 73.1074 246.504 72.8349 246.745 72.5207L247.373 72.9668C247.11 73.6044 246.713 74.1207 246.18 74.5157C245.647 74.8961 245.028 75.0953 244.324 75.1132ZM257.832 78.44C257.806 77.6924 257.684 77.1464 257.466 76.8019C257.248 76.4428 256.831 76.2741 256.215 76.2959L255.995 76.3037L255.972 75.6441L258.61 75.5506C259.138 75.5319 259.544 75.6055 259.829 75.7715C260.114 75.9375 260.322 76.2237 260.454 76.6299C260.585 77.0215 260.664 77.5911 260.69 78.3386L260.753 80.0975L264.271 79.9727L264.107 75.3556L266.965 75.2543L267.23 82.7296C267.257 83.4771 267.379 84.0304 267.597 84.3896C267.815 84.7341 268.231 84.8954 268.847 84.8736L269.067 84.8658L269.09 85.5254L266.452 85.619C265.924 85.6377 265.518 85.5713 265.234 85.42C264.949 85.254 264.741 84.9752 264.61 84.5836C264.478 84.1773 264.399 83.5931 264.372 82.8309L264.306 80.9621L260.788 81.0869L260.955 85.8139L258.097 85.9153L257.832 78.44ZM273.455 85.5423C272.268 85.5975 271.333 85.3768 270.649 84.88C269.979 84.3679 269.623 83.6577 269.581 82.7494C269.546 82.0168 269.687 81.401 270.001 80.9018C270.33 80.402 270.921 80.0074 271.774 79.7181C272.627 79.4288 273.822 79.2484 275.361 79.1768L275.69 79.1615C275.631 77.8869 275.413 76.994 275.037 76.483C274.66 75.9572 274.128 75.7104 273.439 75.7424C272.868 75.769 272.405 75.93 272.052 76.2254C271.699 76.5209 271.459 77.0532 271.333 77.8226L270.125 77.8788C270.102 77.3807 270.111 76.9545 270.153 76.6001C270.21 76.2451 270.35 75.9303 270.572 75.6556C271.002 75.1217 272.089 74.8142 273.833 74.7331C275.298 74.6649 276.429 75.0013 277.227 75.7424C278.039 76.4681 278.481 77.6001 278.552 79.1384L278.829 85.072L276.961 85.1589L276.145 84.2058L276.035 84.2109C275.913 84.4221 275.718 84.6368 275.449 84.8549C274.969 85.2736 274.304 85.5028 273.455 85.5423ZM274.063 84.4128C274.37 84.3985 274.631 84.3276 274.846 84.2002C275.059 84.0581 275.264 83.8724 275.458 83.6431C275.639 83.4291 275.775 83.1806 275.864 82.8974L275.736 80.1504L275.407 80.1658C274.367 80.2142 273.621 80.4397 273.17 80.8425C272.718 81.2306 272.511 81.8202 272.547 82.6113C272.575 83.212 272.721 83.6677 272.985 83.9784C273.249 84.2892 273.609 84.434 274.063 84.4128ZM281.225 77.4666C281.187 76.7195 281.057 76.1753 280.835 75.834C280.611 75.4781 280.192 75.3156 279.577 75.3464L279.467 75.3519L279.434 74.6927L290.31 74.1476L290.828 84.4747L287.971 84.6178L287.503 75.2796L283.988 75.4558L284.456 84.794L281.599 84.9372L281.225 77.4666ZM293.442 76.8409C293.399 76.0942 293.264 75.551 293.039 75.2115C292.813 74.8573 292.392 74.6981 291.777 74.7337L291.558 74.7464L291.519 74.0875L294.155 73.9348C294.682 73.9042 295.09 73.9687 295.378 74.1283C295.667 74.2879 295.881 74.5693 296.022 74.9725C296.162 75.361 296.254 75.9287 296.297 76.6754L296.571 81.3975L300.085 73.5911L302.721 73.4383L303.319 83.761L300.464 83.9265L300.025 76.3492L296.51 84.1556L293.875 84.3084L293.442 76.8409ZM307.915 74.0986L307.257 74.142C306.569 74.1873 306.062 74.4044 305.734 74.7934C305.407 75.1824 305.27 75.7793 305.323 76.5843L304.665 76.6276L304.563 75.0909C304.486 73.9201 304.997 73.2986 306.094 73.2264L314.019 72.7047L314.084 73.6926L310.769 73.9108L311.383 83.2406L308.53 83.4284L307.915 74.0986ZM320.664 82.8283C319.596 82.9025 318.643 82.7334 317.806 82.3211C316.982 81.8931 316.33 81.2914 315.85 80.5162C315.369 79.7263 315.093 78.8265 315.023 77.817C314.953 76.8074 315.102 75.8855 315.471 75.0513C315.838 74.2025 316.401 73.5166 317.158 72.9935C317.929 72.4548 318.849 72.1484 319.917 72.0742C320.985 72 321.931 72.1769 322.755 72.6049C323.592 73.0173 324.251 73.6184 324.732 74.4083C325.213 75.1835 325.488 76.076 325.558 77.0855C325.628 78.0951 325.479 79.0243 325.112 79.8731C324.743 80.7073 324.174 81.3938 323.402 81.9325C322.645 82.4555 321.732 82.7541 320.664 82.8283ZM320.595 81.8407C321.341 81.7889 321.884 81.3469 322.223 80.5147C322.563 79.6826 322.686 78.6081 322.595 77.2913C322.504 75.9744 322.232 74.9274 321.781 74.1501C321.33 73.3728 320.732 73.01 319.986 73.0618C319.24 73.1136 318.697 73.5556 318.358 74.3878C318.018 75.2199 317.895 76.2944 317.986 77.6113C318.077 78.9281 318.349 79.9752 318.8 80.7525C319.251 81.5298 319.849 81.8925 320.595 81.8407ZM336.674 81.6055C336.031 81.6573 335.428 81.5735 334.866 81.3539C334.317 81.1186 333.784 80.7054 333.265 80.1145L330.937 77.5212L331.284 81.8192L328.433 82.049L327.832 74.5932C327.772 73.8476 327.626 73.3076 327.393 72.9733C327.159 72.6243 326.734 72.4746 326.12 72.524L325.901 72.5417L325.848 71.8839L328.48 71.6717C329.006 71.6293 329.415 71.6846 329.707 71.8377C329.999 71.9907 330.22 72.2672 330.37 72.6671C330.518 73.0524 330.623 73.6178 330.683 74.3634L330.851 76.4467L333.243 72.9873C333.691 72.3479 334.124 71.8789 334.542 71.5804C334.959 71.2819 335.533 71.1032 336.264 71.0443L336.703 71.0089L336.749 71.5791C336.31 71.6144 335.923 71.7339 335.586 71.9377C335.249 72.1414 334.935 72.4462 334.644 72.8523L332.726 75.6113L335.953 79.2357C336.732 80.1294 337.456 80.6301 338.127 80.7379L338.17 81.2642C338.057 81.3321 337.85 81.4004 337.546 81.469C337.243 81.5376 336.952 81.5831 336.674 81.6055Z" fill="#FF7145"/>
</svg>
