<svg width="200" height="42" viewBox="0 0 200 42" fill="none" xmlns="http://www.w3.org/2000/svg">
    <path d="M118.798 17.3985C119.822 16.3943 120.642 15.493 121.585 14.6938C123.408 13.1568 125.56 12.3368 127.916 12.3573C131.134 12.3778 133.594 13.3827 134.967 17.2354C135.049 17.5018 135.192 17.7476 135.376 18.1369C135.622 17.8091 135.766 17.645 135.868 17.4605C137.282 15.1038 139.311 13.4853 141.934 12.7065C143.963 12.0917 146.053 12.0294 148.102 12.8286C150.09 13.5868 151.238 15.1034 151.935 17.0092C152.775 19.3044 152.816 21.702 152.836 24.0997C152.836 26.7228 152.795 29.3666 152.877 31.9896C152.918 33.2397 153.185 34.4904 153.431 35.72C153.635 36.8266 154.374 37.6052 155.337 38.1585C155.808 38.4249 156.197 38.7115 156.033 39.3263C155.869 39.9001 155.398 40.0643 154.885 40.1258C154.68 40.1462 154.496 40.1258 154.291 40.1258C151.32 40.1258 148.369 40.1258 145.397 40.1258C144.988 40.1258 144.517 40.064 144.148 39.8796C143.533 39.5722 143.512 38.8345 144.004 38.3837C144.024 38.3632 144.045 38.3431 144.086 38.3226C145.93 37.339 146.463 35.6381 146.524 33.7117C146.627 30.3919 146.73 27.0713 146.668 23.7515C146.668 22.3784 146.586 20.9649 146.074 19.6329C145.623 18.4648 145.049 17.3985 143.798 16.8862C142.036 16.1689 140.52 16.6408 139.25 17.9318C138.184 18.9974 137.487 20.3292 136.975 21.7432C136.176 23.9154 135.663 26.1292 135.745 28.4654C135.786 29.6335 135.704 30.801 135.786 31.9486C135.868 33.0962 135.991 34.2642 136.217 35.4118C136.463 36.6209 137.118 37.6253 138.266 38.2196C138.758 38.486 139.086 38.794 138.942 39.3883C138.84 39.8801 138.409 40.1668 137.692 40.1668C134.433 40.1668 131.155 40.1668 127.896 40.1668C127.569 40.1668 127.179 40.0025 126.913 39.7975C126.523 39.5311 126.503 39.0192 126.79 38.6298C126.892 38.5069 127.016 38.3836 127.159 38.3016C128.819 37.3999 129.392 35.8429 129.453 34.142C129.597 30.8221 129.659 27.5021 129.639 24.1617C129.639 22.3788 129.474 20.5754 128.675 18.9154C128.204 17.9523 127.548 17.235 126.524 16.8251C124.782 16.1284 122.916 17.0304 121.933 18.178C120.806 19.51 120.068 21.0669 119.535 22.7268C118.961 24.5507 118.613 26.395 118.695 28.3213C118.756 29.8788 118.654 31.4568 118.757 33.0143C118.839 34.0594 119.105 35.1046 119.371 36.1292C119.617 37.0719 120.315 37.7072 121.134 38.2196C121.851 38.6499 122.036 38.9575 121.872 39.4493C121.728 39.9002 121.278 40.1663 120.581 40.1868C120.253 40.1868 119.904 40.1868 119.576 40.1868C116.81 40.1868 114.044 40.1868 111.277 40.1868C110.97 40.1868 110.641 40.2487 110.395 40.1258C110.068 39.9618 109.719 39.6747 109.555 39.3673C109.35 38.9779 109.596 38.5481 109.965 38.3636C111.851 37.3595 112.322 35.5761 112.384 33.7317C112.507 29.7356 112.486 25.7603 112.384 21.7642C112.343 20.2068 111.953 18.6694 111.256 17.2554C110.826 16.3742 110.211 15.657 109.248 15.2881C109.043 15.2062 108.817 15.0834 108.653 14.9399C108.121 14.4686 108.305 13.751 108.982 13.5461C109.084 13.5256 109.187 13.505 109.269 13.505C111.339 13.1771 113.408 12.8493 115.478 12.5214C115.601 12.5009 115.744 12.4809 115.867 12.4604C117.855 12.153 118.408 13.0337 118.675 14.5707C118.777 15.165 118.715 15.7595 118.736 16.3538C118.736 16.6817 118.777 16.9892 118.798 17.4605V17.3985Z" fill="#33C2A9"/>
    <path d="M189.272 35.7195C189.027 36.0269 188.78 36.3337 188.534 36.6411C186.034 39.756 182.715 40.7808 178.862 40.3505C177.345 40.1865 175.931 39.7356 174.742 38.7314C172.754 37.0305 171.977 34.879 172.448 32.3174C173.063 29.0181 175.091 26.8453 178.144 25.6772C180.153 24.8985 182.243 24.3453 184.312 23.71C185.562 23.3206 186.731 22.8087 187.776 22.0299C190.297 20.1241 189.682 15.862 187.182 14.7964C185.83 14.2226 184.435 14.0175 183.021 14.5913C182.427 14.8372 181.895 15.2063 181.649 15.821C181.116 17.0711 180.645 18.3409 180.153 19.6114C180.009 19.9598 179.845 20.2677 179.722 20.6161C179.108 22.2145 176.956 22.9524 175.153 21.8458C173.001 20.5343 172.611 17.3982 174.394 15.5129C175.296 14.5497 176.423 13.8734 177.652 13.4636C180.849 12.3979 184.128 12.0291 187.489 12.521C189.047 12.7464 190.563 13.075 191.977 13.7718C194.006 14.7759 195.153 16.3946 195.542 18.6078C195.809 20.1038 195.851 21.5786 195.851 23.0746C195.851 25.2264 195.85 27.3989 195.912 29.5507C195.994 31.6819 196.302 33.7933 197.039 35.8016C197.449 36.9287 198.043 37.8919 199.232 38.3632C199.437 38.4452 199.642 38.6085 199.785 38.7725C200.215 39.2848 199.97 39.9203 199.314 40.0433C199.088 40.0843 198.842 40.0433 198.616 40.0433C196.854 40.1457 195.092 40.2685 193.33 40.3505C192.695 40.3914 192.059 40.4324 191.444 40.3094C190.132 40.043 189.436 39.0593 189.477 37.7068C189.497 37.051 189.538 36.4163 189.559 35.7606C189.456 35.7606 189.375 35.7195 189.272 35.7195ZM189.087 24.7557C188.903 24.7966 188.821 24.7967 188.78 24.8377C186.813 26.3747 184.539 27.297 182.182 28.0347C181.219 28.3421 180.358 28.834 179.681 29.6127C178.657 30.7603 178.391 32.5839 179.067 33.8954C179.948 35.6168 181.423 36.2933 183.063 36.1498C185.788 35.9039 187.571 34.3667 188.432 31.7641C189.108 29.6943 189.272 27.5423 189.251 25.37C189.251 25.1856 189.17 25.0016 189.108 24.7557H189.087Z" fill="#33C2A9"/>
    <path d="M96.152 35.5143C95.6397 36.1291 95.2511 36.5794 94.8823 37.0302C92.5666 39.7353 89.5535 40.6378 86.1107 40.4124C84.3074 40.2894 82.6277 39.8178 81.2547 38.5882C79.4308 36.9488 78.713 34.8791 79.1023 32.4814C79.6556 29.1001 81.7055 26.8662 84.8409 25.6571C86.8492 24.8989 88.939 24.3251 91.0088 23.6899C92.2179 23.321 93.3653 22.8081 94.3899 22.0498C96.9311 20.185 96.4392 15.9024 93.8366 14.7753C92.4841 14.181 91.0705 13.9969 89.677 14.5911C89.0827 14.8371 88.6525 15.2676 88.3041 15.8209C87.5664 16.989 87.3205 18.3407 86.8082 19.6113C86.6852 19.9187 86.5204 20.206 86.4179 20.5339C85.8441 22.2143 83.5493 22.9723 81.705 21.7837C79.6352 20.4311 79.3077 17.3781 81.0496 15.4927C81.9103 14.5705 82.9554 13.9353 84.1235 13.5255C87.3409 12.4189 90.6604 12.05 94.0417 12.5008C95.7016 12.7263 97.3207 13.074 98.8167 13.8527C100.682 14.8159 101.747 16.3733 102.157 18.4226C102.485 20.0005 102.505 21.5991 102.505 23.1976C102.505 25.1649 102.505 27.1324 102.546 29.0793C102.628 31.3335 102.916 33.5877 103.674 35.7394C104.084 36.9075 104.678 37.9118 105.907 38.3831C105.969 38.4036 106.03 38.4442 106.091 38.4852C106.481 38.7311 106.768 39.059 106.625 39.5508C106.481 40.0222 106.091 40.0842 105.661 40.0842C104.657 40.1047 103.673 40.1248 102.669 40.1862C101.644 40.2477 100.62 40.3914 99.5752 40.4324C99.0219 40.4529 98.427 40.4327 97.8941 40.2893C96.726 39.9819 96.0915 39.0598 96.112 37.8508C96.112 37.4204 96.1931 36.9893 96.1931 36.559C96.1931 36.2721 96.153 36.0057 96.112 35.5753L96.152 35.5143ZM95.6808 24.6325C93.7749 26.1899 91.6851 27.0917 89.5129 27.8295C88.7546 28.0754 87.9963 28.3622 87.3405 28.7721C85.7011 29.7967 85.0246 31.6411 85.5574 33.424C86.0287 34.9814 87.6275 36.2317 89.4308 36.1497C91.8285 36.0677 93.6935 34.9607 94.7181 32.7065C95.8248 30.2884 95.9684 27.7059 95.9069 25.1238C95.9069 25.0008 95.8042 24.8989 95.7018 24.6325H95.6808Z" fill="#33C2A9"/>
    <path d="M74.779 13.5261V15.4934C73.8158 15.6983 72.9135 15.8003 72.0733 16.0667C70.3314 16.62 69.3897 17.8905 68.9183 19.6119C68.6109 20.7595 68.5486 21.907 68.5691 23.0751C68.6101 25.5752 68.5898 28.0557 68.7332 30.5558C68.8357 32.3182 69.1429 34.0395 70.1061 35.597C70.9668 36.97 72.2789 37.4406 73.7954 36.8668C74.1643 36.7233 74.5122 36.5394 74.8811 36.3755C75.004 36.314 75.1268 36.2528 75.2293 36.1914C75.967 35.802 76.4384 35.822 76.7663 36.2524C77.1556 36.7647 77.0539 37.5232 76.4801 38.0355C75.5989 38.8142 74.5948 39.4083 73.4882 39.7976C71.7668 40.4124 69.9832 40.5762 68.1799 40.1869C65.8027 39.6745 64.2661 38.1789 63.4669 35.9042C62.8931 34.2852 62.6058 32.625 62.5853 30.924C62.5444 26.764 62.5238 22.6038 62.5033 18.4642C62.5033 18.0954 62.5033 17.7274 62.5033 17.3585C62.5033 16.4705 62.0595 16.0257 61.1715 16.0257C60.4337 16.0257 59.7168 16.0257 58.9791 16.0257C58.4873 16.0257 58.2206 15.8211 58.2206 15.3293C58.2206 15.2678 58.2206 15.2061 58.2206 15.1241C58.1386 13.6281 58.2 13.5875 59.6755 13.4441C62.647 13.1777 64.3885 11.3947 65.4131 8.75112C65.741 7.91091 65.9878 7.04973 66.2747 6.20953C66.4796 5.59474 66.8476 5.3495 67.4624 5.37C68.0567 5.39049 68.4466 5.71782 68.5491 6.3326C68.6311 6.86542 68.6307 7.39879 68.6512 7.93161C68.6512 9.46857 68.6512 10.9845 68.6512 12.5215C68.6512 13.3822 68.7536 13.5051 69.6348 13.5051C70.9668 13.5051 72.2993 13.5051 73.6313 13.5051C74.0002 13.5051 74.3482 13.5051 74.799 13.5051L74.779 13.5261Z" fill="#33C2A9"/>
    <path d="M164.291 40.1668C162.754 40.1668 161.239 40.1668 159.702 40.1668C159.435 40.1668 159.108 40.2277 158.923 40.1047C158.616 39.8998 158.288 39.6136 158.124 39.3062C157.939 38.9374 158.206 38.5681 158.534 38.3836C160.542 37.2975 160.993 35.3713 161.054 33.3835C161.177 29.6743 161.157 25.9442 161.054 22.2145C161.013 20.5341 160.644 18.8543 159.968 17.2764C159.558 16.3337 158.943 15.5755 157.918 15.2271C157.734 15.1656 157.509 15.0834 157.406 14.9399C157.242 14.7145 157.038 14.4274 157.079 14.1814C157.12 13.956 157.406 13.7305 157.611 13.546C157.693 13.4641 157.857 13.4845 158.001 13.464C160.132 13.1156 162.263 12.7877 164.395 12.3983C165.235 12.2549 165.993 12.3577 166.71 12.7676C167.612 13.2594 167.98 14.0589 167.878 15.104C167.714 16.682 167.488 18.2801 167.447 19.858C167.386 24.2845 167.365 28.6909 167.406 33.1173C167.406 34.1215 167.714 35.1456 168.001 36.1292C168.267 37.0514 168.944 37.7277 169.784 38.1785C170.255 38.4244 170.665 38.6914 170.521 39.3062C170.398 39.8186 169.927 40.1257 169.19 40.1257C167.55 40.1257 165.931 40.1257 164.291 40.1257V40.1668Z" fill="#33C2A9"/>
    <path d="M48.1792 27.7888C48.1177 25.9034 48.1175 23.9976 47.9741 22.1122C47.8511 20.5343 47.5637 18.9563 46.9694 17.4603C46.5391 16.4151 45.8842 15.5547 44.757 15.1859C44.5726 15.1244 44.3882 15.0211 44.2447 14.8777C43.7939 14.4883 43.8955 13.8332 44.4489 13.5668C44.5923 13.5054 44.7772 13.4847 44.9412 13.4438C47.0314 13.0954 49.1418 12.767 51.2321 12.3981C51.9084 12.2751 52.5641 12.3373 53.1994 12.5422C54.2445 12.8906 54.8389 13.69 54.8184 14.7966C54.8184 15.3704 54.7778 15.9229 54.7163 16.4967C54.1015 22.1937 54.1832 27.9119 54.3881 33.6294C54.4086 34.4082 54.634 35.2067 54.8594 35.9649C55.1668 36.9486 55.8019 37.7075 56.7446 38.1993C57.1954 38.4452 57.647 38.6907 57.483 39.326C57.3806 39.7974 56.909 40.1455 56.2533 40.1455C52.9334 40.1455 49.5928 40.1455 46.273 40.1455C46.15 40.1455 46.0067 40.1455 45.8838 40.1045C45.4534 39.9406 45.1047 39.6743 45.0432 39.2029C44.9817 38.7521 45.3102 38.4653 45.6586 38.2604C46.7038 37.707 47.2979 36.7849 47.5848 35.6987C47.8307 34.8176 47.9941 33.8752 48.0351 32.953C48.0966 31.2316 48.0351 29.4892 48.0351 27.7678C48.0966 27.7678 48.1377 27.7678 48.1992 27.7678L48.1792 27.7888Z" fill="#33C2A9"/>
    <path d="M163.779 1.49596C165.767 1.373 167.694 3.17669 167.714 5.41042C167.714 7.52118 165.87 9.32388 163.739 9.32388C161.71 9.32388 159.844 7.56213 159.844 5.36939C159.844 3.27912 161.812 1.33202 163.779 1.49596Z" fill="#33C2A9"/>
    <path d="M46.7856 5.38996C46.6421 3.32018 48.6708 1.456 50.72 1.4765C52.5439 1.4765 54.635 3.05433 54.6145 5.45199C54.6145 7.56276 52.8108 9.30394 50.7 9.32443C48.6302 9.34492 46.6626 7.52121 46.7856 5.38996Z" fill="#33C2A9"/>
    <path d="M0 0.369528C3.19689 0.369528 5.86128 0.266624 8.52536 0.430567C9.24261 0.471552 10.2063 1.18868 10.5546 1.84446C15.4934 11.4761 20.37 21.149 25.2269 30.8217C25.4728 31.334 25.5964 32.133 25.3709 32.6248C23.9979 35.5143 22.5215 38.3426 20.8411 41.6625C13.8325 27.7683 7.04955 14.3457 0 0.369528Z" fill="#33C2A9"/>
    <path d="M38.6503 0.532704C41.2733 15.7794 32.5637 21.2723 24.6124 20.3091C24.4075 14.3662 23.4034 8.27957 28.752 3.66867C31.5596 1.23002 34.5517 0.266297 38.6503 0.532704Z" fill="#33C2A9"/>
</svg>
