<svg width="1203" height="805" viewBox="0 0 1203 805" fill="none" xmlns="http://www.w3.org/2000/svg">
<path d="M100.482 804.242V681.757H222.938C155.283 681.757 100.482 736.617 100.482 804.242Z" fill="#FFE327"/>
<path d="M100.578 -52.9686V69.5155C32.9231 69.5155 -21.9072 14.6563 -21.9072 -52.9686H100.578Z" fill="#FFE327"/>
<path d="M590.362 69.5465H467.878C467.878 1.89119 522.737 -52.9391 590.362 -52.9391V69.5465Z" fill="#FFE327"/>
<path d="M957.787 69.5155H835.303C835.303 1.86018 890.162 -52.9686 957.787 -52.9686V69.5155Z" fill="#FFE327"/>
<path d="M1080.3 -53V69.4856C1012.65 69.4856 957.816 14.6249 957.816 -53H1080.3Z" fill="#FFE327"/>
<path d="M1080.24 69.5155V-52.9686C1147.9 -52.9686 1202.72 1.89057 1202.72 69.5155H1080.24Z" fill="#FFE327"/>
<path d="M1080.36 191.97H1202.85C1202.85 259.625 1147.99 314.454 1080.36 314.454V191.97Z" fill="#FFE327"/>
<path d="M1080.33 559.394H1202.81C1202.81 627.05 1147.96 681.879 1080.33 681.879V559.394Z" fill="#FFE327"/>
<path d="M1202.85 314.485V436.969C1135.19 436.969 1080.36 382.11 1080.36 314.485H1202.85Z" fill="#FFE327"/>
<path d="M957.848 191.97V69.4857C1025.5 69.4857 1080.33 124.345 1080.33 191.97H957.848Z" fill="#FFE327"/>
<path d="M957.848 436.969V314.485C1025.5 314.485 1080.33 369.344 1080.33 436.969H957.848Z" fill="#FFE327"/>
<path d="M1080.36 681.909H957.878C957.878 614.254 1012.74 559.423 1080.36 559.423V681.909Z" fill="#FFE327"/>
<path d="M1080.36 681.909V804.393C1012.71 804.393 957.878 749.534 957.878 681.909H1080.36Z" fill="#FFE327"/>
<path d="M835.362 559.455V436.969C903.018 436.969 957.846 491.83 957.846 559.455H835.362Z" fill="#FFE327"/>
<path d="M835.362 681.848H957.846C957.846 749.504 902.987 804.332 835.362 804.332V681.848Z" fill="#FFE327"/>
<path d="M957.846 314.485H835.362C835.362 246.83 890.222 192.001 957.846 192.001V314.485Z" fill="#FFE327"/>
<path d="M835.303 69.4546H957.787C957.787 137.11 902.928 191.94 835.303 191.94V69.4546Z" fill="#FFE327"/>
<path d="M712.849 314.485H590.365C590.365 246.83 645.224 192.001 712.849 192.001V314.485Z" fill="#FFE327"/>
<path d="M712.847 314.485H835.331C835.331 382.14 780.472 436.969 712.847 436.969V314.485Z" fill="#FFE327"/>
<path d="M344.937 560.943H467.421C467.421 628.599 412.561 683.428 344.937 683.428V560.943Z" fill="#FFE327"/>
<path d="M466.512 558.815V436.331C534.167 436.331 588.996 491.19 588.996 558.815H466.512Z" fill="#FFE327"/>
<path d="M835.453 436.94V559.424C767.798 559.424 712.969 504.565 712.969 436.94H835.453Z" fill="#FFE327"/>
<path d="M835.453 681.939H712.969C712.969 614.284 767.828 559.455 835.453 559.455V681.939Z" fill="#FFE327"/>
<path d="M590.365 681.939H712.849C712.849 614.284 657.99 559.455 590.365 559.455V681.939Z" fill="#FFE327"/>
<path d="M467.846 69.5148H590.333C590.333 137.17 535.471 192 467.846 192V69.5148Z" fill="#FFE327"/>
<path d="M590.362 314.485H467.878C467.878 246.83 522.737 192.001 590.362 192.001V314.485Z" fill="#FFE327"/>
<path d="M222.908 -52.9686C222.908 14.6867 168.05 69.5155 100.455 69.5155V-52.9686H222.908Z" fill="#FFE327"/>
<path d="M100.578 192.001H-21.9072V69.5466C45.7481 69.5466 100.578 124.376 100.578 192.001Z" fill="#FFE327"/>
<path d="M345.391 69.5465H222.939V-52.9391C222.939 14.7162 277.796 69.5465 345.391 69.5465Z" fill="#FFE327"/>
<path d="M712.788 69.5465H590.334V-52.9391C590.334 14.7162 645.194 69.5465 712.788 69.5465Z" fill="#FFE327"/>
<path d="M712.819 192.031H590.365V69.5466C590.365 137.202 645.225 192.031 712.819 192.031Z" fill="#FFE327"/>
<path d="M957.846 314.454V436.908H835.362C903.018 436.908 957.846 382.048 957.846 314.454Z" fill="#FFE327"/>
<path d="M835.303 559.423V681.878H957.787C890.132 681.878 835.303 627.018 835.303 559.423Z" fill="#FFE327"/>
<path d="M712.819 436.969H590.365V314.485C590.365 382.14 645.225 436.969 712.819 436.969Z" fill="#FFE327"/>
<path d="M345.361 69.5154V-52.9391H467.845C400.19 -52.9391 345.361 1.92082 345.361 69.5154Z" fill="#FFE327"/>
<path d="M712.816 69.5464V-52.9081H835.301C767.645 -52.9081 712.816 1.95182 712.816 69.5464Z" fill="#FFE327"/>
<path d="M1202.85 681.939V804.394H1080.36C1148.02 804.394 1202.85 749.534 1202.85 681.939Z" fill="#FFE327"/>
<path d="M467.391 805H344.937V682.516C344.937 750.171 399.796 805 467.391 805Z" fill="#FFE327"/>
<path d="M345.391 192H222.939V69.5148C222.939 137.17 277.796 192 345.391 192Z" fill="#FFE327"/>
<path d="M345.391 436.939H222.939V314.454C222.939 382.109 277.796 436.939 345.391 436.939Z" fill="#FFE327"/>
<path d="M100.424 436.94V314.485H222.908C155.253 314.485 100.424 369.345 100.424 436.94Z" fill="#FFE327"/>
<path d="M100.577 191.848V314.303C32.9217 314.303 -21.8774 259.473 -21.8774 191.848H100.577Z" fill="#FFE327"/>
<path d="M222.908 191.848C222.908 259.504 168.08 314.303 100.455 314.303V191.848H222.908Z" fill="#FFE327"/>
<path d="M222.908 69.5466V192.001H100.455C100.455 124.346 155.283 69.5466 222.908 69.5466Z" fill="#FFE327"/>
<path d="M467.846 192.001H345.392V69.5466C413.047 69.5466 467.846 124.376 467.846 192.001Z" fill="#FFE327"/>
<path d="M835.301 192.001H712.847V69.5466C780.502 69.5466 835.301 124.376 835.301 192.001Z" fill="#FFE327"/>
<path d="M345.392 436.94V314.485H467.846C467.846 382.14 413.017 436.94 345.392 436.94Z" fill="#FFE327"/>
<path d="M590.365 559.424V436.969H712.819C712.819 504.625 657.99 559.424 590.365 559.424Z" fill="#FFE327"/>
<path d="M345.391 192.001V314.454H222.939C222.939 246.798 277.766 192.001 345.391 192.001Z" fill="#FFE327"/>
<path d="M100.485 314.454V436.908H-21.9692C-21.9692 369.253 32.8603 314.454 100.485 314.454Z" fill="#FFE327"/>
<path d="M100.485 559.363V436.908H-21.9692C-21.9692 504.564 32.8603 559.363 100.485 559.363Z" fill="#FFE327"/>
<path d="M-22 559.394V681.849H100.454C100.454 614.193 45.6249 559.394 -22 559.394Z" fill="#FFE327"/>
<path d="M-22 559.394V681.849H100.454C100.454 614.193 45.6249 559.394 -22 559.394Z" fill="#FFE327"/>
<path d="M591.125 682.516V804.97H713.579C713.579 737.315 658.749 682.516 591.125 682.516Z" fill="#FFE327"/>
<path d="M222.938 559.363V681.817H100.482C100.482 614.162 155.313 559.363 222.938 559.363Z" fill="#FFE327"/>
<path d="M222.906 559.363V681.817H345.361C345.361 614.162 290.531 559.363 222.906 559.363Z" fill="#FFE327"/>
<path d="M-22 804.211V681.757H100.454C100.454 749.412 45.6249 804.211 -22 804.211Z" fill="#FFE327"/>
<path d="M100.455 436.878V559.333H222.908C222.908 491.678 168.08 436.878 100.455 436.878Z" fill="#FFE327"/>
<path d="M222.906 559.395V436.94H345.361C345.361 504.595 290.531 559.395 222.906 559.395Z" fill="#FFE327"/>
</svg>
