<svg width="90" height="90" viewBox="0 0 90 90" fill="none" xmlns="http://www.w3.org/2000/svg">
<path fill-rule="evenodd" clip-rule="evenodd" d="M81.9088 20.9198C83.4622 18.2294 82.9978 15.0533 80.3074 13.5C77.617 11.9467 74.536 13.0759 72.9827 15.7663C72.3761 16.8171 71.9996 18.1109 71.9262 19.3903C71.8117 21.3868 72.4354 23.348 74.0751 24.2947C76.2718 25.5629 79.0682 24.3038 80.8661 22.3346C81.2702 21.892 81.6238 21.4135 81.9088 20.9198ZM48.7978 80.6511C45.8086 81.4521 43.0966 78.9909 42.1135 75.3224C41.1303 71.6532 41.8641 66.7312 44.8534 65.9303C46.1998 65.5694 46.6704 66.5218 47.416 68.0309C48.0464 69.3069 48.8732 70.9802 50.5919 72.5947C54.3438 76.1192 51.787 79.8501 48.7978 80.6511Z" fill="white"/>
<path d="M33.2308 69.5769C26.5846 73.7308 20.7692 72 18.6923 70.6154C17.1345 69.5769 14.4691 65.6308 21.1152 55.3847C33.2308 36.7065 24.7654 41.2611 17.6538 25.6154C10.7308 10.3846 27.3462 12.1154 35.6538 18C42.577 22.904 47.8844 1.34269 57.8077 4.5C65.4232 6.92305 66.4615 15.9231 68.8846 24.5769C71.654 34.4675 86.1923 25.5235 86.1923 36C86.1923 42.2308 81.9475 40.1538 81.3463 51.5769C80.654 64.7308 62.6538 71.3077 55.7308 64.7308C48.8077 58.1539 41.5384 64.3846 33.2308 69.5769Z" fill="white"/>
<path d="M36.4998 34.2634L41.6682 31.279L41.6515 27.6651C41.6502 27.3873 41.7594 27.1204 41.9549 26.923C42.1505 26.7257 42.4164 26.6141 42.6942 26.6129C42.9721 26.6116 43.239 26.7208 43.4363 26.9164C43.6337 27.1119 43.7452 27.3779 43.7465 27.6557L43.7569 30.0733L46.8324 28.2926L47.1603 23.2059C47.1692 23.0686 47.2051 22.9344 47.2659 22.811C47.3267 22.6876 47.4112 22.5773 47.5146 22.4866C47.618 22.3958 47.7383 22.3263 47.8685 22.282C47.9988 22.2378 48.1365 22.2196 48.2738 22.2285C48.5509 22.2466 48.8095 22.3739 48.9927 22.5825C49.176 22.7911 49.2689 23.0639 49.2511 23.341L49.0165 27.0387L52.2208 25.1888L52.1904 21.511C52.1882 21.2334 52.2963 20.9662 52.4909 20.7682C52.6856 20.5702 52.9509 20.4576 53.2285 20.4551C53.3661 20.454 53.5025 20.48 53.63 20.5316C53.7575 20.5833 53.8736 20.6595 53.9717 20.756C54.0697 20.8525 54.1478 20.9673 54.2015 21.094C54.2551 21.2207 54.2833 21.3567 54.2844 21.4942L54.3053 23.9852L56.7146 22.5952C56.9551 22.4585 57.2398 22.4224 57.5068 22.4949C57.7737 22.5674 58.0012 22.7425 58.1395 22.982C58.2778 23.2216 58.3158 23.5061 58.2451 23.7735C58.1744 24.041 58.0007 24.2696 57.7621 24.4095L55.3874 25.7806L57.3965 26.9685C57.5151 27.0383 57.6188 27.1307 57.7017 27.2405C57.7845 27.3503 57.8449 27.4754 57.8795 27.6085C57.914 27.7417 57.922 27.8803 57.9029 28.0166C57.8838 28.1528 57.8381 28.284 57.7684 28.4026C57.6987 28.5211 57.6062 28.6248 57.4964 28.7077C57.3866 28.7905 57.2616 28.851 57.1284 28.8855C56.9952 28.92 56.8566 28.928 56.7203 28.9089C56.5841 28.8899 56.4529 28.8442 56.3344 28.7744L53.2966 26.9853L50.064 28.853L53.3867 30.4955C53.6355 30.6186 53.8253 30.8356 53.9142 31.0986C54.0032 31.3616 53.9841 31.6491 53.8612 31.8981C53.8003 32.0215 53.7157 32.1317 53.6122 32.2225C53.5087 32.3132 53.3883 32.3826 53.2579 32.4268C53.1276 32.4709 52.9898 32.489 52.8524 32.4799C52.7151 32.4707 52.5809 32.4347 52.4575 32.3737L47.8841 30.111L44.8076 31.8918L46.8963 33.1101C47.0178 33.178 47.1246 33.2694 47.2104 33.3791C47.2962 33.4887 47.3592 33.6144 47.3959 33.7487C47.4325 33.883 47.4421 34.0232 47.4239 34.1612C47.4057 34.2993 47.3602 34.4323 47.29 34.5525C47.2199 34.6727 47.1264 34.7778 47.0152 34.8615C46.9039 34.9452 46.7771 35.0059 46.6422 35.04C46.5072 35.0741 46.3668 35.081 46.2291 35.0603C46.0915 35.0395 45.9593 34.9915 45.8404 34.9191L42.7189 33.0975L37.5505 36.0818C40.0551 39.3427 45.4529 41.1958 53.4663 36.5689C57.883 33.9901 61.6156 30.3881 64.3499 26.0659C67.0843 21.7438 68.7404 16.8281 69.1789 11.7325C69.1867 11.5345 69.1383 11.3384 69.0391 11.1668C68.9399 10.9953 68.7941 10.8554 68.6187 10.7634C68.4432 10.6713 68.2452 10.631 68.0477 10.647C67.8502 10.663 67.6613 10.7346 67.5029 10.8537C63.6271 13.7951 59.8655 14.7672 55.8756 15.7969C51.7343 16.6926 47.7464 18.1896 44.0387 20.2404C36.0274 24.862 34.9275 30.463 36.4998 34.2634Z" fill="#F1D61B"/>
<path d="M36.4999 34.2634L31.8962 36.9209C31.6575 37.0608 31.4839 37.2894 31.4132 37.5568C31.3425 37.8242 31.3805 38.1088 31.5188 38.3483C31.6571 38.5879 31.8845 38.763 32.1515 38.8355C32.4184 38.9079 32.7032 38.8719 32.9437 38.7352L37.5475 36.0776C37.3318 35.8011 37.1341 35.5111 36.9556 35.2093C36.7835 34.9041 36.6313 34.5882 36.4999 34.2634Z" fill="#F1D61B"/>
<path d="M23.4659 52.5635L19.1498 56.8797C18.7408 57.2887 18.7408 57.9518 19.1498 58.3608L33.9615 73.1726C34.3705 73.5816 35.0337 73.5816 35.4427 73.1726L39.7588 68.8564C40.1678 68.4474 40.1678 67.7843 39.7588 67.3753L24.9471 52.5635C24.5381 52.1545 23.8749 52.1545 23.4659 52.5635Z" fill="#2D9C88"/>
<path d="M59.9398 45.3742C60.3117 45.442 60.6752 45.5499 61.024 45.6958L74.188 38.0962C73.9818 37.7383 73.7071 37.4247 73.3796 37.1731C73.0522 36.9215 72.6783 36.7369 72.2794 36.6299C71.8806 36.5228 71.4645 36.4955 71.0551 36.5494C70.6456 36.6033 70.2508 36.7373 69.8932 36.9439L56.3804 44.7457L59.9398 45.3742Z" fill="#2D9C88"/>
<path d="M76.147 39.3867L62.9023 47.0335C63.0541 47.1898 63.1961 47.3553 63.3276 47.529C63.8136 48.2338 64.118 49.0477 64.2138 49.8984L75.8516 43.1839C76.5883 42.7592 77.4166 42.5184 78.2662 42.482C79.1157 42.4455 79.9616 42.6144 80.732 42.9744C80.9047 42.373 80.894 41.7338 80.7012 41.1386C80.5084 40.5434 80.1424 40.0192 79.6499 39.6333C79.1574 39.2474 78.561 39.0173 77.9369 38.9724C77.3129 38.9275 76.6896 39.07 76.147 39.3814V39.3867Z" fill="#2D9C88"/>
<path d="M81.269 46.1714C80.8442 45.4358 80.1446 44.8991 79.3242 44.6791C78.5037 44.4591 77.6295 44.5739 76.8936 44.9982L63.8804 52.5067C63.4285 53.6162 62.6105 54.5375 61.5624 55.1176C60.5143 55.6977 59.2992 55.9015 58.1191 55.6953L45.6465 53.4956C45.3788 53.4413 45.1428 53.2846 44.989 53.0588C44.8352 52.8331 44.7756 52.5562 44.8231 52.2872C44.8705 52.0181 45.0211 51.7783 45.2428 51.6187C45.4645 51.4592 45.7398 51.3925 46.01 51.433L58.4837 53.6328C58.8904 53.7048 59.3073 53.696 59.7106 53.6068C60.1139 53.5175 60.4957 53.3497 60.8341 53.1128C61.1724 52.8759 61.4608 52.5746 61.6826 52.2261C61.9045 51.8777 62.0554 51.489 62.1269 51.0821C62.1991 50.6752 62.1903 50.2581 62.1011 49.8546C62.0118 49.4512 61.8439 49.0692 61.6069 48.7307C61.3699 48.3922 61.0684 48.1038 60.7198 47.8819C60.3712 47.6601 59.9822 47.5092 59.5752 47.4378L51.6508 46.0415C49.7199 45.6962 47.8416 45.1033 46.0623 44.2775C43.787 43.2292 41.245 42.9033 38.7787 43.3438C36.3125 43.7843 34.0405 44.97 32.2688 46.7413L27.1758 51.8269L40.5084 65.1596L42.4463 63.2217L56.8056 63.8942C58.4061 63.9728 59.9952 63.5876 61.3821 62.7849C61.5183 62.7063 61.6545 62.6225 61.7864 62.5356L80.2488 50.4536C80.9338 50.0054 81.4213 49.3119 81.611 48.5155C81.8007 47.7192 81.6784 46.8804 81.269 46.1714Z" fill="#2D9C88"/>
<path d="M19.155 35.4701C19.3262 35.6411 19.5513 35.7476 19.7921 35.7715C20.0329 35.7954 20.2745 35.7351 20.476 35.601C21.2341 35.0941 22.1256 34.8236 23.0376 34.8236C23.9496 34.8236 24.8411 35.0941 25.5993 35.601C25.8008 35.7356 26.0427 35.7962 26.2839 35.7724C26.525 35.7487 26.7505 35.642 26.9218 35.4707C27.0932 35.2993 27.1998 35.0739 27.2236 34.8327C27.2474 34.5916 27.1868 34.3496 27.0522 34.1481C26.5446 33.3904 26.2736 32.499 26.2736 31.587C26.2736 30.675 26.5446 29.7835 27.0522 29.0258C27.1868 28.8243 27.2474 28.5824 27.2236 28.3412C27.1998 28.1001 27.0932 27.8746 26.9218 27.7033C26.7505 27.5319 26.525 27.4253 26.2839 27.4015C26.0427 27.3778 25.8008 27.4383 25.5993 27.5729C24.8416 28.0805 23.9502 28.3515 23.0382 28.3515C22.1261 28.3515 21.2347 28.0805 20.477 27.5729C20.2755 27.4383 20.0336 27.3778 19.7924 27.4015C19.5513 27.4253 19.3258 27.5319 19.1545 27.7033C18.9831 27.8746 18.8765 28.1001 18.8527 28.3412C18.8289 28.5824 18.8895 28.8243 19.0241 29.0258C19.531 29.784 19.8016 30.6755 19.8016 31.5875C19.8016 32.4995 19.531 33.391 19.0241 34.1492C18.89 34.3506 18.8298 34.5922 18.8537 34.833C18.8775 35.0738 18.984 35.2989 19.155 35.4701Z" fill="#F1D61B"/>
<path d="M29.6301 18.71C29.8013 18.881 30.0264 18.9875 30.2672 19.0114C30.508 19.0352 30.7496 18.975 30.9511 18.8409C31.7092 18.334 32.6007 18.0634 33.5127 18.0634C34.4247 18.0634 35.3162 18.334 36.0744 18.8409C36.2759 18.9755 36.5178 19.0361 36.759 19.0123C37.0001 18.9885 37.2256 18.8819 37.3969 18.7105C37.5683 18.5392 37.6749 18.3137 37.6987 18.0726C37.7225 17.8314 37.6619 17.5895 37.5273 17.388C37.0197 16.6303 36.7487 15.7389 36.7487 14.8269C36.7487 13.9148 37.0197 13.0234 37.5273 12.2657C37.6619 12.0642 37.7225 11.8223 37.6987 11.5811C37.6749 11.34 37.5683 11.1145 37.3969 10.9432C37.2256 10.7718 37.0001 10.6652 36.759 10.6414C36.5178 10.6176 36.2759 10.6782 36.0744 10.8128C35.3167 11.3204 34.4253 11.5914 33.5133 11.5914C32.6012 11.5914 31.7098 11.3204 30.9521 10.8128C30.7506 10.6782 30.5087 10.6176 30.2675 10.6414C30.0264 10.6652 29.8009 10.7718 29.6296 10.9432C29.4582 11.1145 29.3516 11.34 29.3278 11.5811C29.304 11.8223 29.3646 12.0642 29.4992 12.2657C30.0061 13.0239 30.2767 13.9154 30.2767 14.8274C30.2767 15.7394 30.0061 16.6309 29.4992 17.3891C29.3651 17.5905 29.3049 17.8321 29.3288 18.0729C29.3526 18.3137 29.4591 18.5388 29.6301 18.71Z" fill="#F1D61B"/>
<path d="M71.5307 28.1375C71.7019 28.3086 71.927 28.415 72.1678 28.4389C72.4086 28.4628 72.6502 28.4026 72.8517 28.2685C73.6098 27.7616 74.5013 27.491 75.4133 27.491C76.3253 27.491 77.2168 27.7616 77.975 28.2685C78.1765 28.4031 78.4184 28.4636 78.6596 28.4399C78.9007 28.4161 79.1262 28.3095 79.2975 28.1381C79.4689 27.9668 79.5755 27.7413 79.5993 27.5002C79.6231 27.259 79.5625 27.0171 79.4279 26.8156C78.9203 26.0579 78.6493 25.1664 78.6493 24.2544C78.6493 23.3424 78.9203 22.451 79.4279 21.6933C79.5619 21.4917 79.622 21.25 79.5979 21.0092C79.5739 20.7684 79.4672 20.5434 79.296 20.3723C79.1248 20.2013 78.8997 20.0948 78.6589 20.0709C78.4181 20.047 78.1764 20.1073 77.975 20.2414C77.217 20.7481 76.3256 21.0185 75.4139 21.0185C74.5021 21.0185 73.6108 20.7481 72.8527 20.2414C72.6513 20.1073 72.4096 20.047 72.1688 20.0709C71.928 20.0948 71.7029 20.2013 71.5317 20.3723C71.3605 20.5434 71.2538 20.7684 71.2298 21.0092C71.2058 21.25 71.2658 21.4917 71.3998 21.6933C71.9069 22.4515 72.1776 23.3432 72.1776 24.2555C72.1776 25.1677 71.9069 26.0594 71.3998 26.8177C71.266 27.019 71.2059 27.2604 71.2298 27.501C71.2536 27.7415 71.36 27.9664 71.5307 28.1375Z" fill="#F1D61B"/>
</svg>
