<svg width="91" height="90" viewBox="0 0 91 90" fill="none" xmlns="http://www.w3.org/2000/svg">
<path d="M15.164 64.3908C9.7774 59.1093 19.4225 54.2629 17.9756 44.585C16.7831 36.6084 14.9685 28.0259 20.1155 24.7793C25.9366 21.1075 40.8119 30.053 49.0814 20.6531C55.6017 13.2416 64.6784 10.3376 68.392 14.2163C75.2125 21.34 63.8532 30.3719 70.4549 34.7647C73.4318 36.7453 78.0474 33.9395 79.2618 37.6565C80.4761 41.3737 74.4495 43.5243 73.4318 51.6721C72.4141 59.8199 78.7384 70.3149 75.4464 74.2175C69.4648 81.3081 59.0499 70.0899 52.3056 66.2063C45.5613 62.3228 44.2339 74.4244 40.829 72.9734C37.1648 71.4115 36.3961 65.1738 32.6591 62.5753C28.9221 59.9767 20.2244 69.3526 15.164 64.3908Z" fill="white"/>
<path d="M41.281 14.832C41.4348 14.4773 41.6065 14.1177 41.7907 13.7642C42.9293 11.5664 44.6294 9.42206 46.4547 7.88162C46.4561 7.88041 46.4573 7.87948 46.4587 7.87826C46.6493 7.71589 46.8439 7.55928 47.0372 7.413C47.5899 6.99474 48.0975 6.68391 48.5459 6.48909C49.0324 6.27988 49.2931 6.27476 49.4053 6.29022C49.8287 6.34868 50.7143 6.99131 51.8163 8.6106C53.1582 10.5771 54.2195 13.0965 54.728 15.5229C54.8078 15.8978 54.8759 16.2904 54.9304 16.6885C55.1804 18.4624 55.1226 20.1194 54.7585 21.6128C54.5771 22.3633 54.3012 23.0711 53.9389 23.716C53.9197 23.7502 53.8941 23.7789 53.8643 23.8015C53.7929 23.8555 53.6974 23.8735 53.6082 23.8436C51.6273 23.1798 49.4707 22.6871 47.1984 22.3791C44.9263 22.0701 42.7159 21.9692 40.6285 22.0793C40.4949 22.0863 40.3754 21.9973 40.344 21.8674C40.1706 21.1489 40.0959 20.3935 40.1221 19.6223C40.1724 18.0861 40.5624 16.4743 41.281 14.832Z" fill="#2D9C88"/>
<path d="M67.8657 43.4725C68.2521 43.4863 68.6495 43.5151 69.0458 43.5577C71.5075 43.8166 74.124 44.6178 76.2239 45.7559C76.2256 45.7567 76.2269 45.7575 76.2285 45.7583C76.4492 45.8767 76.666 46.0008 76.8727 46.1275C77.4637 46.4896 77.9382 46.849 78.2831 47.1955C78.6553 47.5722 78.7551 47.8131 78.7816 47.9232C78.8815 48.3388 78.606 49.3976 77.5 51.0142C76.1581 52.9807 74.199 54.8875 72.125 56.2457C71.8051 56.4567 71.4643 56.6632 71.1135 56.8591C69.5528 57.7387 67.9888 58.289 66.4654 58.4944C65.7005 58.5991 64.9409 58.6003 64.2082 58.4981C64.1694 58.4927 64.1333 58.4793 64.1014 58.4598C64.0251 58.413 63.9735 58.3306 63.9689 58.2366C63.8647 56.1501 63.5372 53.9623 62.9955 51.7341C62.4549 49.5057 61.7429 47.4108 60.8794 45.5071C60.8241 45.3853 60.8635 45.2416 60.973 45.165C61.5788 44.7416 62.2549 44.3966 62.9826 44.1398C64.4313 43.6266 66.0744 43.4021 67.8657 43.4725Z" fill="#2D9C88"/>
<path d="M68.0347 41.501C68.2298 41.3704 68.4357 41.2432 68.646 41.1233C69.9499 40.3752 71.523 39.839 72.9616 39.6524C72.9627 39.6522 72.9636 39.6521 72.9647 39.652C73.1154 39.6317 73.2663 39.6157 73.4131 39.6045C73.8329 39.5726 74.1943 39.5808 74.4873 39.6287C74.8045 39.6818 74.9393 39.7649 74.9915 39.8096C75.1885 39.9787 75.4295 40.598 75.46 41.7872C75.4988 43.2325 75.2126 44.8681 74.6746 46.2743C74.5921 46.492 74.4978 46.7149 74.3948 46.9361C73.9393 47.9242 73.3651 48.7514 72.6882 49.3943C72.3488 49.7179 71.9753 49.9887 71.5783 50.1989C71.5572 50.2101 71.5347 50.2163 71.5121 50.2181C71.4579 50.2222 71.4032 50.2 71.3675 50.1554C70.574 49.1652 69.6347 48.2047 68.5755 47.3004C67.5168 46.3956 66.4212 45.6175 65.319 44.9875C65.2485 44.9472 65.2167 44.8624 65.2434 44.7858C65.3911 44.3619 65.6012 43.9516 65.8681 43.5663C66.3988 42.7984 67.1278 42.1035 68.0347 41.501Z" fill="#2D9C88"/>
<path d="M38.2308 23.8846C43.7692 18.9 54.1538 20.6538 58.6538 22.1538V24.5769L53.8077 27.6923L41 31.8461L23 44.6538C23.3462 34.9615 31.3077 30.1154 38.2308 23.8846Z" fill="white"/>
<path d="M19.9302 55.6838C20.6326 57.6939 21.0036 59.9921 21.0569 62.7091C21.1358 66.7103 24.4863 69.9675 28.4882 69.9334C31.2055 69.91 33.5133 70.2158 35.5426 70.8612C44.4643 73.7077 54.075 70.4443 62.6003 61.6747C75.2109 48.7027 72.7142 37.6072 70.1013 32.1469C69.6654 31.2372 69.5506 30.1786 69.7614 28.9996C70.2267 26.3822 69.4737 23.8915 67.698 22.1653C65.9225 20.4392 63.4114 19.7569 60.8069 20.2972C59.6358 20.5399 58.5743 20.4549 57.6513 20.0436C52.1207 17.5873 40.9592 15.405 28.3485 28.3771C19.8234 37.1469 16.8327 46.8459 19.9302 55.6838ZM56.0379 23.6777C56.2447 23.7697 56.47 23.7674 56.6809 23.8413C50.5943 23.0451 42.1762 24.5419 32.0455 33.0776C28.8922 35.7343 26.3451 38.5213 24.2909 41.3689C25.6245 38.0426 27.8465 34.6046 31.2283 31.1259C40.048 22.0534 48.8556 20.4832 56.0379 23.6777Z" fill="#F1D61B"/>
</svg>
