<svg width="90" height="90" viewBox="0 0 90 90" fill="none" xmlns="http://www.w3.org/2000/svg">
<path d="M77.842 39.9705C79.3954 37.2801 78.931 34.104 76.2406 32.5508C73.5502 30.9974 70.4692 32.1266 68.9159 34.817C67.3626 37.5074 67.3179 41.792 70.0083 43.3454C72.6987 44.8986 76.2888 42.6609 77.842 39.9705Z" fill="white"/>
<path d="M22.5214 50.1845C23.2289 53.0141 21.9899 55.7616 19.1597 56.469C16.3301 57.1767 13.84 55.3617 13.1326 52.532C12.425 49.7023 13.4909 45.8228 16.3209 45.1154C19.1506 44.4076 21.8134 47.3544 22.5214 50.1845Z" fill="white"/>
<path d="M64.6088 76.4682C59.3273 81.8549 54.481 72.2098 44.8031 73.6566C36.8264 74.8492 28.2439 76.6637 24.9973 71.5168C21.3255 65.6956 30.271 50.8204 20.8712 42.5508C13.4597 36.0306 10.5556 26.9538 14.4343 23.2403C21.5581 16.4198 30.59 27.7791 34.9827 21.1774C36.9633 18.2004 34.1575 13.5848 37.8746 12.3705C41.5917 11.1562 43.7423 17.1827 51.8901 18.2004C60.0379 19.2181 70.533 12.8939 74.4355 16.1858C81.5261 22.1674 70.308 32.5824 66.4244 39.3267C62.5409 46.071 74.6425 47.3984 73.1914 50.8033C71.6296 54.4675 65.3919 55.2361 62.7933 58.9731C60.1947 62.7101 69.5707 71.4079 64.6088 76.4682Z" fill="white"/>
<path d="M64.0387 17.3077C57.3583 17.3077 51.9233 22.6847 51.9233 29.2941C51.9233 31.9706 52.8391 34.5889 54.5063 36.6911L53.7703 43.0646C53.7489 43.2502 53.8349 43.432 53.9929 43.5344C54.076 43.5883 54.1714 43.6154 54.267 43.6154C54.3532 43.6154 54.4395 43.5934 54.517 43.5491L59.8084 40.526C61.166 41.0268 62.5878 41.2805 64.0387 41.2805C70.7191 41.2805 76.1541 35.9035 76.1541 29.2941C76.1541 22.6847 70.7192 17.3077 64.0387 17.3077ZM69.3907 27.1016L63.1792 33.0016C62.9856 33.1855 62.7361 33.2773 62.4867 33.2773C62.2305 33.2773 61.9742 33.1803 61.7792 32.9872L58.6753 29.9127C58.2851 29.5261 58.2854 28.8997 58.6762 28.5135C59.0668 28.1273 59.6999 28.1277 60.0903 28.5144L62.5013 30.9026L68.0057 25.6744C68.4041 25.2961 69.037 25.3087 69.4195 25.7028C69.8021 26.0969 69.789 26.7231 69.3907 27.1016Z" fill="#F2D61B"/>
<path d="M34.3275 49.0658C34.0282 48.9979 33.7266 48.9535 33.4244 48.9318C33.2782 48.9213 33.1318 48.9161 32.9855 48.9161C28.8368 48.9161 24.6511 53.0878 23.2443 58.927C21.6815 65.3983 24.1115 71.5068 28.6612 72.543C30.7992 73.0299 33.1173 72.3167 35.1879 70.5349C37.3572 68.6682 38.9769 65.8806 39.7486 62.6853C41.1619 56.8331 39.3096 51.2779 35.5771 49.5C35.1812 49.3114 34.7641 49.1653 34.3275 49.0658ZM30.4687 69.3944C30.3592 69.8524 29.9392 70.1621 29.4748 70.1621C29.3984 70.1621 29.3207 70.1537 29.2431 70.1362C27.4699 69.7365 26.5068 67.9972 26.0904 66.9959C25.6487 65.9341 25.3935 64.747 25.3321 63.4678C25.3058 62.9206 25.7412 62.4565 26.3047 62.431C26.8664 62.4053 27.3461 62.8283 27.3724 63.3755C27.4231 64.4308 27.629 65.399 27.9842 66.2531C28.4334 67.3332 29.0765 68.0625 29.7048 68.2041C30.2543 68.3279 30.5962 68.8607 30.4687 69.3944ZM41.5564 63.8284C43.5577 67.0975 46.5006 68.8291 49.3129 68.3639C51.3226 68.032 53.0414 66.6086 54.1534 64.3559C55.3223 61.9877 55.6741 59.0199 55.1439 55.9994C54.6154 52.9781 53.2727 50.2904 51.3632 48.4305C49.5468 46.6615 47.4399 45.8699 45.4304 46.2017C44.6059 46.3384 43.8339 46.6561 43.1344 47.1347C41.8885 47.9873 40.8726 49.3506 40.1999 51.1117C40.5565 51.6717 40.8743 52.2816 41.1487 52.9389C42.3952 55.9252 42.6041 59.5475 41.7369 63.1382C41.6808 63.3703 41.6205 63.6002 41.5564 63.8284ZM44.0411 61.0837C44.53 60.811 45.1544 60.9749 45.4352 61.45C45.7867 62.0444 46.1885 62.5631 46.6294 62.9914C47.3344 63.6761 48.0693 64.0528 48.5463 63.9739C49.1023 63.8821 49.6296 64.2453 49.7241 64.7853C49.8187 65.3252 49.4445 65.8374 48.8885 65.9292C48.7279 65.9557 48.5688 65.968 48.4121 65.968C47.0286 65.968 45.8191 65.0093 45.1853 64.3938C44.6168 63.8418 44.1051 63.1837 43.6639 62.4375C43.3831 61.9625 43.552 61.3564 44.0411 61.0837ZM50.5491 33.7621C47.4989 37.2119 46.1099 41.4691 45.4974 44.191C45.3606 44.2061 45.2238 44.224 45.0874 44.2465C44.4663 44.3494 43.8663 44.5309 43.293 44.7827C43.7865 42.1668 45.0834 37.3583 48.3273 33.2747C43.7908 36.0822 38.6356 40.6186 36.0872 47.5469C35.6707 47.3748 35.239 47.2364 34.7931 47.1347C34.5683 47.0838 34.3425 47.0435 34.1159 47.0119C35.2695 43.8332 37.0267 40.8853 39.3606 38.2119C36.3522 39.2484 33.2879 39.7809 30.2868 39.7809C29.651 39.7809 29.0182 39.757 28.3893 39.7091C23.404 39.3294 18.7372 37.4464 14.8932 34.2638C14.6505 34.0629 14.5199 33.7625 14.5407 33.4536C14.5615 33.1445 14.7314 32.8633 14.999 32.6948C19.0518 30.1428 24.0922 28.8675 29.1902 29.105C34.5032 29.3519 39.3613 31.1893 43.2822 34.4257C45.2495 32.8153 47.4547 31.3661 49.8183 30.1314C49.8954 31.3698 50.1432 32.5915 50.5491 33.7621Z" fill="#2D9C88"/>
<path d="M30.4687 69.3944C30.3592 69.8524 29.9392 70.1621 29.4748 70.1621C29.3984 70.1621 29.3207 70.1537 29.2431 70.1362C27.4699 69.7365 26.5068 67.9972 26.0904 66.9959C25.6487 65.9341 25.3935 64.747 25.3321 63.4678C25.3058 62.9206 25.7412 62.4565 26.3047 62.431C26.8664 62.4053 27.3461 62.8283 27.3724 63.3755C27.4231 64.4308 27.629 65.399 27.9842 66.2531C28.4334 67.3332 29.0765 68.0625 29.7048 68.2041C30.2543 68.3279 30.5962 68.8607 30.4687 69.3944Z" fill="#2D9C88"/>
<path d="M44.0411 61.0837C44.53 60.811 45.1544 60.9749 45.4352 61.45C45.7867 62.0444 46.1885 62.5631 46.6294 62.9914C47.3344 63.6761 48.0693 64.0528 48.5463 63.9739C49.1023 63.8821 49.6296 64.2453 49.7241 64.7853C49.8187 65.3252 49.4445 65.8374 48.8885 65.9292C48.7279 65.9557 48.5688 65.968 48.4121 65.968C47.0286 65.968 45.8191 65.0093 45.1853 64.3938C44.6168 63.8418 44.1051 63.1837 43.6639 62.4375C43.3831 61.9625 43.552 61.3564 44.0411 61.0837Z" fill="#2D9C88"/>
<path d="M36.0872 47.5469C35.6707 47.3748 35.239 47.2364 34.7931 47.1347C34.5683 47.0838 34.3425 47.0435 34.1159 47.0119L33.4244 48.9318C33.7266 48.9535 34.0282 48.9979 34.3275 49.0658C34.7641 49.1653 35.1812 49.3114 35.5771 49.5L36.0872 47.5469Z" fill="#2D9C88"/>
<path d="M45.4974 44.191C45.3606 44.2061 45.2238 44.224 45.0874 44.2465C44.4663 44.3494 43.8663 44.5309 43.293 44.7827C43.2317 45.1073 43.1344 45.5705 43.1344 47.1347C43.8339 46.6561 44.6059 46.3384 45.4304 46.2017C45.3768 45.1256 45.4527 44.4129 45.4974 44.191Z" fill="#2D9C88"/>
<path d="M29.2179 66.1057C28.0944 64.3905 26.3677 63.5345 25.3612 64.1937C24.3547 64.853 24.4496 66.7779 25.5731 68.4932C26.6966 70.2084 28.4233 71.0644 29.4298 70.4052C30.4363 69.7459 30.3414 67.821 29.2179 66.1057Z" fill="white"/>
<path d="M47.016 52.0827C48.5116 52.7863 50.1171 52.5212 50.6019 51.4907C51.0866 50.4602 50.2672 49.0545 48.7716 48.3509C47.2759 47.6473 45.6705 47.9123 45.1857 48.9428C44.7009 49.9733 45.5204 51.3791 47.016 52.0827Z" fill="white"/>
<path d="M31.7376 53.2334C32.5952 52.6716 32.9305 51.6666 32.4864 50.9887C32.0423 50.3108 30.9871 50.2166 30.1295 50.7784C29.2719 51.3401 28.9366 52.3451 29.3807 53.023C29.8248 53.701 30.88 53.7951 31.7376 53.2334Z" fill="white"/>
</svg>
