<svg width="91" height="90" viewBox="0 0 91 90" fill="none" xmlns="http://www.w3.org/2000/svg">
<path d="M15.1645 64.3908C9.77788 59.1093 19.423 54.2629 17.9761 44.585C16.7836 36.6084 14.969 28.0259 20.116 24.7793C25.9371 21.1075 40.8124 30.053 49.0819 20.6531C55.6021 13.2416 64.6789 10.3376 68.3925 14.2163C75.2129 21.34 63.8537 30.3719 70.4554 34.7647C73.4323 36.7453 78.0479 33.9395 79.2622 37.6565C80.4766 41.3737 74.45 43.5243 73.4323 51.6721C72.4146 59.8199 78.7389 70.3149 75.4469 74.2175C69.4653 81.3081 59.0504 70.0899 52.3061 66.2063C45.5617 62.3228 44.2344 74.4244 40.8295 72.9734C37.1653 71.4115 36.3966 65.1738 32.6596 62.5753C28.9226 59.9767 20.2249 69.3526 15.1645 64.3908Z" fill="white"/>
<path d="M80.0971 42.6483C79.7957 41.2628 79.3937 39.347 78.9048 36.7815C78.0675 32.3929 77.2234 28.7668 71.5365 24.3518C66.2647 20.2615 59.7405 18.2993 53.0553 18.1999C51.5971 17.0585 50.4303 15.7467 49.7109 13.9513C50.9926 13.2326 52.0556 13.3168 52.5965 13.1445C53.766 12.7717 54.4089 11.5311 54.0321 10.3737C53.6553 9.21612 52.4017 8.57996 51.2322 8.95278L51.1391 8.98242C47.0912 10.2727 44.9774 13.4733 44.301 17.2771C29.6041 17.6643 17.8076 29.5681 17.8076 44.2062C17.8076 59.0888 29.9989 71.1539 45.037 71.1539C60.0819 71.1539 72.2664 59.0888 72.2664 44.2062C72.2664 42.7412 72.1458 41.3027 71.9182 39.9039C71.831 39.8576 71.744 39.8244 71.6569 39.7846C70.7526 39.3935 69.7545 39.0289 68.6962 38.6378C62.9689 36.523 55.8484 33.8912 52.4122 24.7828C51.7423 23.0261 51.3203 21.2031 51.1529 19.3601C50.5031 18.8032 49.9338 18.2265 49.4381 17.6099C48.5744 17.47 47.6972 17.3766 46.8092 17.32C47.3676 16.1452 48.1051 15.1183 49.0461 14.3937C49.8036 16.1979 50.9876 17.5407 52.4457 18.6971C52.5663 20.613 52.9816 22.5155 53.6648 24.3186C57.5098 34.5077 66.3987 36.0987 72.1861 38.5647C75.3077 39.8905 77.5047 41.76 78.9048 43.2581C79.3937 43.7754 80.2511 43.3377 80.0971 42.6483Z" fill="#FF8900"/>
<path d="M30.5337 30.0341C32.4196 28.1482 33.2588 25.9297 32.408 25.0789C31.5572 24.2281 29.3387 25.0673 27.4528 26.9532C25.5669 28.8391 24.7278 31.0576 25.5786 31.9084C26.4293 32.7591 28.6478 31.92 30.5337 30.0341Z" fill="white"/>
<path d="M78.9046 30.6328C79.3935 33.1983 79.7955 35.1142 80.0969 36.4996C80.2509 37.189 79.3935 37.6267 78.9046 37.1095C77.5045 35.6113 75.3075 33.7418 72.1859 32.416C66.3985 29.95 57.5096 28.359 53.6646 18.1699C52.9814 16.3668 52.5661 14.4643 52.4455 12.5484C50.9874 11.392 49.8034 10.0492 49.0459 8.24501C48.1049 8.9696 47.3674 9.99653 46.809 11.1713C45.9772 11.1284 45.5778 11.1284 44.3008 11.1284C44.9771 7.3246 47.091 4.12401 51.1389 2.83374L51.232 2.8041C52.4015 2.43128 53.6551 3.06744 54.0319 4.22499C54.4087 5.38243 53.7658 6.62301 52.5963 6.99582C52.0554 7.16814 50.9924 7.08389 49.7107 7.80258C50.4301 9.59801 51.5969 10.9098 53.0551 12.0512C59.7402 12.1506 66.2645 14.1129 71.5363 18.2031C77.2232 22.6181 78.0673 26.2442 78.9046 30.6328Z" fill="#2D9C88"/>
</svg>
