<svg width="90" height="90" viewBox="0 0 90 90" fill="none" xmlns="http://www.w3.org/2000/svg">
<path d="M11.4294 66.4285C5.74272 58.4758 25.1263 57.6782 25.1263 42.2034C25.1262 25.6806 5.21716 22.6768 12.4683 13.5096C19.1411 5.0735 29.1998 21.0981 44.1135 23.4695C59.027 25.8408 68.4444 7.10687 74.3196 14.9336C80.1945 22.7604 59.9361 27.707 63.1005 34.0937C66.2651 40.4805 78.9232 36.2594 78.9232 43.6738C78.9232 51.0882 68.6794 44.5748 59.9361 53.2539C51.1927 61.9331 61.2947 77.3931 55.2846 78.801C48.4443 80.403 53.0719 65.6422 39.773 69.6937C32.9136 71.783 37.8948 66.0274 31.4554 61.6489C25.016 57.2703 17.1162 74.381 11.4294 66.4285Z" fill="white"/>
<g clip-path="url(#clip0_33_252)">
<path d="M59.2239 42.6789C59.0645 42.3477 58.7304 42.1367 58.3629 42.1367H50.0508L56.4224 17.5583C56.536 17.1231 56.3289 16.6678 55.928 16.4663C55.5252 16.263 55.0375 16.369 54.7558 16.7193L30.8924 46.3099C30.6614 46.5963 30.6155 46.9896 30.774 47.3217C30.9334 47.6529 31.2676 47.8639 31.635 47.8639H39.9471L33.5756 72.4423C33.4621 72.8775 33.6691 73.3328 34.07 73.5343C34.2075 73.6029 34.3535 73.6364 34.4986 73.6364C34.7801 73.6364 35.056 73.5123 35.2421 73.2813L59.1056 43.6907C59.3366 43.4043 59.3824 43.011 59.2239 42.6789Z" fill="#FF8900"/>
<path d="M36.7245 33.6832C36.567 33.3491 36.231 33.1362 35.8616 33.1362H31.3772L34.8757 20.0191C34.9912 19.5847 34.7889 19.1294 34.3899 18.9242C33.9908 18.718 33.5021 18.8201 33.2168 19.1657L19.8531 35.3928C19.6183 35.6781 19.5696 36.0725 19.7271 36.4065C19.8846 36.7406 20.2207 36.9535 20.59 36.9535H25.0745L21.5761 50.0707C21.4607 50.5051 21.663 50.9604 22.0619 51.1656C22.2003 51.2372 22.3502 51.2715 22.4982 51.2715C22.7769 51.2715 23.049 51.1503 23.2351 50.9241L36.5986 34.6969C36.8334 34.4125 36.882 34.0173 36.7245 33.6832Z" fill="#2D9C88"/>
<path d="M70.2704 54.1374C70.1129 53.8033 69.7769 53.5904 69.4075 53.5904H64.9231L68.4215 40.4732C68.537 40.0388 68.3346 39.5836 67.9356 39.3783C67.5366 39.173 67.0479 39.2743 66.7625 39.6198L53.399 55.847C53.1642 56.1324 53.1155 56.5267 53.273 56.8607C53.4305 57.1948 53.7666 57.4077 54.1359 57.4077H58.6204L55.122 70.525C55.0066 70.9593 55.2089 71.4146 55.6078 71.6199C55.7462 71.6914 55.8961 71.7258 56.0441 71.7258C56.3228 71.7258 56.5949 71.6045 56.781 71.3783L70.1446 55.1512C70.3793 54.8668 70.4279 54.4716 70.2704 54.1374Z" fill="#2D9C88"/>
</g>
<defs>
<clipPath id="clip0_33_252">
<rect width="57.2727" height="57.2727" fill="white" transform="translate(16.3633 16.3636)"/>
</clipPath>
</defs>
</svg>
