<svg width="32" height="54" viewBox="0 0 32 54" fill="none" xmlns="http://www.w3.org/2000/svg">
<rect x="0.5" y="0.5" width="31" height="53" rx="12.5" stroke="white"/>
<path d="M18.1056 7H16.7864V10.3885C17.7641 10.7074 18.4707 11.6036 18.4707 12.657V15.1048C18.4707 16.1581 17.7641 17.0543 16.7864 17.3733V19.1841C16.7864 19.6049 16.4342 19.9458 16.0001 19.9458C15.5658 19.9458 15.2138 19.6049 15.2138 19.1841V17.3733C14.2358 17.0543 13.5294 16.1581 13.5294 15.1048V12.657C13.5294 11.6036 14.2358 10.7074 15.2138 10.3885V7H13.8945C9.96485 7 6.79163 10.0802 6.79163 13.8809V26.1191C6.79163 29.9258 9.9712 33 13.8945 33H18.1054C22.0351 33 25.2083 29.9198 25.2083 26.1191V13.8809C25.2085 10.0742 22.0289 7 18.1056 7Z" fill="white"/>
<path d="M15.102 12.657V15.1048C15.102 15.5844 15.5047 15.9748 16.0001 15.9748C16.4952 15.9748 16.8982 15.5844 16.8982 15.1048V12.657C16.8982 12.1773 16.4952 11.7869 16.0001 11.7869C15.5047 11.7869 15.102 12.1773 15.102 12.657Z" fill="white"/>
<path d="M12 44.8333L16 49L20 44.8333" stroke="white" stroke-linecap="round" stroke-linejoin="round"/>
<path d="M12 39L16 43.1667L20 39" stroke="white" stroke-linecap="round" stroke-linejoin="round"/>
</svg>
