<svg width="91" height="90" viewBox="0 0 91 90" fill="none" xmlns="http://www.w3.org/2000/svg">
<path d="M15.1645 64.3908C9.77788 59.1093 19.423 54.2629 17.9761 44.585C16.7836 36.6084 14.969 28.0259 20.116 24.7793C25.9371 21.1075 40.8124 30.053 49.0819 20.6531C55.6021 13.2416 64.6789 10.3376 68.3925 14.2163C75.2129 21.34 63.8537 30.3719 70.4554 34.7647C73.4323 36.7453 78.0479 33.9395 79.2622 37.6565C80.4766 41.3737 74.45 43.5243 73.4323 51.6721C72.4146 59.8199 78.7389 70.3149 75.4469 74.2175C69.4653 81.3081 59.0504 70.0899 52.3061 66.2063C45.5617 62.3228 44.2344 74.4244 40.8295 72.9734C37.1653 71.4115 36.3966 65.1738 32.6596 62.5753C28.9226 59.9767 20.2249 69.3526 15.1645 64.3908Z" fill="white"/>
<path d="M49.7734 12.8261C49.985 12.5304 50.3144 12.3452 50.6775 12.3188C51.0381 12.2923 51.382 12.4222 51.6296 12.677L53.6013 14.6968C54.0629 15.1729 54.0557 15.9423 53.5893 16.4087C51.7258 18.2505 49.0473 21.3715 46.8905 25.7933C46.5923 26.4305 46.3158 27.0508 46.0634 27.6664C45.4021 27.7794 44.7337 27.7409 44.0869 27.5341C44.7073 22.2636 46.6573 17.183 49.7734 12.8261Z" fill="#2D9C88"/>
<path d="M33.4957 17.726C29.6799 14.3261 29.5164 9.61336 29.6125 7.80522C31.399 7.50226 36.0973 7.11995 39.9131 10.5198C42.8898 13.1719 43.6256 16.6728 43.7699 18.8993C42.9884 17.964 42.1733 17.0527 41.3005 16.1943C40.2017 15.1171 39.0259 14.0953 37.8045 13.1599C37.463 12.9026 36.9701 12.9628 36.7056 13.3066C36.4435 13.6504 36.5085 14.1409 36.8523 14.403C38.0233 15.2999 39.1533 16.2785 40.2065 17.31C41.238 18.3223 42.1829 19.4115 43.0774 20.532C40.9951 20.7532 36.8619 20.7243 33.4957 17.726Z" fill="#2D9C88"/>
<path d="M71.8605 54.6662C69.6076 63.1418 64.1399 70.2975 57.5878 73.3415C53.9956 75.0126 50.4418 74.3057 47.5901 73.7358C46.8111 73.582 46.0946 73.4401 45.4574 73.3607C45.4261 73.3583 45.3925 73.3559 45.3612 73.3559C45.33 73.3559 45.2963 73.3583 45.265 73.3607C44.6279 73.4401 43.9113 73.582 43.1323 73.7358C40.2758 74.3057 36.7245 75.0102 33.1346 73.3415C26.5826 70.2975 21.1125 63.1418 18.8619 54.6638C16.8975 47.2677 17.703 40.2996 21.0716 35.5508C24.2575 31.0593 30.8456 26.7506 37.7608 27.8758C39.391 28.1427 40.9875 28.7102 42.5023 29.5638C44.2936 30.5736 46.4336 30.5736 48.2225 29.5638C49.7397 28.7126 51.3338 28.1427 52.9641 27.8758C59.9081 26.7409 66.465 31.0617 69.6533 35.5508C73.0195 40.302 73.825 47.2677 71.8605 54.6662Z" fill="#FF7D49"/>
<path d="M23.5825 39.3578C24.0277 38.5895 23.8963 37.6814 23.289 37.3295C22.6816 36.9776 21.8284 37.3151 21.3832 38.0834C20.938 38.8517 21.0695 39.7598 21.6768 40.1117C22.2841 40.4636 23.1374 40.1261 23.5825 39.3578Z" fill="white"/>
<path d="M33.4021 34.1524C35.8603 33.4694 37.5281 31.7465 37.1274 30.304C36.7266 28.8616 34.409 28.246 31.9509 28.9289C29.4927 29.6119 27.8249 31.3348 28.2256 32.7773C28.6264 34.2197 30.944 34.8353 33.4021 34.1524Z" fill="white"/>
</svg>
