<svg width="90" height="90" viewBox="0 0 90 90" fill="none" xmlns="http://www.w3.org/2000/svg">
<path d="M77.8415 39.9705C79.3949 37.2801 78.9305 34.104 76.2401 32.5508C73.5497 30.9974 70.4687 32.1266 68.9154 34.817C67.3622 37.5074 67.3174 41.792 70.0078 43.3454C72.6982 44.8986 76.2883 42.6609 77.8415 39.9705Z" fill="white"/>
<path d="M22.5214 50.1845C23.2289 53.0141 21.9899 55.7616 19.1597 56.469C16.3301 57.1767 13.84 55.3617 13.1326 52.532C12.425 49.7023 13.4909 45.8228 16.3209 45.1154C19.1506 44.4076 21.8134 47.3544 22.5214 50.1845Z" fill="white"/>
<path d="M64.6093 76.4682C59.3278 81.8549 54.4815 72.2098 44.8036 73.6566C36.8269 74.8492 28.2444 76.6637 24.9978 71.5168C21.326 65.6956 30.2715 50.8204 20.8717 42.5508C13.4602 36.0306 10.5561 26.9538 14.4348 23.2403C21.5586 16.4198 30.5905 27.7791 34.9832 21.1774C36.9638 18.2004 34.158 13.5848 37.8751 12.3705C41.5922 11.1562 43.7428 17.1827 51.8906 18.2004C60.0384 19.2181 70.5334 12.8939 74.436 16.1858C81.5266 22.1674 70.3084 32.5824 66.4249 39.3267C62.5414 46.071 74.643 47.3984 73.1919 50.8033C71.6301 54.4675 65.3924 55.2361 62.7938 58.9731C60.1952 62.7101 69.5711 71.4079 64.6093 76.4682Z" fill="white"/>
<path d="M64.0382 17.3077C57.3578 17.3077 51.9229 22.6847 51.9229 29.2941C51.9229 31.9706 52.8386 34.5889 54.5058 36.6911L53.7698 43.0646C53.7484 43.2502 53.8344 43.432 53.9924 43.5344C54.0755 43.5883 54.1709 43.6154 54.2665 43.6154C54.3527 43.6154 54.439 43.5934 54.5165 43.5491L59.8079 40.526C61.1655 41.0268 62.5873 41.2805 64.0382 41.2805C70.7186 41.2805 76.1536 35.9035 76.1536 29.2941C76.1536 22.6847 70.7188 17.3077 64.0382 17.3077ZM69.3902 27.1016L63.1787 33.0016C62.9851 33.1855 62.7356 33.2773 62.4862 33.2773C62.23 33.2773 61.9737 33.1803 61.7787 32.9872L58.6748 29.9127C58.2846 29.5261 58.2849 28.8997 58.6757 28.5135C59.0663 28.1273 59.6994 28.1277 60.0898 28.5144L62.5008 30.9026L68.0052 25.6744C68.4036 25.2961 69.0366 25.3087 69.419 25.7028C69.8017 26.0969 69.7885 26.7231 69.3902 27.1016Z" fill="#FF7D49"/>
<path d="M34.327 49.0658C34.0277 48.9979 33.7261 48.9535 33.4239 48.9318C33.2777 48.9213 33.1313 48.9161 32.985 48.9161C28.8363 48.9161 24.6506 53.0878 23.2439 58.927C21.681 65.3983 24.111 71.5068 28.6607 72.543C30.7987 73.0299 33.1168 72.3167 35.1874 70.5349C37.3568 68.6682 38.9764 65.8806 39.7481 62.6853C41.1614 56.8331 39.3091 51.2779 35.5767 49.5C35.1807 49.3114 34.7636 49.1653 34.327 49.0658ZM30.4682 69.3944C30.3587 69.8524 29.9387 70.1621 29.4743 70.1621C29.3979 70.1621 29.3203 70.1537 29.2426 70.1362C27.4694 69.7365 26.5063 67.9972 26.0899 66.9959C25.6482 65.9341 25.393 64.747 25.3316 63.4678C25.3053 62.9206 25.7407 62.4565 26.3042 62.431C26.8659 62.4053 27.3456 62.8283 27.3719 63.3755C27.4226 64.4308 27.6285 65.399 27.9837 66.2531C28.4329 67.3332 29.0761 68.0625 29.7044 68.2041C30.2538 68.3279 30.5958 68.8607 30.4682 69.3944ZM41.5559 63.8284C43.5572 67.0975 46.5001 68.8291 49.3124 68.3639C51.3221 68.032 53.0409 66.6086 54.1529 64.3559C55.3218 61.9877 55.6736 59.0199 55.1434 55.9994C54.6149 52.9781 53.2722 50.2904 51.3627 48.4305C49.5463 46.6615 47.4394 45.8699 45.4299 46.2017C44.6054 46.3384 43.8334 46.6561 43.1339 47.1347C41.888 47.9873 40.8721 49.3506 40.1994 51.1117C40.556 51.6717 40.8738 52.2816 41.1482 52.9389C42.3947 55.9252 42.6037 59.5475 41.7364 63.1382C41.6803 63.3703 41.62 63.6002 41.5559 63.8284ZM44.0406 61.0837C44.5296 60.811 45.1539 60.9749 45.4347 61.45C45.7862 62.0444 46.188 62.5631 46.6289 62.9914C47.334 63.6761 48.0689 64.0528 48.5458 63.9739C49.1018 63.8821 49.6292 64.2453 49.7236 64.7853C49.8182 65.3252 49.4441 65.8374 48.888 65.9292C48.7274 65.9557 48.5684 65.968 48.4116 65.968C47.0281 65.968 45.8186 65.0093 45.1848 64.3938C44.6164 63.8418 44.1046 63.1837 43.6634 62.4375C43.3826 61.9625 43.5515 61.3564 44.0406 61.0837ZM50.5486 33.7621C47.4984 37.2119 46.1094 41.4691 45.4969 44.191C45.3601 44.2061 45.2233 44.224 45.0869 44.2465C44.4659 44.3494 43.8658 44.5309 43.2925 44.7827C43.786 42.1668 45.0829 37.3583 48.3268 33.2747C43.7903 36.0822 38.6351 40.6186 36.0867 47.5469C35.6702 47.3748 35.2385 47.2364 34.7926 47.1347C34.5678 47.0838 34.342 47.0435 34.1154 47.0119C35.269 43.8332 37.0263 40.8853 39.3601 38.2119C36.3517 39.2484 33.2874 39.7809 30.2863 39.7809C29.6505 39.7809 29.0177 39.757 28.3888 39.7091C23.4036 39.3294 18.7367 37.4464 14.8927 34.2638C14.65 34.0629 14.5194 33.7625 14.5402 33.4536C14.5611 33.1445 14.731 32.8633 14.9985 32.6948C19.0514 30.1428 24.0917 28.8675 29.1897 29.105C34.5027 29.3519 39.3608 31.1893 43.2817 34.4257C45.249 32.8153 47.4542 31.3661 49.8178 30.1314C49.8949 31.3698 50.1427 32.5915 50.5486 33.7621Z" fill="#2D9C88"/>
<path d="M30.4682 69.3944C30.3587 69.8524 29.9387 70.1621 29.4743 70.1621C29.3979 70.1621 29.3203 70.1537 29.2426 70.1362C27.4694 69.7365 26.5063 67.9972 26.0899 66.9959C25.6482 65.9341 25.393 64.747 25.3316 63.4678C25.3053 62.9206 25.7407 62.4565 26.3042 62.431C26.8659 62.4053 27.3456 62.8283 27.3719 63.3755C27.4226 64.4308 27.6285 65.399 27.9837 66.2531C28.4329 67.3332 29.0761 68.0625 29.7044 68.2041C30.2538 68.3279 30.5958 68.8607 30.4682 69.3944Z" fill="#2D9C88"/>
<path d="M44.0406 61.0837C44.5296 60.811 45.1539 60.9749 45.4347 61.45C45.7862 62.0444 46.188 62.5631 46.6289 62.9914C47.334 63.6761 48.0689 64.0528 48.5458 63.9739C49.1018 63.8821 49.6292 64.2453 49.7236 64.7853C49.8182 65.3252 49.4441 65.8374 48.888 65.9292C48.7274 65.9557 48.5684 65.968 48.4116 65.968C47.0281 65.968 45.8186 65.0093 45.1848 64.3938C44.6164 63.8418 44.1046 63.1837 43.6634 62.4375C43.3826 61.9625 43.5515 61.3564 44.0406 61.0837Z" fill="#2D9C88"/>
<path d="M36.0867 47.5469C35.6702 47.3748 35.2385 47.2364 34.7926 47.1347C34.5678 47.0838 34.342 47.0435 34.1154 47.0119L33.4239 48.9318C33.7261 48.9535 34.0277 48.9979 34.327 49.0658C34.7636 49.1653 35.1807 49.3114 35.5767 49.5L36.0867 47.5469Z" fill="#2D9C88"/>
<path d="M45.4969 44.191C45.3601 44.2061 45.2233 44.224 45.0869 44.2465C44.4659 44.3494 43.8658 44.5309 43.2925 44.7827C43.2312 45.1073 43.1339 45.5705 43.1339 47.1347C43.8334 46.6561 44.6054 46.3384 45.4299 46.2017C45.3763 45.1256 45.4522 44.4129 45.4969 44.191Z" fill="#2D9C88"/>
<path d="M29.2169 66.1057C28.0934 64.3905 26.3667 63.5345 25.3602 64.1937C24.3537 64.853 24.4486 66.7779 25.5721 68.4932C26.6957 70.2084 28.4224 71.0644 29.4288 70.4052C30.4353 69.7459 30.3405 67.821 29.2169 66.1057Z" fill="white"/>
<path d="M47.015 52.0827C48.5106 52.7863 50.1161 52.5212 50.6009 51.4907C51.0857 50.4602 50.2662 49.0545 48.7706 48.3509C47.2749 47.6473 45.6695 47.9123 45.1847 48.9428C44.6999 49.9733 45.5194 51.3791 47.015 52.0827Z" fill="white"/>
<path d="M31.7371 53.2334C32.5947 52.6716 32.93 51.6666 32.4859 50.9887C32.0419 50.3108 30.9866 50.2166 30.129 50.7784C29.2714 51.3401 28.9362 52.3451 29.3802 53.023C29.8243 53.701 30.8795 53.7951 31.7371 53.2334Z" fill="white"/>
</svg>
