<svg width="91" height="90" viewBox="0 0 91 90" fill="none" xmlns="http://www.w3.org/2000/svg">
<path d="M15.164 64.3908C9.7774 59.1093 19.4225 54.2629 17.9756 44.585C16.7831 36.6084 14.9685 28.0259 20.1155 24.7793C25.9366 21.1075 40.8119 30.053 49.0814 20.6531C55.6017 13.2416 64.6784 10.3376 68.392 14.2163C75.2125 21.34 63.8532 30.3719 70.4549 34.7647C73.4318 36.7453 78.0474 33.9395 79.2618 37.6565C80.4761 41.3737 74.4495 43.5243 73.4318 51.6721C72.4141 59.8199 78.7384 70.3149 75.4464 74.2174C69.4648 81.3081 59.0499 70.0899 52.3056 66.2063C45.5613 62.3228 44.2339 74.4244 40.829 72.9734C37.1648 71.4115 36.3961 65.1738 32.6591 62.5753C28.9221 59.9767 20.2244 69.3526 15.164 64.3908Z" fill="white"/>
<path d="M31.1884 74.8023C29.1259 76.8647 26.1325 77.2157 24.0699 75.1526C22.0073 73.0902 22.2827 70.0212 24.3453 67.9588C26.4079 65.8964 30.2829 64.8146 32.3455 66.8774C34.4081 68.9398 33.251 72.7392 31.1884 74.8023Z" fill="white"/>
<path d="M59.4489 22.6429C59.7856 22.4528 60.1395 22.2697 60.4997 22.099C62.7339 21.0335 65.3835 20.3495 67.7686 20.2226C67.7704 20.2225 67.772 20.2225 67.7738 20.2223C68.0238 20.2079 68.2735 20.2005 68.5159 20.2005C69.209 20.2005 69.8014 20.2589 70.2765 20.3742C70.7906 20.5009 71.0016 20.6541 71.0818 20.7342C71.3841 21.0363 71.7025 22.0831 71.6041 24.0394C71.4874 26.4172 70.8134 29.0666 69.7546 31.3083C69.5921 31.6554 69.4095 32.0096 69.2127 32.3599C68.3416 33.9253 67.2956 35.2117 66.104 36.1828C65.5065 36.6718 64.8594 37.0697 64.1813 37.3653C64.1454 37.381 64.1076 37.3885 64.0703 37.3885C63.9807 37.3885 63.8937 37.3451 63.8406 37.2675C62.6616 35.5428 61.2393 33.8486 59.6131 32.2318C57.9878 30.6142 56.2862 29.2 54.5552 28.0281C54.4445 27.9531 54.4029 27.81 54.4563 27.6874C54.7516 27.0099 55.1479 26.3625 55.6341 25.7633C56.6012 24.5687 57.8848 23.5188 59.4489 22.6429ZM78.7266 37.0973C78.6992 36.8998 78.5193 36.6011 78.2321 36.2772C77.8538 35.8536 77.3022 35.3918 76.6371 34.9421C74.8369 33.7224 72.5399 32.7645 70.3347 32.3139C70.3161 32.3101 70.2975 32.3083 70.279 32.3083C70.178 32.3083 70.0828 32.3637 70.0339 32.4554C69.08 34.2437 67.9222 35.6989 66.5928 36.7804C65.9968 37.2652 65.3532 37.6683 64.6802 37.9784C64.608 38.0116 64.5534 38.0743 64.5305 38.1504C64.5076 38.2265 64.5185 38.3088 64.5603 38.3764C65.9432 40.6097 66.9229 42.8888 67.4726 45.1505C67.5032 45.2764 67.616 45.3626 67.7423 45.3626C67.7555 45.3626 67.7687 45.3616 67.7819 45.3598C71.7917 44.787 75.4159 41.9721 77.3012 39.7357C78.5144 38.2952 78.768 37.3997 78.7266 37.0973ZM46.6492 24.4306C48.9131 24.969 51.1978 25.9384 53.4399 27.3119C53.4841 27.3389 53.5345 27.3528 53.5853 27.3528C53.6124 27.3528 53.6396 27.3489 53.666 27.3407C53.7421 27.3177 53.8046 27.2632 53.8378 27.1912C54.1517 26.509 54.5533 25.8648 55.0319 25.2761C56.1119 23.9425 57.5649 22.7804 59.3508 21.8221C59.4593 21.7639 59.5166 21.6412 59.4914 21.5208C59.0302 19.3184 58.0614 17.0285 56.8334 15.2381C55.7678 13.6831 54.971 13.1987 54.6646 13.1573C54.6411 13.1544 54.6208 13.1538 54.5973 13.1538C54.3747 13.1538 54.0381 13.2646 53.6497 13.4656C53.1632 13.7173 52.6188 14.0964 52.0309 14.5926C49.7981 16.4851 46.9938 20.1163 46.4382 24.1225C46.4186 24.2641 46.51 24.3975 46.6492 24.4306ZM59.0675 32.7777C66.3442 40.0188 68.9133 48.1878 66.1164 55.1901C64.5284 59.1683 61.2379 62.5489 56.6001 64.9658C51.5337 67.6044 45.1196 69.0365 37.5362 69.2221C37.2891 69.228 37.0467 69.2308 36.8071 69.2308C36.8068 69.2308 36.8067 69.2308 36.8064 69.2308C32.0392 69.2306 28.6845 68.1028 26.2487 65.6814C23.6956 63.1403 22.5553 59.5621 22.6605 54.421C22.8171 46.8465 24.2268 40.435 26.8503 35.3644C29.2509 30.7237 32.6223 27.4244 36.5999 25.8229C38.456 25.0761 40.4192 24.6974 42.4353 24.6974C48.0015 24.6974 53.7528 27.4914 59.0675 32.7777ZM33.3461 58.5604C33.0443 58.2603 32.7167 58.108 32.3727 58.108C31.5156 58.108 30.6917 59.0155 30.3209 59.912C30.0264 60.6239 30.0358 61.2576 30.3454 61.5659C30.5033 61.723 30.7368 61.8027 31.039 61.8027C31.9321 61.8027 33.2852 61.0417 33.691 60.0605C33.9162 59.5168 33.8001 59.0121 33.3461 58.5604ZM35.2304 46.534C34.9287 46.2339 34.6014 46.0816 34.2575 46.0816C33.4002 46.0816 32.5764 46.9894 32.2057 47.8862C31.9115 48.5978 31.9213 49.2312 32.2312 49.5395C32.3891 49.6966 32.6224 49.7763 32.9248 49.7763C33.8175 49.7763 35.1698 49.0155 35.5755 48.0347C35.8005 47.4909 35.6845 46.9859 35.2304 46.534ZM37.1162 34.5075C36.8144 34.2074 36.4869 34.0551 36.1428 34.0551C35.2857 34.0551 34.4618 34.9627 34.0909 35.8591C33.7964 36.571 33.8058 37.2048 34.1155 37.5131C34.2734 37.6702 34.5068 37.7499 34.809 37.7499C35.7022 37.7499 37.0553 36.9889 37.4611 36.0079C37.6862 35.464 37.5701 34.9592 37.1162 34.5075ZM45.38 56.632C45.0782 56.3318 44.7508 56.1796 44.4066 56.1796C43.5495 56.1796 42.7257 57.087 42.3547 57.9836C42.0602 58.6955 42.0697 59.3291 42.3793 59.6374C42.5371 59.7943 42.7702 59.8736 43.0723 59.8736C43.9657 59.8736 45.319 59.1128 45.7249 58.1316C45.95 57.5882 45.834 57.0837 45.38 56.632ZM47.2644 44.6054C46.9629 44.3053 46.6354 44.153 46.2915 44.153C45.4342 44.153 44.6104 45.0609 44.2397 45.9577C43.9456 46.6693 43.9553 47.3027 44.2652 47.6107C44.4233 47.768 44.6566 47.8477 44.9588 47.8477C45.8515 47.8477 47.2038 47.087 47.6096 46.106C47.8346 45.5622 47.7185 45.0573 47.2644 44.6054ZM49.1502 32.579C48.8484 32.2789 48.521 32.1266 48.1768 32.1266C47.3196 32.1266 46.4959 33.0342 46.1254 33.9306C45.8311 34.6425 45.8408 35.2762 46.1509 35.5845C46.3088 35.7418 46.5418 35.8214 46.8439 35.8214C47.7367 35.8214 49.0893 35.0604 49.4951 34.0794C49.7202 33.5356 49.6041 33.0307 49.1502 32.579ZM57.414 54.7035C57.1124 54.4033 56.7848 54.2511 56.4406 54.2511C55.5835 54.2511 54.7597 55.1584 54.3889 56.0548C54.0944 56.7668 54.1038 57.4006 54.4136 57.7089C54.5714 57.8661 54.8048 57.9457 55.1071 57.9457C56.0003 57.9457 57.3533 57.1847 57.7591 56.2035C57.9841 55.6599 57.868 55.1552 57.414 54.7035ZM59.2983 42.6769C58.9968 42.3766 58.6692 42.2244 58.3251 42.2244C57.4684 42.2244 56.6447 43.1316 56.2739 44.0278C55.9794 44.7397 55.9891 45.3738 56.2993 45.6825C56.4569 45.8394 56.69 45.9187 56.9921 45.9187C57.8851 45.9187 59.2378 45.1581 59.6434 44.1773C59.8685 43.6336 59.7525 43.1288 59.2983 42.6769Z" fill="#FF808B"/>
<path d="M59.4489 22.6429C59.7856 22.4528 60.1395 22.2697 60.4996 22.099C62.7338 21.0335 65.3835 20.3495 67.7686 20.2226C67.7704 20.2225 67.7719 20.2225 67.7738 20.2223C68.0237 20.2079 68.2735 20.2005 68.5159 20.2005C69.209 20.2005 69.8013 20.2589 70.2765 20.3742C70.7906 20.5009 71.0016 20.6541 71.0817 20.7342C71.3841 21.0363 71.7024 22.0831 71.604 24.0394C71.4874 26.4172 70.8134 29.0666 69.7546 31.3083C69.592 31.6554 69.4094 32.0096 69.2126 32.3599C68.3415 33.9253 67.2955 35.2117 66.104 36.1828C65.5065 36.6718 64.8594 37.0697 64.1813 37.3653C64.1453 37.381 64.1076 37.3885 64.0702 37.3885C63.9807 37.3885 63.8937 37.3451 63.8406 37.2675C62.6615 35.5428 61.2392 33.8486 59.6131 32.2318C57.9878 30.6142 56.2862 29.2 54.5552 28.0281C54.4445 27.9531 54.4029 27.81 54.4562 27.6874C54.7516 27.0099 55.1478 26.3625 55.634 25.7633C56.6012 24.5687 57.8848 23.5188 59.4489 22.6429ZM78.7266 37.0973C78.6992 36.8998 78.5192 36.6011 78.232 36.2772C77.8538 35.8536 77.3021 35.3918 76.6371 34.9421C74.8369 33.7224 72.5398 32.7645 70.3347 32.3139C70.316 32.3101 70.2975 32.3083 70.279 32.3083C70.1779 32.3083 70.0828 32.3637 70.0339 32.4554C69.08 34.2437 67.9221 35.6989 66.5927 36.7805C65.9967 37.2652 65.3532 37.6683 64.6801 37.9784C64.608 38.0116 64.5534 38.0743 64.5305 38.1504C64.5076 38.2265 64.5184 38.3088 64.5603 38.3764C65.9431 40.6097 66.9229 42.8888 67.4725 45.1505C67.5031 45.2764 67.616 45.3626 67.7423 45.3626C67.7555 45.3626 67.7687 45.3616 67.7819 45.3598C71.7917 44.787 75.4159 41.9721 77.3011 39.7357C78.5143 38.2952 78.768 37.3997 78.7266 37.0973ZM46.6492 24.4306C48.9131 24.969 51.1978 25.9384 53.4399 27.3119C53.4841 27.3389 53.5345 27.3528 53.5853 27.3528C53.6124 27.3528 53.6396 27.3489 53.666 27.3407C53.7421 27.3177 53.8045 27.2632 53.8378 27.1912C54.1517 26.509 54.5532 25.8648 55.0319 25.2761C56.1119 23.9425 57.5649 22.7804 59.3508 21.8221C59.4593 21.7639 59.5165 21.6412 59.4914 21.5208C59.0302 19.3184 58.0614 17.0285 56.8333 15.2381C55.7678 13.6831 54.971 13.1987 54.6646 13.1573C54.6411 13.1544 54.6208 13.1538 54.5973 13.1538C54.3747 13.1538 54.0381 13.2646 53.6497 13.4656C53.1632 13.7173 52.6187 14.0964 52.0309 14.5926C49.7981 16.4851 46.9938 20.1164 46.4382 24.1225C46.4185 24.2641 46.5099 24.3975 46.6492 24.4306Z" fill="#2D9C88"/>
</svg>
