<svg width="90" height="90" viewBox="0 0 90 90" fill="none" xmlns="http://www.w3.org/2000/svg">
<path d="M11.4294 66.4285C5.74272 58.4758 25.1263 57.6782 25.1263 42.2034C25.1262 25.6806 5.21716 22.6768 12.4683 13.5096C19.1411 5.0735 29.1998 21.0981 44.1135 23.4695C59.027 25.8408 68.4444 7.10687 74.3196 14.9336C80.1945 22.7604 59.9361 27.707 63.1005 34.0937C66.2651 40.4805 78.9232 36.2594 78.9232 43.6738C78.9232 51.0882 68.6794 44.5748 59.9361 53.2539C51.1927 61.9331 61.2947 77.3931 55.2846 78.801C48.4443 80.403 53.0719 65.6422 39.773 69.6937C32.9136 71.783 37.8948 66.0274 31.4554 61.6489C25.016 57.2703 17.1162 74.381 11.4294 66.4285Z" fill="white"/>
<g clip-path="url(#clip0_1_1775)">
<path d="M59.2239 42.6789C59.0645 42.3477 58.7304 42.1367 58.3629 42.1367H50.0508L56.4224 17.5583C56.536 17.1231 56.3289 16.6678 55.928 16.4663C55.5252 16.263 55.0375 16.369 54.7558 16.7193L30.8924 46.3099C30.6614 46.5963 30.6155 46.9896 30.774 47.3217C30.9334 47.6529 31.2676 47.8639 31.635 47.8639H39.9471L33.5756 72.4423C33.4621 72.8775 33.6691 73.3328 34.07 73.5343C34.2075 73.6029 34.3535 73.6364 34.4986 73.6364C34.7801 73.6364 35.056 73.5123 35.2421 73.2813L59.1056 43.6907C59.3366 43.4043 59.3824 43.011 59.2239 42.6789Z" fill="#FF808B"/>
<path d="M36.7255 33.6832C36.568 33.3491 36.232 33.1362 35.8626 33.1362H31.3782L34.8766 20.0191C34.9922 19.5847 34.7898 19.1294 34.3908 18.9242C33.9918 18.718 33.5031 18.8201 33.2177 19.1657L19.8541 35.3928C19.6193 35.6781 19.5706 36.0725 19.7281 36.4065C19.8856 36.7406 20.2216 36.9535 20.591 36.9535H25.0754L21.5771 50.0707C21.4616 50.5051 21.664 50.9604 22.0629 51.1656C22.2013 51.2372 22.3512 51.2715 22.4991 51.2715C22.7779 51.2715 23.05 51.1503 23.2361 50.9241L36.5995 34.6969C36.8343 34.4125 36.883 34.0173 36.7255 33.6832Z" fill="#2D9C88"/>
<path d="M70.2709 54.1374C70.1134 53.8033 69.7774 53.5904 69.408 53.5904H64.9236L68.4219 40.4732C68.5375 40.0388 68.3351 39.5836 67.9361 39.3783C67.5371 39.173 67.0484 39.2743 66.763 39.6198L53.3995 55.847C53.1647 56.1324 53.116 56.5267 53.2735 56.8607C53.431 57.1948 53.7671 57.4077 54.1364 57.4077H58.6208L55.1225 70.525C55.007 70.9593 55.2094 71.4146 55.6083 71.6199C55.7467 71.6914 55.8966 71.7258 56.0446 71.7258C56.3233 71.7258 56.5954 71.6045 56.7815 71.3783L70.1451 55.1512C70.3797 54.8668 70.4284 54.4716 70.2709 54.1374Z" fill="#2D9C88"/>
</g>
<defs>
<clipPath id="clip0_1_1775">
<rect width="57.2727" height="57.2727" fill="white" transform="translate(16.3638 16.3636)"/>
</clipPath>
</defs>
</svg>
