<svg width="1600" height="900" viewBox="0 0 1600 900" fill="none" xmlns="http://www.w3.org/2000/svg">
<g clip-path="url(#clip0_52_640)">
<rect width="1600" height="900" fill="#FFF63A"/>
<path d="M160.122 -52.9592V107.04C71.7452 107.04 0.121094 35.3784 0.121094 -52.9592H160.122Z" fill="#FFE327"/>
<path d="M799.921 107.081H639.922C639.922 18.7037 711.584 -52.9204 799.921 -52.9204V107.081Z" fill="#FFE327"/>
<path d="M1279.88 107.04H1119.88C1119.88 18.663 1191.55 -52.9592 1279.88 -52.9592V107.04Z" fill="#FFE327"/>
<path d="M1439.93 -53V107.001C1351.55 107.001 1279.92 35.3376 1279.92 -53H1439.93Z" fill="#FFE327"/>
<path d="M1439.84 107.04V-52.9592C1528.22 -52.9592 1599.84 18.7027 1599.84 107.04H1439.84Z" fill="#FFE327"/>
<path d="M1440 267.001H1600C1600 355.378 1528.34 427 1440 427V267.001Z" fill="#FFE327"/>
<path d="M1439.96 746.963H1599.96C1599.96 835.34 1528.3 906.962 1439.96 906.962V746.963Z" fill="#FFE327"/>
<path d="M1600 427.041V587.04C1511.62 587.04 1440 515.379 1440 427.041H1600Z" fill="#FFE327"/>
<path d="M1279.96 267.001V107.001C1368.34 107.001 1439.96 178.663 1439.96 267.001H1279.96Z" fill="#FFE327"/>
<path d="M1279.96 587.04V427.041C1368.34 427.041 1439.96 498.703 1439.96 587.04H1279.96Z" fill="#FFE327"/>
<path d="M1440 907.002H1280C1280 818.625 1351.66 747.001 1440 747.001V907.002Z" fill="#FFE327"/>
<path d="M1119.96 747.042V587.041C1208.34 587.041 1279.96 658.704 1279.96 747.042H1119.96Z" fill="#FFE327"/>
<path d="M1279.96 427.041H1119.96C1119.96 338.664 1191.62 267.041 1279.96 267.041V427.041Z" fill="#FFE327"/>
<path d="M1119.88 106.961H1279.88C1279.88 195.338 1208.22 266.962 1119.88 266.962V106.961Z" fill="#FFE327"/>
<path d="M959.923 427.041H799.924C799.924 338.664 871.586 267.041 959.923 267.041V427.041Z" fill="#FFE327"/>
<path d="M959.922 427.041H1119.92C1119.92 515.418 1048.26 587.04 959.922 587.04V427.041Z" fill="#FFE327"/>
<path d="M479.324 748.986H639.324C639.324 837.364 567.662 908.986 479.324 908.986V748.986Z" fill="#FFE327"/>
<path d="M638.137 746.207V586.207C726.514 586.207 798.136 657.869 798.136 746.207H638.137Z" fill="#FFE327"/>
<path d="M1120.08 587.002V747.002C1031.7 747.002 960.082 675.34 960.082 587.002H1120.08Z" fill="#FFE327"/>
<path d="M1120.08 907.041H960.082C960.082 818.664 1031.74 747.042 1120.08 747.042V907.041Z" fill="#FFE327"/>
<path d="M799.924 907.041H959.923C959.923 818.664 888.261 747.042 799.924 747.042V907.041Z" fill="#FFE327"/>
<path d="M639.879 107.04H799.882C799.882 195.417 728.216 267.041 639.879 267.041V107.04Z" fill="#FFE327"/>
<path d="M799.921 427.041H639.922C639.922 338.664 711.584 267.041 799.921 267.041V427.041Z" fill="#FFE327"/>
<path d="M319.92 -52.9592C319.92 35.4181 248.259 107.04 159.961 107.04V-52.9592H319.92Z" fill="#FFE327"/>
<path d="M160.122 267.042H0.121094V107.081C88.4984 107.081 160.122 178.704 160.122 267.042Z" fill="#FFE327"/>
<path d="M479.918 107.081H319.961V-52.9206C319.961 35.4567 391.62 107.081 479.918 107.081Z" fill="#FFE327"/>
<path d="M959.845 107.081H799.885V-52.9204C799.885 35.4569 871.548 107.081 959.845 107.081Z" fill="#FFE327"/>
<path d="M959.885 267.08H799.924V107.081C799.924 195.458 871.587 267.08 959.885 267.08Z" fill="#FFE327"/>
<path d="M1279.96 427V586.961H1119.96C1208.34 586.961 1279.96 515.298 1279.96 427Z" fill="#FFE327"/>
<path d="M1119.88 747.001V906.962H1279.88C1191.51 906.962 1119.88 835.299 1119.88 747.001Z" fill="#FFE327"/>
<path d="M959.885 587.04H799.924V427.041C799.924 515.418 871.587 587.04 959.885 587.04Z" fill="#FFE327"/>
<path d="M479.879 107.04V-52.9204H639.878C551.501 -52.9204 479.879 18.7424 479.879 107.04Z" fill="#FFE327"/>
<path d="M959.881 107.081V-52.8796H1119.88C1031.5 -52.8796 959.881 18.7832 959.881 107.081Z" fill="#FFE327"/>
<path d="M479.918 267.041H319.961V107.04C319.961 195.417 391.62 267.041 479.918 267.041Z" fill="#FFE327"/>
<path d="M479.918 587.001H319.961V427C319.961 515.377 391.62 587.001 479.918 587.001Z" fill="#FFE327"/>
<path d="M159.92 587.002V427.041H319.919C231.542 427.041 159.92 498.704 159.92 587.002Z" fill="#FFE327"/>
<path d="M160.121 266.842V426.803C71.7435 426.803 0.160156 355.18 0.160156 266.842H160.121Z" fill="#FFE327"/>
<path d="M319.92 266.842C319.92 355.219 248.299 426.803 159.961 426.803V266.842H319.92Z" fill="#FFE327"/>
<path d="M319.92 107.081V267.042H159.961C159.961 178.664 231.582 107.081 319.92 107.081Z" fill="#FFE327"/>
<path d="M639.881 267.042H479.92V107.081C568.297 107.081 639.881 178.704 639.881 267.042Z" fill="#FFE327"/>
<path d="M1119.88 267.042H959.922V107.081C1048.3 107.081 1119.88 178.704 1119.88 267.042Z" fill="#FFE327"/>
<path d="M479.92 587.002V427.041H639.881C639.881 515.418 568.258 587.002 479.92 587.002Z" fill="#FFE327"/>
<path d="M799.924 747.001V587.041H959.885C959.885 675.418 888.261 747.001 799.924 747.001Z" fill="#FFE327"/>
<path d="M479.918 267.042V427H319.961C319.961 338.623 391.58 267.042 479.918 267.042Z" fill="#FFE327"/>
<path d="M160.002 427V586.961H0.0410156C0.0410156 498.583 71.6641 427 160.002 427Z" fill="#FFE327"/>
<path d="M160.002 746.922V586.961H0.0410156C0.0410156 675.338 71.6641 746.922 160.002 746.922Z" fill="#FFE327"/>
<path d="M0 746.963V906.923H159.961C159.961 818.546 88.3376 746.963 0 746.963Z" fill="#FFE327"/>
<path d="M0 746.963V906.923H159.961C159.961 818.546 88.3376 746.963 0 746.963Z" fill="#FFE327"/>
<path d="M319.959 746.922V906.883H159.996C159.996 818.505 231.621 746.922 319.959 746.922Z" fill="#FFE327"/>
<path d="M319.918 746.922V906.883H479.879C479.879 818.505 408.256 746.922 319.918 746.922Z" fill="#FFE327"/>
<path d="M159.961 586.922V746.883H319.92C319.92 658.505 248.299 586.922 159.961 586.922Z" fill="#FFE327"/>
<path d="M319.918 746.963V587.002H479.879C479.879 675.38 408.256 746.963 319.918 746.963Z" fill="#FFE327"/>
</g>
<defs>
<clipPath id="clip0_52_640">
<rect width="1600" height="900" fill="white"/>
</clipPath>
</defs>
</svg>
